M48
; DRILL file {KiCad (5.99.0-12960-gccd3a1e6a9)} date Fri Oct 29 20:51:22 2021
; FORMAT={-:-/ absolute / metric / decimal}
; #@! TF.CreationDate,2021-10-29T20:51:22-05:00
; #@! TF.GenerationSoftware,Kicad,Pcbnew,(5.99.0-12960-gccd3a1e6a9)
; #@! TF.FileFunction,MixedPlating,1,2
FMAT,2
METRIC
; #@! TA.AperFunction,Plated,PTH,ComponentDrill
T1C0.500
; #@! TA.AperFunction,Plated,PTH,ComponentDrill
T2C0.750
; #@! TA.AperFunction,Plated,PTH,ViaDrill
T3C0.800
; #@! TA.AperFunction,Plated,PTH,ComponentDrill
T4C0.800
; #@! TA.AperFunction,Plated,PTH,ComponentDrill
T5C0.900
; #@! TA.AperFunction,Plated,PTH,ComponentDrill
T6C1.000
; #@! TA.AperFunction,Plated,PTH,ComponentDrill
T7C1.100
; #@! TA.AperFunction,Plated,PTH,ComponentDrill
T8C1.200
; #@! TA.AperFunction,Plated,PTH,ComponentDrill
T9C1.300
; #@! TA.AperFunction,Plated,PTH,ComponentDrill
T10C1.500
; #@! TA.AperFunction,Plated,PTH,ComponentDrill
T11C3.200
%
G90
G05
T1
X7.1Y-9.5
X7.803Y-7.803
X7.803Y-11.197
X9.5Y-7.1
X9.5Y-11.9
X11.197Y-7.803
X11.197Y-11.197
X11.9Y-9.5
X78.6Y-45.5
X79.303Y-43.803
X79.303Y-47.197
X81.0Y-43.1
X81.0Y-47.9
X82.697Y-43.803
X82.697Y-47.197
X83.4Y-45.5
T2
X16.6Y-35.4
X16.6Y-37.94
X17.87Y-36.67
X22.0Y-35.4
X22.0Y-37.94
X23.27Y-36.67
X31.53Y-43.13
X31.8Y-47.8
X31.8Y-50.34
X32.8Y-41.86
X32.8Y-44.4
X33.07Y-49.07
T3
X75.4Y-34.2
X81.0Y-34.2
T4
X12.4Y-28.2
X12.4Y-33.2
X12.4Y-36.8
X12.4Y-44.42
X14.5Y-17.0
X14.5Y-24.62
X16.2Y-32.0
X17.4Y-40.6
X17.4Y-48.22
X18.8Y-22.0
X22.2Y-40.8
X22.2Y-48.42
X22.3Y-22.0
X23.82Y-32.0
X26.0Y-44.98
X26.0Y-52.6
X26.38Y-38.6
X26.4Y-35.4
X29.28Y-18.8
X29.28Y-22.4
X30.7Y-15.4
X32.8Y-27.1
X32.8Y-30.6
X34.0Y-38.6
X34.02Y-35.4
X35.7Y-15.4
X36.9Y-18.8
X36.9Y-22.4
X37.0Y-39.6
X37.0Y-44.6
X37.0Y-48.0
X37.0Y-53.0
X40.6Y-36.98
X40.6Y-44.6
X46.0Y-56.4
X51.0Y-56.4
T5
X15.4Y-28.4
X25.56Y-28.4
T6
X10.8Y-20.2
X10.8Y-22.74
X40.2Y-48.4
X42.7Y-53.4
X45.2Y-48.4
T7
X39.8Y-23.44
X39.8Y-33.6
X44.2Y-35.04
X44.2Y-45.2
X46.0Y-25.72
X46.0Y-28.26
X46.0Y-30.8
X50.0Y-28.34
X50.0Y-38.5
X55.4Y-13.92
X55.4Y-16.46
X55.4Y-19.0
X55.6Y-46.12
X55.6Y-48.66
X55.6Y-51.2
T8
X60.8Y-8.48
X60.8Y-28.8
X60.8Y-33.08
X60.8Y-53.4
X69.5Y-18.64
X69.5Y-28.8
X69.5Y-39.0
X69.5Y-49.16
T9
X11.0Y-55.5
X16.08Y-55.5
X21.16Y-55.5
X81.0Y-22.92
X81.0Y-28.0
T10
X69.0Y-9.0
X69.1Y-57.0
X74.45Y-9.0
X74.55Y-57.0
X79.9Y-9.0
X80.0Y-57.0
T11
X9.5Y-9.5
X81.0Y-45.5
T0
M30
