<?xml version="1.0" standalone="no"?>
 <!DOCTYPE svg PUBLIC "-//W3C//DTD SVG 1.1//EN" 
 "http://www.w3.org/Graphics/SVG/1.1/DTD/svg11.dtd"> 
<svg
  xmlns:svg="http://www.w3.org/2000/svg"
  xmlns="http://www.w3.org/2000/svg"
  xmlns:xlink="http://www.w3.org/1999/xlink"
  version="1.1"
  width="29.700220cm" height="21.000720cm" viewBox="0 0 297002200 210007200">
<title>SVG Picture created as amplificador_200w-B_Mask.svg date 2021/10/29 20:50:54 </title>
  <desc>Picture generated by PCBNEW </desc>
<g style="fill:#000000; fill-opacity:1.000000;stroke:#000000; stroke-opacity:1.000000;
stroke-linecap:round; stroke-linejoin:round;"
 transform="translate(0 0) scale(1 1)">
</g>
<g style="fill:#000000; fill-opacity:0.0; 
stroke:#000000; stroke-width:0.000000; stroke-opacity:1; 
stroke-linecap:round; stroke-linejoin:round;">
</g>
<g style="fill:#000000; fill-opacity:0.0; 
stroke:#000000; stroke-width:100000.000000; stroke-opacity:1; 
stroke-linecap:round; stroke-linejoin:round;">
<path d="M76100000 33500000
L76400000 34200000
" />
<path d="M76400000 34200000
L76100000 34900000
" />
<path d="M76100000 34900000
L75400000 35200000
" />
<path d="M75400000 35200000
L74800000 34900000
" />
<path d="M74800000 34900000
L74500000 34200000
" />
<path d="M74500000 34200000
L74800000 33500000
" />
<path d="M74800000 33500000
L75400000 33200000
" />
<path d="M75400000 33200000
L76100000 33500000
" />
</g>
<g style="fill:#000000; fill-opacity:1.0; 
stroke:#000000; stroke-width:100000.000000; stroke-opacity:1; 
stroke-linecap:round; stroke-linejoin:round;">
<path style="fill:#000000; fill-opacity:1.0; 
stroke:#000000; stroke-width:100000.000000; stroke-opacity:1; 
stroke-linecap:round; stroke-linejoin:round;fill-rule:evenodd;"
d="M 76100000.000000,33500000.000000
76400000.000000,34200000.000000
76100000.000000,34900000.000000
75400000.000000,35200000.000000
74800000.000000,34900000.000000
74500000.000000,34200000.000000
74800000.000000,33500000.000000
75400000.000000,33200000.000000
Z" /> 
</g>
<g style="fill:#000000; fill-opacity:0.0; 
stroke:#000000; stroke-width:100000.000000; stroke-opacity:1; 
stroke-linecap:round; stroke-linejoin:round;">
<path d="M81700000 33500000
L82000000 34200000
" />
<path d="M82000000 34200000
L81700000 34900000
" />
<path d="M81700000 34900000
L81000000 35200000
" />
<path d="M81000000 35200000
L80400000 34900000
" />
<path d="M80400000 34900000
L80100000 34200000
" />
<path d="M80100000 34200000
L80400000 33500000
" />
<path d="M80400000 33500000
L81000000 33200000
" />
<path d="M81000000 33200000
L81700000 33500000
" />
</g>
<g style="fill:#000000; fill-opacity:1.0; 
stroke:#000000; stroke-width:100000.000000; stroke-opacity:1; 
stroke-linecap:round; stroke-linejoin:round;">
<path style="fill:#000000; fill-opacity:1.0; 
stroke:#000000; stroke-width:100000.000000; stroke-opacity:1; 
stroke-linecap:round; stroke-linejoin:round;fill-rule:evenodd;"
d="M 81700000.000000,33500000.000000
82000000.000000,34200000.000000
81700000.000000,34900000.000000
81000000.000000,35200000.000000
80400000.000000,34900000.000000
80100000.000000,34200000.000000
80400000.000000,33500000.000000
81000000.000000,33200000.000000
Z" /> 
</g>
<g style="fill:#000000; fill-opacity:1.0; 
stroke:#000000; stroke-width:50000.000000; stroke-opacity:1; 
stroke-linecap:round; stroke-linejoin:round;">
</g>
<g style="fill:#000000; fill-opacity:0.0; 
stroke:#000000; stroke-width:50000.000000; stroke-opacity:1; 
stroke-linecap:round; stroke-linejoin:round;">
<path d="M86000000 61000000
L86000000 5000000
" />
<path d="M5000000 5000000
L5000000 61000000
" />
<path d="M5000000 61000000
L86000000 61000000
" />
<path d="M86000000 5000000
L5000000 5000000
" />
</g>
<g style="fill:#000000; fill-opacity:0.0; 
stroke:#000000; stroke-width:10000.000000; stroke-opacity:1; 
stroke-linecap:round; stroke-linejoin:round;">
<path d="M18993994 8622764
L18814086 8625933
" />
<path d="M18814086 8625933
L18670882 8632821
" />
<path d="M18670882 8632821
L18557340 8644742
" />
<path d="M18557340 8644742
L18466417 8663011
" />
<path d="M18466417 8663011
L18391072 8688941
" />
<path d="M18391072 8688941
L18324262 8723847
" />
<path d="M18324262 8723847
L18258944 8769044
" />
<path d="M18258944 8769044
L18206409 8810724
" />
<path d="M18206409 8810724
L18080025 8944443
" />
<path d="M18080025 8944443
L17994266 9099527
" />
<path d="M17994266 9099527
L17947997 9268413
" />
<path d="M17947997 9268413
L17940083 9443540
" />
<path d="M17940083 9443540
L17969387 9617347
" />
<path d="M17969387 9617347
L18034776 9782273
" />
<path d="M18034776 9782273
L18135112 9930756
" />
<path d="M18135112 9930756
L18269261 10055235
" />
<path d="M18269261 10055235
L18405242 10134800
" />
<path d="M18405242 10134800
L18459500 10157586
" />
<path d="M18459500 10157586
L18514681 10174659
" />
<path d="M18514681 10174659
L18580177 10187281
" />
<path d="M18580177 10187281
L18665383 10196717
" />
<path d="M18665383 10196717
L18779693 10204227
" />
<path d="M18779693 10204227
L18932500 10211075
" />
<path d="M18932500 10211075
L18988899 10213252
" />
<path d="M18988899 10213252
L19166545 10220935
" />
<path d="M19166545 10220935
L19298771 10229726
" />
<path d="M19298771 10229726
L19390954 10241111
" />
<path d="M19390954 10241111
L19448475 10256580
" />
<path d="M19448475 10256580
L19476711 10277620
" />
<path d="M19476711 10277620
L19481040 10305720
" />
<path d="M19481040 10305720
L19466840 10342368
" />
<path d="M19466840 10342368
L19465394 10345101
" />
<path d="M19465394 10345101
L19452369 10363123
" />
<path d="M19452369 10363123
L19430498 10376508
" />
<path d="M19430498 10376508
L19392435 10386171
" />
<path d="M19392435 10386171
L19330835 10393031
" />
<path d="M19330835 10393031
L19238354 10398003
" />
<path d="M19238354 10398003
L19107644 10402004
" />
<path d="M19107644 10402004
L18987381 10404763
" />
<path d="M18987381 10404763
L18786630 10411192
" />
<path d="M18786630 10411192
L18627954 10422621
" />
<path d="M18627954 10422621
L18502680 10441776
" />
<path d="M18502680 10441776
L18402135 10471383
" />
<path d="M18402135 10471383
L18317645 10514166
" />
<path d="M18317645 10514166
L18240537 10572852
" />
<path d="M18240537 10572852
L18162137 10650165
" />
<path d="M18162137 10650165
L18144028 10669754
" />
<path d="M18144028 10669754
L18080785 10743228
" />
<path d="M18080785 10743228
L18032078 10813354
" />
<path d="M18032078 10813354
L17995950 10888280
" />
<path d="M17995950 10888280
L17970447 10976157
" />
<path d="M17970447 10976157
L17953610 11085132
" />
<path d="M17953610 11085132
L17943484 11223356
" />
<path d="M17943484 11223356
L17938112 11398977
" />
<path d="M17938112 11398977
L17936261 11535187
" />
<path d="M17936261 11535187
L17935101 11709164
" />
<path d="M17935101 11709164
L17935875 11839823
" />
<path d="M17935875 11839823
L17939089 11934630
" />
<path d="M17939089 11934630
L17945252 12001046
" />
<path d="M17945252 12001046
L17954869 12046536
" />
<path d="M17954869 12046536
L17968447 12078562
" />
<path d="M17968447 12078562
L17973742 12087234
" />
<path d="M17973742 12087234
L18041765 12150311
" />
<path d="M18041765 12150311
L18127874 12175328
" />
<path d="M18127874 12175328
L18216549 12162317
" />
<path d="M18216549 12162317
L18292268 12111315
" />
<path d="M18292268 12111315
L18311547 12086488
" />
<path d="M18311547 12086488
L18328054 12054191
" />
<path d="M18328054 12054191
L18339440 12010524
" />
<path d="M18339440 12010524
L18346374 11947008
" />
<path d="M18346374 11947008
L18349520 11855164
" />
<path d="M18349520 11855164
L18349545 11726516
" />
<path d="M18349545 11726516
L18348215 11619869
" />
<path d="M18348215 11619869
L18347645 11421508
" />
<path d="M18347645 11421508
L18353363 11266937
" />
<path d="M18353363 11266937
L18366326 11149427
" />
<path d="M18366326 11149427
L18387490 11062247
" />
<path d="M18387490 11062247
L18417812 10998668
" />
<path d="M18417812 10998668
L18440753 10969101
" />
<path d="M18440753 10969101
L18480569 10927266
" />
<path d="M18480569 10927266
L18517803 10895892
" />
<path d="M18517803 10895892
L18560417 10873244
" />
<path d="M18560417 10873244
L18616376 10857588
" />
<path d="M18616376 10857588
L18693644 10847190
" />
<path d="M18693644 10847190
L18800187 10840315
" />
<path d="M18800187 10840315
L18943967 10835230
" />
<path d="M18943967 10835230
L19071264 10831800
" />
<path d="M19071264 10831800
L19560601 10819100
" />
<path d="M19560601 10819100
L19670651 10741772
" />
<path d="M19670651 10741772
L19788870 10631628
" />
<path d="M19788870 10631628
L19865945 10502319
" />
<path d="M19865945 10502319
L19903005 10362166
" />
<path d="M19903005 10362166
L19901182 10219487
" />
<path d="M19901182 10219487
L19861606 10082603
" />
<path d="M19861606 10082603
L19785407 9959832
" />
<path d="M19785407 9959832
L19673715 9859496
" />
<path d="M19673715 9859496
L19541960 9794622
" />
<path d="M19541960 9794622
L19480644 9782924
" />
<path d="M19480644 9782924
L19376843 9773768
" />
<path d="M19376843 9773768
L19238833 9767646
" />
<path d="M19238833 9767646
L19074888 9765054
" />
<path d="M19074888 9765054
L19046264 9765000
" />
<path d="M19046264 9765000
L18887032 9764241
" />
<path d="M18887032 9764241
L18769604 9761397
" />
<path d="M18769604 9761397
L18684997 9755614
" />
<path d="M18684997 9755614
L18624229 9746038
" />
<path d="M18624229 9746038
L18578318 9731815
" />
<path d="M18578318 9731815
L18548404 9717677
" />
<path d="M18548404 9717677
L18448082 9636842
" />
<path d="M18448082 9636842
L18385257 9525631
" />
<path d="M18385257 9525631
L18364740 9392909
" />
<path d="M18364740 9392909
L18386654 9266334
" />
<path d="M18386654 9266334
L18450510 9166480
" />
<path d="M18450510 9166480
L18531131 9103482
" />
<path d="M18531131 9103482
L18560346 9087821
" />
<path d="M18560346 9087821
L18594597 9075840
" />
<path d="M18594597 9075840
L18640697 9067051
" />
<path d="M18640697 9067051
L18705462 9060966
" />
<path d="M18705462 9060966
L18795707 9057097
" />
<path d="M18795707 9057097
L18918245 9054954
" />
<path d="M18918245 9054954
L19079892 9054051
" />
<path d="M19079892 9054051
L19223316 9053894
" />
<path d="M19223316 9053894
L19834331 9053800
" />
<path d="M19834331 9053800
L19921091 9117809
" />
<path d="M19921091 9117809
L19982426 9168757
" />
<path d="M19982426 9168757
L20027217 9215964
" />
<path d="M20027217 9215964
L20033976 9225759
" />
<path d="M20033976 9225759
L20040776 9262393
" />
<path d="M20040776 9262393
L20047276 9347355
" />
<path d="M20047276 9347355
L20053396 9478173
" />
<path d="M20053396 9478173
L20059057 9652376
" />
<path d="M20059057 9652376
L20064181 9867493
" />
<path d="M20064181 9867493
L20068687 10121052
" />
<path d="M20068687 10121052
L20072497 10410582
" />
<path d="M20072497 10410582
L20072800 10438100
" />
<path d="M20072800 10438100
L20085500 11606500
" />
<path d="M20085500 11606500
L20152820 11733500
" />
<path d="M20152820 11733500
L20270735 11905097
" />
<path d="M20270735 11905097
L20422035 12042109
" />
<path d="M20422035 12042109
L20523113 12103379
" />
<path d="M20523113 12103379
L20651386 12147445
" />
<path d="M20651386 12147445
L20805209 12168092
" />
<path d="M20805209 12168092
L20965262 12165160
" />
<path d="M20965262 12165160
L21112219 12138489
" />
<path d="M21112219 12138489
L21190400 12108923
" />
<path d="M21190400 12108923
L21345396 12006795
" />
<path d="M21345396 12006795
L21480497 11867577
" />
<path d="M21480497 11867577
L21567099 11734963
" />
<path d="M21567099 11734963
L21634900 11606500
" />
<path d="M21634900 11606500
L21647600 10438100
" />
<path d="M21647600 10438100
L21650621 10157378
" />
<path d="M21650621 10157378
L21653427 9922896
" />
<path d="M21653427 9922896
L21656594 9730099
" />
<path d="M21656594 9730099
L21660696 9574434
" />
<path d="M21660696 9574434
L21666309 9451345
" />
<path d="M21666309 9451345
L21674007 9356280
" />
<path d="M21674007 9356280
L21684365 9284682
" />
<path d="M21684365 9284682
L21697958 9231999
" />
<path d="M21697958 9231999
L21715362 9193676
" />
<path d="M21715362 9193676
L21737150 9165159
" />
<path d="M21737150 9165159
L21763898 9141894
" />
<path d="M21763898 9141894
L21796181 9119326
" />
<path d="M21796181 9119326
L21815745 9106081
" />
<path d="M21815745 9106081
L21877689 9070975
" />
<path d="M21877689 9070975
L21941387 9056553
" />
<path d="M21941387 9056553
L22029405 9058159
" />
<path d="M22029405 9058159
L22042879 9059225
" />
<path d="M22042879 9059225
L22136690 9072474
" />
<path d="M22136690 9072474
L22202472 9099354
" />
<path d="M22202472 9099354
L22262816 9149262
" />
<path d="M22262816 9149262
L22265297 9151731
" />
<path d="M22265297 9151731
L22346100 9232493
" />
<path d="M22346100 9232493
L22359834 10394096
" />
<path d="M22359834 10394096
L22363196 10668941
" />
<path d="M22363196 10668941
L22366364 10897791
" />
<path d="M22366364 10897791
L22369578 11085450
" />
<path d="M22369578 11085450
L22373080 11236721
" />
<path d="M22373080 11236721
L22377109 11356408
" />
<path d="M22377109 11356408
L22381907 11449313
" />
<path d="M22381907 11449313
L22387715 11520241
" />
<path d="M22387715 11520241
L22394774 11573995
" />
<path d="M22394774 11573995
L22403324 11615379
" />
<path d="M22403324 11615379
L22413606 11649195
" />
<path d="M22413606 11649195
L22424117 11676125
" />
<path d="M22424117 11676125
L22521462 11846754
" />
<path d="M22521462 11846754
L22655928 11992793
" />
<path d="M22655928 11992793
L22793079 12089306
" />
<path d="M22793079 12089306
L22865526 12126607
" />
<path d="M22865526 12126607
L22928872 12149278
" />
<path d="M22928872 12149278
L23000254 12160876
" />
<path d="M23000254 12160876
L23096807 12164961
" />
<path d="M23096807 12164961
L23158900 12165300
" />
<path d="M23158900 12165300
L23274276 12163593
" />
<path d="M23274276 12163593
L23355993 12156120
" />
<path d="M23355993 12156120
L23421145 12139347
" />
<path d="M23421145 12139347
L23486824 12109744
" />
<path d="M23486824 12109744
L23523528 12089956
" />
<path d="M23523528 12089956
L23670786 11986100
" />
<path d="M23670786 11986100
L23794955 11854994
" />
<path d="M23794955 11854994
L23883717 11710276
" />
<path d="M23883717 11710276
L23898417 11674941
" />
<path d="M23898417 11674941
L23909192 11641768
" />
<path d="M23909192 11641768
L23918288 11601260
" />
<path d="M23918288 11601260
L23925923 11548672
" />
<path d="M23925923 11548672
L23932317 11479258
" />
<path d="M23932317 11479258
L23937689 11388273
" />
<path d="M23937689 11388273
L23942258 11270970
" />
<path d="M23942258 11270970
L23946243 11122605
" />
<path d="M23946243 11122605
L23949864 10938432
" />
<path d="M23949864 10938432
L23953340 10713706
" />
<path d="M23953340 10713706
L23956889 10443680
" />
<path d="M23956889 10443680
L23957475 10396271
" />
<path d="M23957475 10396271
L23960906 10123107
" />
<path d="M23960906 10123107
L23964053 9896188
" />
<path d="M23964053 9896188
L23967160 9710961
" />
<path d="M23967160 9710961
L23970470 9562876
" />
<path d="M23970470 9562876
L23974226 9447379
" />
<path d="M23974226 9447379
L23978672 9359918
" />
<path d="M23978672 9359918
L23984051 9295942
" />
<path d="M23984051 9295942
L23990605 9250897
" />
<path d="M23990605 9250897
L23998580 9220233
" />
<path d="M23998580 9220233
L24008217 9199396
" />
<path d="M24008217 9199396
L24019760 9183834
" />
<path d="M24019760 9183834
L24022441 9180821
" />
<path d="M24022441 9180821
L24126090 9100129
" />
<path d="M24126090 9100129
L24246139 9059875
" />
<path d="M24246139 9059875
L24371062 9059362
" />
<path d="M24371062 9059362
L24489336 9097890
" />
<path d="M24489336 9097890
L24589434 9174762
" />
<path d="M24589434 9174762
L24622538 9217190
" />
<path d="M24622538 9217190
L24631184 9239342
" />
<path d="M24631184 9239342
L24638629 9280516
" />
<path d="M24638629 9280516
L24645030 9344679
" />
<path d="M24645030 9344679
L24650540 9435797
" />
<path d="M24650540 9435797
L24655316 9557838
" />
<path d="M24655316 9557838
L24659511 9714767
" />
<path d="M24659511 9714767
L24663280 9910550
" />
<path d="M24663280 9910550
L24666779 10149156
" />
<path d="M24666779 10149156
L24670162 10434549
" />
<path d="M24670162 10434549
L24670200 10438100
" />
<path d="M24670200 10438100
L24673237 10712194
" />
<path d="M24673237 10712194
L24676026 10940249
" />
<path d="M24676026 10940249
L24678825 11127023
" />
<path d="M24678825 11127023
L24681894 11277275
" />
<path d="M24681894 11277275
L24685490 11395761
" />
<path d="M24685490 11395761
L24689873 11487241
" />
<path d="M24689873 11487241
L24695301 11556473
" />
<path d="M24695301 11556473
L24702033 11608214
" />
<path d="M24702033 11608214
L24710327 11647224
" />
<path d="M24710327 11647224
L24720443 11678259
" />
<path d="M24720443 11678259
L24732638 11706079
" />
<path d="M24732638 11706079
L24739925 11720931
" />
<path d="M24739925 11720931
L24846709 11884161
" />
<path d="M24846709 11884161
L24985395 12016771
" />
<path d="M24985395 12016771
L25147398 12112747
" />
<path d="M25147398 12112747
L25324135 12166072
" />
<path d="M25324135 12166072
L25385613 12173386
" />
<path d="M25385613 12173386
L25472350 12176794
" />
<path d="M25472350 12176794
L25527656 12168006
" />
<path d="M25527656 12168006
L25570374 12142103
" />
<path d="M25570374 12142103
L25595530 12118579
" />
<path d="M25595530 12118579
L25650837 12034411
" />
<path d="M25650837 12034411
L25661161 11946638
" />
<path d="M25661161 11946638
L25630560 11864903
" />
<path d="M25630560 11864903
L25563095 11798849
" />
<path d="M25563095 11798849
L25462825 11758118
" />
<path d="M25462825 11758118
L25442193 11754310
" />
<path d="M25442193 11754310
L25297527 11713697
" />
<path d="M25297527 11713697
L25193305 11642932
" />
<path d="M25193305 11642932
L25159390 11600800
" />
<path d="M25159390 11600800
L25148739 11580948
" />
<path d="M25148739 11580948
L25139785 11553638
" />
<path d="M25139785 11553638
L25132315 11514306
" />
<path d="M25132315 11514306
L25126115 11458392
" />
<path d="M25126115 11458392
L25120970 11381331
" />
<path d="M25120970 11381331
L25116668 11278562
" />
<path d="M25116668 11278562
L25112994 11145523
" />
<path d="M25112994 11145523
L25109735 10977651
" />
<path d="M25109735 10977651
L25106677 10770384
" />
<path d="M25106677 10770384
L25103606 10519160
" />
<path d="M25103606 10519160
L25102000 10375778
" />
<path d="M25102000 10375778
L25098927 10102744
" />
<path d="M25098927 10102744
L25096071 9875699
" />
<path d="M25096071 9875699
L25093179 9689832
" />
<path d="M25093179 9689832
L25089994 9540336
" />
<path d="M25089994 9540336
L25086263 9422401
" />
<path d="M25086263 9422401
L25081730 9331218
" />
<path d="M25081730 9331218
L25076142 9261977
" />
<path d="M25076142 9261977
L25069242 9209869
" />
<path d="M25069242 9209869
L25060776 9170086
" />
<path d="M25060776 9170086
L25050490 9137817
" />
<path d="M25050490 9137817
L25038128 9108253
" />
<path d="M25038128 9108253
L25034414 9100137
" />
<path d="M25034414 9100137
L24928246 8926228
" />
<path d="M24928246 8926228
L24789544 8788418
" />
<path d="M24789544 8788418
L24623585 8690431
" />
<path d="M24623585 8690431
L24435647 8635991
" />
<path d="M24435647 8635991
L24365037 8627869
" />
<path d="M24365037 8627869
L24166661 8637853
" />
<path d="M24166661 8637853
L23982113 8694418
" />
<path d="M23982113 8694418
L23818206 8793907
" />
<path d="M23818206 8793907
L23681757 8932664
" />
<path d="M23681757 8932664
L23618610 9028400
" />
<path d="M23618610 9028400
L23539900 9168100
" />
<path d="M23539900 9168100
L23527200 10336500
" />
<path d="M23527200 10336500
L23523538 10636308
" />
<path d="M23523538 10636308
L23519541 10888268
" />
<path d="M23519541 10888268
L23515101 11095332
" />
<path d="M23515101 11095332
L23510114 11260451
" />
<path d="M23510114 11260451
L23504474 11386577
" />
<path d="M23504474 11386577
L23498074 11476661
" />
<path d="M23498074 11476661
L23490809 11533655
" />
<path d="M23490809 11533655
L23483323 11559310
" />
<path d="M23483323 11559310
L23443615 11610940
" />
<path d="M23443615 11610940
L23384660 11670093
" />
<path d="M23384660 11670093
L23370238 11682641
" />
<path d="M23370238 11682641
L23316671 11722247
" />
<path d="M23316671 11722247
L23265370 11740981
" />
<path d="M23265370 11740981
L23195811 11744074
" />
<path d="M23195811 11744074
L23141413 11740935
" />
<path d="M23141413 11740935
L23009456 11714830
" />
<path d="M23009456 11714830
L22909500 11654329
" />
<path d="M22909500 11654329
L22832718 11555700
" />
<path d="M22832718 11555700
L22824701 11522248
" />
<path d="M22824701 11522248
L22817514 11449839
" />
<path d="M22817514 11449839
L22811091 11336594
" />
<path d="M22811091 11336594
L22805367 11180637
" />
<path d="M22805367 11180637
L22800279 10980091
" />
<path d="M22800279 10980091
L22795761 10733080
" />
<path d="M22795761 10733080
L22791747 10437727
" />
<path d="M22791747 10437727
L22790600 10336500
" />
<path d="M22790600 10336500
L22787559 10062341
" />
<path d="M22787559 10062341
L22784759 9834259
" />
<path d="M22784759 9834259
L22781947 9647534
" />
<path d="M22781947 9647534
L22778869 9497444
" />
<path d="M22778869 9497444
L22775272 9379270
" />
<path d="M22775272 9379270
L22770902 9288291
" />
<path d="M22770902 9288291
L22765504 9219785
" />
<path d="M22765504 9219785
L22758825 9169032
" />
<path d="M22758825 9169032
L22750610 9131313
" />
<path d="M22750610 9131313
L22740607 9101906
" />
<path d="M22740607 9101906
L22728562 9076090
" />
<path d="M22728562 9076090
L22722167 9063938
" />
<path d="M22722167 9063938
L22608343 8898568
" />
<path d="M22608343 8898568
L22469314 8772243
" />
<path d="M22469314 8772243
L22311863 8684786
" />
<path d="M22311863 8684786
L22142772 8636021
" />
<path d="M22142772 8636021
L21968823 8625770
" />
<path d="M21968823 8625770
L21796796 8653856
" />
<path d="M21796796 8653856
L21633475 8720103
" />
<path d="M21633475 8720103
L21485642 8824333
" />
<path d="M21485642 8824333
L21360077 8966370
" />
<path d="M21360077 8966370
L21282789 9101490
" />
<path d="M21282789 9101490
L21269955 9130956
" />
<path d="M21269955 9130956
L21259241 9162094
" />
<path d="M21259241 9162094
L21250395 9199714
" />
<path d="M21250395 9199714
L21243164 9248621
" />
<path d="M21243164 9248621
L21237294 9313625
" />
<path d="M21237294 9313625
L21232533 9399532
" />
<path d="M21232533 9399532
L21228628 9511150
" />
<path d="M21228628 9511150
L21225325 9653287
" />
<path d="M21225325 9653287
L21222372 9830750
" />
<path d="M21222372 9830750
L21219516 10048347
" />
<path d="M21219516 10048347
L21216503 10310886
" />
<path d="M21216503 10310886
L21215800 10374600
" />
<path d="M21215800 10374600
L21212285 10664350
" />
<path d="M21212285 10664350
L21208557 10906976
" />
<path d="M21208557 10906976
L21204477 11106151
" />
<path d="M21204477 11106151
L21199907 11265551
" />
<path d="M21199907 11265551
L21194706 11388850
" />
<path d="M21194706 11388850
L21188736 11479723
" />
<path d="M21188736 11479723
L21181857 11541844
" />
<path d="M21181857 11541844
L21173929 11578889
" />
<path d="M21173929 11578889
L21169729 11588809
" />
<path d="M21169729 11588809
L21095274 11671839
" />
<path d="M21095274 11671839
L20992135 11724881
" />
<path d="M20992135 11724881
L20874389 11745373
" />
<path d="M20874389 11745373
L20756111 11730755
" />
<path d="M20756111 11730755
L20656310 11682190
" />
<path d="M20656310 11682190
L20594975 11631242
" />
<path d="M20594975 11631242
L20550184 11584035
" />
<path d="M20550184 11584035
L20543425 11574240
" />
<path d="M20543425 11574240
L20536599 11537572
" />
<path d="M20536599 11537572
L20530072 11452626
" />
<path d="M20530072 11452626
L20523927 11321920
" />
<path d="M20523927 11321920
L20518245 11147976
" />
<path d="M20518245 11147976
L20513108 10933314
" />
<path d="M20513108 10933314
L20508596 10680454
" />
<path d="M20508596 10680454
L20504793 10391916
" />
<path d="M20504793 10391916
L20504600 10374600
" />
<path d="M20504600 10374600
L20501565 10102352
" />
<path d="M20501565 10102352
L20498800 9876045
" />
<path d="M20498800 9876045
L20496028 9690826
" />
<path d="M20496028 9690826
L20492975 9541837
" />
<path d="M20492975 9541837
L20489365 9424224
" />
<path d="M20489365 9424224
L20484922 9333132
" />
<path d="M20484922 9333132
L20479371 9263705
" />
<path d="M20479371 9263705
L20472436 9211088
" />
<path d="M20472436 9211088
L20463841 9170425
" />
<path d="M20463841 9170425
L20453311 9136862
" />
<path d="M20453311 9136862
L20440571 9105543
" />
<path d="M20440571 9105543
L20431403 9085039
" />
<path d="M20431403 9085039
L20357086 8962936
" />
<path d="M20357086 8962936
L20251768 8844371
" />
<path d="M20251768 8844371
L20130174 8743130
" />
<path d="M20130174 8743130
L20007033 8672995
" />
<path d="M20007033 8672995
L19980278 8662794
" />
<path d="M19980278 8662794
L19932713 8649605
" />
<path d="M19932713 8649605
L19872632 8639468
" />
<path d="M19872632 8639468
L19793344 8632025
" />
<path d="M19793344 8632025
L19688159 8626919
" />
<path d="M19688159 8626919
L19550386 8623790
" />
<path d="M19550386 8623790
L19373335 8622283
" />
<path d="M19373335 8622283
L19217648 8621999
" />
<path d="M19217648 8621999
L18993994 8622764
" />
</g>
<g style="fill:#000000; fill-opacity:1.0; 
stroke:#000000; stroke-width:1.000000; stroke-opacity:1; 
stroke-linecap:round; stroke-linejoin:round;">
<circle cx="18993994.000000" cy="8622764.000000" r="5000.000000" /> 
</g>
<g style="fill:#000000; fill-opacity:1.0; 
stroke:#000000; stroke-width:10000.000000; stroke-opacity:1; 
stroke-linecap:round; stroke-linejoin:round;">
<path style="fill:#000000; fill-opacity:1.0; 
stroke:#000000; stroke-width:10000.000000; stroke-opacity:1; 
stroke-linecap:round; stroke-linejoin:round;fill-rule:evenodd;"
d="M 19373335.000000,8622283.000000
19550386.000000,8623790.000000
19688159.000000,8626919.000000
19793344.000000,8632025.000000
19872632.000000,8639468.000000
19932713.000000,8649605.000000
19980278.000000,8662794.000000
20007033.000000,8672995.000000
20130174.000000,8743130.000000
20251768.000000,8844371.000000
20357086.000000,8962936.000000
20431403.000000,9085039.000000
20440571.000000,9105543.000000
20453311.000000,9136862.000000
20463841.000000,9170425.000000
20472436.000000,9211088.000000
20479371.000000,9263705.000000
20484922.000000,9333132.000000
20489365.000000,9424224.000000
20492975.000000,9541837.000000
20496028.000000,9690826.000000
20498800.000000,9876045.000000
20501565.000000,10102352.000000
20504600.000000,10374600.000000
20504793.000000,10391916.000000
20508596.000000,10680454.000000
20513108.000000,10933314.000000
20518245.000000,11147976.000000
20523927.000000,11321920.000000
20530072.000000,11452626.000000
20536599.000000,11537572.000000
20543425.000000,11574240.000000
20550184.000000,11584035.000000
20594975.000000,11631242.000000
20656310.000000,11682190.000000
20756111.000000,11730755.000000
20874389.000000,11745373.000000
20992135.000000,11724881.000000
21095274.000000,11671839.000000
21169729.000000,11588809.000000
21173929.000000,11578889.000000
21181857.000000,11541844.000000
21188736.000000,11479723.000000
21194706.000000,11388850.000000
21199907.000000,11265551.000000
21204477.000000,11106151.000000
21208557.000000,10906976.000000
21212285.000000,10664350.000000
21215800.000000,10374600.000000
21216503.000000,10310886.000000
21219516.000000,10048347.000000
21222372.000000,9830750.000000
21225325.000000,9653287.000000
21228628.000000,9511150.000000
21232533.000000,9399532.000000
21237294.000000,9313625.000000
21243164.000000,9248621.000000
21250395.000000,9199714.000000
21259241.000000,9162094.000000
21269955.000000,9130956.000000
21282789.000000,9101490.000000
21360077.000000,8966370.000000
21485642.000000,8824333.000000
21633475.000000,8720103.000000
21796796.000000,8653856.000000
21968823.000000,8625770.000000
22142772.000000,8636021.000000
22311863.000000,8684786.000000
22469314.000000,8772243.000000
22608343.000000,8898568.000000
22722167.000000,9063938.000000
22728562.000000,9076090.000000
22740607.000000,9101906.000000
22750610.000000,9131313.000000
22758825.000000,9169032.000000
22765504.000000,9219785.000000
22770902.000000,9288291.000000
22775272.000000,9379270.000000
22778869.000000,9497444.000000
22781947.000000,9647534.000000
22784759.000000,9834259.000000
22787559.000000,10062341.000000
22790600.000000,10336500.000000
22791747.000000,10437727.000000
22795761.000000,10733080.000000
22800279.000000,10980091.000000
22805367.000000,11180637.000000
22811091.000000,11336594.000000
22817514.000000,11449839.000000
22824701.000000,11522248.000000
22832718.000000,11555700.000000
22909500.000000,11654329.000000
23009456.000000,11714830.000000
23141413.000000,11740935.000000
23195811.000000,11744074.000000
23265370.000000,11740981.000000
23316671.000000,11722247.000000
23370238.000000,11682641.000000
23384660.000000,11670093.000000
23443615.000000,11610940.000000
23483323.000000,11559310.000000
23490809.000000,11533655.000000
23498074.000000,11476661.000000
23504474.000000,11386577.000000
23510114.000000,11260451.000000
23515101.000000,11095332.000000
23519541.000000,10888268.000000
23523538.000000,10636308.000000
23527200.000000,10336500.000000
23539900.000000,9168100.000000
23618610.000000,9028400.000000
23681757.000000,8932664.000000
23818206.000000,8793907.000000
23982113.000000,8694418.000000
24166661.000000,8637853.000000
24365037.000000,8627869.000000
24435647.000000,8635991.000000
24623585.000000,8690431.000000
24789544.000000,8788418.000000
24928246.000000,8926228.000000
25034414.000000,9100137.000000
25038128.000000,9108253.000000
25050490.000000,9137817.000000
25060776.000000,9170086.000000
25069242.000000,9209869.000000
25076142.000000,9261977.000000
25081730.000000,9331218.000000
25086263.000000,9422401.000000
25089994.000000,9540336.000000
25093179.000000,9689832.000000
25096071.000000,9875699.000000
25098927.000000,10102744.000000
25102000.000000,10375778.000000
25103606.000000,10519160.000000
25106677.000000,10770384.000000
25109735.000000,10977651.000000
25112994.000000,11145523.000000
25116668.000000,11278562.000000
25120970.000000,11381331.000000
25126115.000000,11458392.000000
25132315.000000,11514306.000000
25139785.000000,11553638.000000
25148739.000000,11580948.000000
25159390.000000,11600800.000000
25193305.000000,11642932.000000
25297527.000000,11713697.000000
25442193.000000,11754310.000000
25462825.000000,11758118.000000
25563095.000000,11798849.000000
25630560.000000,11864903.000000
25661161.000000,11946638.000000
25650837.000000,12034411.000000
25595530.000000,12118579.000000
25570374.000000,12142103.000000
25527656.000000,12168006.000000
25472350.000000,12176794.000000
25385613.000000,12173386.000000
25324135.000000,12166072.000000
25147398.000000,12112747.000000
24985395.000000,12016771.000000
24846709.000000,11884161.000000
24739925.000000,11720931.000000
24732638.000000,11706079.000000
24720443.000000,11678259.000000
24710327.000000,11647224.000000
24702033.000000,11608214.000000
24695301.000000,11556473.000000
24689873.000000,11487241.000000
24685490.000000,11395761.000000
24681894.000000,11277275.000000
24678825.000000,11127023.000000
24676026.000000,10940249.000000
24673237.000000,10712194.000000
24670200.000000,10438100.000000
24670162.000000,10434549.000000
24666779.000000,10149156.000000
24663280.000000,9910550.000000
24659511.000000,9714767.000000
24655316.000000,9557838.000000
24650540.000000,9435797.000000
24645030.000000,9344679.000000
24638629.000000,9280516.000000
24631184.000000,9239342.000000
24622538.000000,9217190.000000
24589434.000000,9174762.000000
24489336.000000,9097890.000000
24371062.000000,9059362.000000
24246139.000000,9059875.000000
24126090.000000,9100129.000000
24022441.000000,9180821.000000
24019760.000000,9183834.000000
24008217.000000,9199396.000000
23998580.000000,9220233.000000
23990605.000000,9250897.000000
23984051.000000,9295942.000000
23978672.000000,9359918.000000
23974226.000000,9447379.000000
23970470.000000,9562876.000000
23967160.000000,9710961.000000
23964053.000000,9896188.000000
23960906.000000,10123107.000000
23957475.000000,10396271.000000
23956889.000000,10443680.000000
23953340.000000,10713706.000000
23949864.000000,10938432.000000
23946243.000000,11122605.000000
23942258.000000,11270970.000000
23937689.000000,11388273.000000
23932317.000000,11479258.000000
23925923.000000,11548672.000000
23918288.000000,11601260.000000
23909192.000000,11641768.000000
23898417.000000,11674941.000000
23883717.000000,11710276.000000
23794955.000000,11854994.000000
23670786.000000,11986100.000000
23523528.000000,12089956.000000
23486824.000000,12109744.000000
23421145.000000,12139347.000000
23355993.000000,12156120.000000
23274276.000000,12163593.000000
23158900.000000,12165300.000000
23096807.000000,12164961.000000
23000254.000000,12160876.000000
22928872.000000,12149278.000000
22865526.000000,12126607.000000
22793079.000000,12089306.000000
22655928.000000,11992793.000000
22521462.000000,11846754.000000
22424117.000000,11676125.000000
22413606.000000,11649195.000000
22403324.000000,11615379.000000
22394774.000000,11573995.000000
22387715.000000,11520241.000000
22381907.000000,11449313.000000
22377109.000000,11356408.000000
22373080.000000,11236721.000000
22369578.000000,11085450.000000
22366364.000000,10897791.000000
22363196.000000,10668941.000000
22359834.000000,10394096.000000
22346100.000000,9232493.000000
22265297.000000,9151731.000000
22262816.000000,9149262.000000
22202472.000000,9099354.000000
22136690.000000,9072474.000000
22042879.000000,9059225.000000
22029405.000000,9058159.000000
21941387.000000,9056553.000000
21877689.000000,9070975.000000
21815745.000000,9106081.000000
21796181.000000,9119326.000000
21763898.000000,9141894.000000
21737150.000000,9165159.000000
21715362.000000,9193676.000000
21697958.000000,9231999.000000
21684365.000000,9284682.000000
21674007.000000,9356280.000000
21666309.000000,9451345.000000
21660696.000000,9574434.000000
21656594.000000,9730099.000000
21653427.000000,9922896.000000
21650621.000000,10157378.000000
21647600.000000,10438100.000000
21634900.000000,11606500.000000
21567099.000000,11734963.000000
21480497.000000,11867577.000000
21345396.000000,12006795.000000
21190400.000000,12108923.000000
21112219.000000,12138489.000000
20965262.000000,12165160.000000
20805209.000000,12168092.000000
20651386.000000,12147445.000000
20523113.000000,12103379.000000
20422035.000000,12042109.000000
20270735.000000,11905097.000000
20152820.000000,11733500.000000
20085500.000000,11606500.000000
20072800.000000,10438100.000000
20072497.000000,10410582.000000
20068687.000000,10121052.000000
20064181.000000,9867493.000000
20059057.000000,9652376.000000
20053396.000000,9478173.000000
20047276.000000,9347355.000000
20040776.000000,9262393.000000
20033976.000000,9225759.000000
20027217.000000,9215964.000000
19982426.000000,9168757.000000
19921091.000000,9117809.000000
19834331.000000,9053800.000000
19223316.000000,9053894.000000
19079892.000000,9054051.000000
18918245.000000,9054954.000000
18795707.000000,9057097.000000
18705462.000000,9060966.000000
18640697.000000,9067051.000000
18594597.000000,9075840.000000
18560346.000000,9087821.000000
18531131.000000,9103482.000000
18450510.000000,9166480.000000
18386654.000000,9266334.000000
18364740.000000,9392909.000000
18385257.000000,9525631.000000
18448082.000000,9636842.000000
18548404.000000,9717677.000000
18578318.000000,9731815.000000
18624229.000000,9746038.000000
18684997.000000,9755614.000000
18769604.000000,9761397.000000
18887032.000000,9764241.000000
19046264.000000,9765000.000000
19074888.000000,9765054.000000
19238833.000000,9767646.000000
19376843.000000,9773768.000000
19480644.000000,9782924.000000
19541960.000000,9794622.000000
19673715.000000,9859496.000000
19785407.000000,9959832.000000
19861606.000000,10082603.000000
19901182.000000,10219487.000000
19903005.000000,10362166.000000
19865945.000000,10502319.000000
19788870.000000,10631628.000000
19670651.000000,10741772.000000
19560601.000000,10819100.000000
19071264.000000,10831800.000000
18943967.000000,10835230.000000
18800187.000000,10840315.000000
18693644.000000,10847190.000000
18616376.000000,10857588.000000
18560417.000000,10873244.000000
18517803.000000,10895892.000000
18480569.000000,10927266.000000
18440753.000000,10969101.000000
18417812.000000,10998668.000000
18387490.000000,11062247.000000
18366326.000000,11149427.000000
18353363.000000,11266937.000000
18347645.000000,11421508.000000
18348215.000000,11619869.000000
18349545.000000,11726516.000000
18349520.000000,11855164.000000
18346374.000000,11947008.000000
18339440.000000,12010524.000000
18328054.000000,12054191.000000
18311547.000000,12086488.000000
18292268.000000,12111315.000000
18216549.000000,12162317.000000
18127874.000000,12175328.000000
18041765.000000,12150311.000000
17973742.000000,12087234.000000
17968447.000000,12078562.000000
17954869.000000,12046536.000000
17945252.000000,12001046.000000
17939089.000000,11934630.000000
17935875.000000,11839823.000000
17935101.000000,11709164.000000
17936261.000000,11535187.000000
17938112.000000,11398977.000000
17943484.000000,11223356.000000
17953610.000000,11085132.000000
17970447.000000,10976157.000000
17995950.000000,10888280.000000
18032078.000000,10813354.000000
18080785.000000,10743228.000000
18144028.000000,10669754.000000
18162137.000000,10650165.000000
18240537.000000,10572852.000000
18317645.000000,10514166.000000
18402135.000000,10471383.000000
18502680.000000,10441776.000000
18627954.000000,10422621.000000
18786630.000000,10411192.000000
18987381.000000,10404763.000000
19107644.000000,10402004.000000
19238354.000000,10398003.000000
19330835.000000,10393031.000000
19392435.000000,10386171.000000
19430498.000000,10376508.000000
19452369.000000,10363123.000000
19465394.000000,10345101.000000
19466840.000000,10342368.000000
19481040.000000,10305720.000000
19476711.000000,10277620.000000
19448475.000000,10256580.000000
19390954.000000,10241111.000000
19298771.000000,10229726.000000
19166545.000000,10220935.000000
18988899.000000,10213252.000000
18932500.000000,10211075.000000
18779693.000000,10204227.000000
18665383.000000,10196717.000000
18580177.000000,10187281.000000
18514681.000000,10174659.000000
18459500.000000,10157586.000000
18405242.000000,10134800.000000
18269261.000000,10055235.000000
18135112.000000,9930756.000000
18034776.000000,9782273.000000
17969387.000000,9617347.000000
17940083.000000,9443540.000000
17947997.000000,9268413.000000
17994266.000000,9099527.000000
18080025.000000,8944443.000000
18206409.000000,8810724.000000
18258944.000000,8769044.000000
18324262.000000,8723847.000000
18391072.000000,8688941.000000
18466417.000000,8663011.000000
18557340.000000,8644742.000000
18670882.000000,8632821.000000
18814086.000000,8625933.000000
18993994.000000,8622764.000000
19217648.000000,8621999.000000
Z" /> 
<g >
</g>
<g style="fill:#000000; fill-opacity:1.0; 
stroke:#000000; stroke-width:1.000000; stroke-opacity:1; 
stroke-linecap:round; stroke-linejoin:round;">
<circle cx="12400000.000000" cy="33200000.000000" r="800000.000000" /> 
</g>
<g style="fill:#000000; fill-opacity:1.0; 
stroke:#000000; stroke-width:21200.000000; stroke-opacity:1; 
stroke-linecap:round; stroke-linejoin:round;">
</g>
<g style="fill:#000000; fill-opacity:1.0; 
stroke:#000000; stroke-width:1.000000; stroke-opacity:1; 
stroke-linecap:round; stroke-linejoin:round;">
<circle cx="12400000.000000" cy="28200000.000000" r="800000.000000" /> 
</g>
<g style="fill:#000000; fill-opacity:1.0; 
stroke:#000000; stroke-width:21200.000000; stroke-opacity:1; 
stroke-linecap:round; stroke-linejoin:round;">
</g>
<g >
</g>
<g style="fill:#000000; fill-opacity:1.0; 
stroke:#000000; stroke-width:21200.000000; stroke-opacity:1; 
stroke-linecap:round; stroke-linejoin:round;">
</g>
<g style="fill:#000000; fill-opacity:1.0; 
stroke:#000000; stroke-width:1.000000; stroke-opacity:1; 
stroke-linecap:round; stroke-linejoin:round;">
<path style="fill:#000000; fill-opacity:1.0; 
stroke:#000000; stroke-width:1.000000; stroke-opacity:1; 
stroke-linecap:round; stroke-linejoin:round;fill-rule:evenodd;"
d="M 18000001.000000,22799999.000000
18000001.000000,21200001.000000
19599999.000000,21200001.000000
19599999.000000,22799999.000000
Z" /> 
<circle cx="22300000.000000" cy="22000000.000000" r="800000.000000" /> 
</g>
<g style="fill:#000000; fill-opacity:1.0; 
stroke:#000000; stroke-width:21200.000000; stroke-opacity:1; 
stroke-linecap:round; stroke-linejoin:round;">
</g>
<g >
</g>
<g style="fill:#000000; fill-opacity:1.0; 
stroke:#000000; stroke-width:21200.000000; stroke-opacity:1; 
stroke-linecap:round; stroke-linejoin:round;">
</g>
<g style="fill:#000000; fill-opacity:1.0; 
stroke:#000000; stroke-width:1.000000; stroke-opacity:1; 
stroke-linecap:round; stroke-linejoin:round;">
<path style="fill:#000000; fill-opacity:1.0; 
stroke:#000000; stroke-width:1.000000; stroke-opacity:1; 
stroke-linecap:round; stroke-linejoin:round;fill-rule:evenodd;"
d="M 33599999.000000,31399999.000000
32000001.000000,31399999.000000
32000001.000000,29800001.000000
33599999.000000,29800001.000000
Z" /> 
<circle cx="32800000.000000" cy="27100000.000000" r="800000.000000" /> 
</g>
<g style="fill:#000000; fill-opacity:1.0; 
stroke:#000000; stroke-width:21200.000000; stroke-opacity:1; 
stroke-linecap:round; stroke-linejoin:round;">
</g>
<g >
</g>
<g style="fill:#000000; fill-opacity:1.0; 
stroke:#000000; stroke-width:21200.000000; stroke-opacity:1; 
stroke-linecap:round; stroke-linejoin:round;">
</g>
<g style="fill:#000000; fill-opacity:1.0; 
stroke:#000000; stroke-width:1.000000; stroke-opacity:1; 
stroke-linecap:round; stroke-linejoin:round;">
<circle cx="37000000.000000" cy="39600000.000000" r="800000.000000" /> 
</g>
<g style="fill:#000000; fill-opacity:1.0; 
stroke:#000000; stroke-width:21200.000000; stroke-opacity:1; 
stroke-linecap:round; stroke-linejoin:round;">
</g>
<g style="fill:#000000; fill-opacity:1.0; 
stroke:#000000; stroke-width:1.000000; stroke-opacity:1; 
stroke-linecap:round; stroke-linejoin:round;">
<circle cx="37000000.000000" cy="44600000.000000" r="800000.000000" /> 
</g>
<g style="fill:#000000; fill-opacity:1.0; 
stroke:#000000; stroke-width:21200.000000; stroke-opacity:1; 
stroke-linecap:round; stroke-linejoin:round;">
</g>
<g >
</g>
<g style="fill:#000000; fill-opacity:1.0; 
stroke:#000000; stroke-width:21200.000000; stroke-opacity:1; 
stroke-linecap:round; stroke-linejoin:round;">
</g>
<g style="fill:#000000; fill-opacity:1.0; 
stroke:#000000; stroke-width:1.000000; stroke-opacity:1; 
stroke-linecap:round; stroke-linejoin:round;">
<circle cx="35700000.000000" cy="15400000.000000" r="800000.000000" /> 
</g>
<g style="fill:#000000; fill-opacity:1.0; 
stroke:#000000; stroke-width:21200.000000; stroke-opacity:1; 
stroke-linecap:round; stroke-linejoin:round;">
</g>
<g style="fill:#000000; fill-opacity:1.0; 
stroke:#000000; stroke-width:1.000000; stroke-opacity:1; 
stroke-linecap:round; stroke-linejoin:round;">
<circle cx="30700000.000000" cy="15400000.000000" r="800000.000000" /> 
</g>
<g style="fill:#000000; fill-opacity:1.0; 
stroke:#000000; stroke-width:21200.000000; stroke-opacity:1; 
stroke-linecap:round; stroke-linejoin:round;">
</g>
<g >
</g>
<g style="fill:#000000; fill-opacity:1.0; 
stroke:#000000; stroke-width:21200.000000; stroke-opacity:1; 
stroke-linecap:round; stroke-linejoin:round;">
</g>
<g style="fill:#000000; fill-opacity:1.0; 
stroke:#000000; stroke-width:1.000000; stroke-opacity:1; 
stroke-linecap:round; stroke-linejoin:round;">
<circle cx="46000000.000000" cy="56400000.000000" r="800000.000000" /> 
</g>
<g style="fill:#000000; fill-opacity:1.0; 
stroke:#000000; stroke-width:21200.000000; stroke-opacity:1; 
stroke-linecap:round; stroke-linejoin:round;">
</g>
<g style="fill:#000000; fill-opacity:1.0; 
stroke:#000000; stroke-width:1.000000; stroke-opacity:1; 
stroke-linecap:round; stroke-linejoin:round;">
<circle cx="51000000.000000" cy="56400000.000000" r="800000.000000" /> 
</g>
<g style="fill:#000000; fill-opacity:1.0; 
stroke:#000000; stroke-width:21200.000000; stroke-opacity:1; 
stroke-linecap:round; stroke-linejoin:round;">
</g>
<g >
</g>
<g style="fill:#000000; fill-opacity:1.0; 
stroke:#000000; stroke-width:21200.000000; stroke-opacity:1; 
stroke-linecap:round; stroke-linejoin:round;">
</g>
<g style="fill:#000000; fill-opacity:1.0; 
stroke:#000000; stroke-width:1.000000; stroke-opacity:1; 
stroke-linecap:round; stroke-linejoin:round;">
<path style="fill:#000000; fill-opacity:1.0; 
stroke:#000000; stroke-width:1.000000; stroke-opacity:1; 
stroke-linecap:round; stroke-linejoin:round;fill-rule:evenodd;"
d="M 14500001.000000,29299999.000000
14500001.000000,27500001.000000
16299999.000000,27500001.000000
16299999.000000,29299999.000000
Z" /> 
<circle cx="25560000.000000" cy="28400000.000000" r="900000.000000" /> 
</g>
<g >
</g>
<g style="fill:#000000; fill-opacity:1.0; 
stroke:#000000; stroke-width:1.000000; stroke-opacity:1; 
stroke-linecap:round; stroke-linejoin:round;">
<path style="fill:#000000; fill-opacity:1.0; 
stroke:#000000; stroke-width:1.000000; stroke-opacity:1; 
stroke-linecap:round; stroke-linejoin:round;fill-rule:evenodd;"
d="M 51099999.000000,39599999.000000
48900001.000000,39599999.000000
48900001.000000,37400001.000000
51099999.000000,37400001.000000
Z" /> 
<circle cx="50000000.000000" cy="28340000.000000" r="1100000.000000" /> 
</g>
<g >
</g>
<g style="fill:#000000; fill-opacity:1.0; 
stroke:#000000; stroke-width:1.000000; stroke-opacity:1; 
stroke-linecap:round; stroke-linejoin:round;">
<path style="fill:#000000; fill-opacity:1.0; 
stroke:#000000; stroke-width:1.000000; stroke-opacity:1; 
stroke-linecap:round; stroke-linejoin:round;fill-rule:evenodd;"
d="M 45299999.000000,46299999.000000
43100001.000000,46299999.000000
43100001.000000,44100001.000000
45299999.000000,44100001.000000
Z" /> 
<circle cx="44200000.000000" cy="35040000.000000" r="1100000.000000" /> 
</g>
<g >
</g>
<g style="fill:#000000; fill-opacity:1.0; 
stroke:#000000; stroke-width:1.000000; stroke-opacity:1; 
stroke-linecap:round; stroke-linejoin:round;">
<path style="fill:#000000; fill-opacity:1.0; 
stroke:#000000; stroke-width:1.000000; stroke-opacity:1; 
stroke-linecap:round; stroke-linejoin:round;fill-rule:evenodd;"
d="M 9950001.000000,21049999.000000
9950001.000000,19350001.000000
11649999.000000,19350001.000000
11649999.000000,21049999.000000
Z" /> 
<circle cx="10800000.000000" cy="22740000.000000" r="850000.000000" /> 
</g>
<g >
</g>
<g style="fill:#000000; fill-opacity:1.0; 
stroke:#000000; stroke-width:1.000000; stroke-opacity:1; 
stroke-linecap:round; stroke-linejoin:round;">
<path style="fill:#000000; fill-opacity:1.0; 
stroke:#000000; stroke-width:1.000000; stroke-opacity:1; 
stroke-linecap:round; stroke-linejoin:round;fill-rule:evenodd;"
d="M 9700001.000000,56799999.000000
9700001.000000,54200001.000000
12299999.000000,54200001.000000
12299999.000000,56799999.000000
Z" /> 
<circle cx="16080000.000000" cy="55500000.000000" r="1300000.000000" /> 
</g>
<g style="fill:#000000; fill-opacity:1.0; 
stroke:#000000; stroke-width:21200.000000; stroke-opacity:1; 
stroke-linecap:round; stroke-linejoin:round;">
</g>
<g style="fill:#000000; fill-opacity:1.0; 
stroke:#000000; stroke-width:1.000000; stroke-opacity:1; 
stroke-linecap:round; stroke-linejoin:round;">
<circle cx="21160000.000000" cy="55500000.000000" r="1300000.000000" /> 
</g>
<g style="fill:#000000; fill-opacity:1.0; 
stroke:#000000; stroke-width:21200.000000; stroke-opacity:1; 
stroke-linecap:round; stroke-linejoin:round;">
</g>
<g >
</g>
<g style="fill:#000000; fill-opacity:1.0; 
stroke:#000000; stroke-width:21200.000000; stroke-opacity:1; 
stroke-linecap:round; stroke-linejoin:round;">
</g>
<g style="fill:#000000; fill-opacity:1.0; 
stroke:#000000; stroke-width:1.000000; stroke-opacity:1; 
stroke-linecap:round; stroke-linejoin:round;">
<path style="fill:#000000; fill-opacity:1.0; 
stroke:#000000; stroke-width:1.000000; stroke-opacity:1; 
stroke-linecap:round; stroke-linejoin:round;fill-rule:evenodd;"
d="M 82299999.000000,29299999.000000
79700001.000000,29299999.000000
79700001.000000,26700001.000000
82299999.000000,26700001.000000
Z" /> 
<circle cx="81000000.000000" cy="22920000.000000" r="1300000.000000" /> 
</g>
<g style="fill:#000000; fill-opacity:1.0; 
stroke:#000000; stroke-width:21200.000000; stroke-opacity:1; 
stroke-linecap:round; stroke-linejoin:round;">
</g>
<g >
</g>
<g style="fill:#000000; fill-opacity:1.0; 
stroke:#000000; stroke-width:21200.000000; stroke-opacity:1; 
stroke-linecap:round; stroke-linejoin:round;">
</g>
<g style="fill:#000000; fill-opacity:1.0; 
stroke:#000000; stroke-width:1.000000; stroke-opacity:1; 
stroke-linecap:round; stroke-linejoin:round;">
<path style="fill:#000000; fill-opacity:1.0; 
stroke:#000000; stroke-width:1.000000; stroke-opacity:1; 
stroke-linecap:round; stroke-linejoin:round;fill-rule:evenodd;"
d="M 15300001.000000,34850001.000000
17099999.000000,34850001.000000
17099999.000000,35949999.000000
15300001.000000,35949999.000000
Z" /> 
<path style="fill:#000000; fill-opacity:1.0; 
stroke:#000000; stroke-width:1.000000; stroke-opacity:1; 
stroke-linecap:round; stroke-linejoin:round;fill-rule:evenodd;"
d="M 18895000.000000,36120000.000000
19000238.000000,36140933.000000
19089454.000000,36200546.000000
19149067.000000,36289762.000000
19170000.000000,36395000.000000
19170000.000000,36945000.000000
19149067.000000,37050238.000000
19089454.000000,37139454.000000
19000238.000000,37199067.000000
18895000.000000,37220000.000000
17645000.000000,37220000.000000
17539762.000000,37199067.000000
17450546.000000,37139454.000000
17390933.000000,37050238.000000
17370000.000000,36945000.000000
17370000.000000,36395000.000000
17390933.000000,36289762.000000
17450546.000000,36200546.000000
17539762.000000,36140933.000000
17645000.000000,36120000.000000
Z" /> 
<path style="fill:#000000; fill-opacity:1.0; 
stroke:#000000; stroke-width:1.000000; stroke-opacity:1; 
stroke-linecap:round; stroke-linejoin:round;fill-rule:evenodd;"
d="M 16825000.000000,37390000.000000
16930238.000000,37410933.000000
17019454.000000,37470546.000000
17079067.000000,37559762.000000
17100000.000000,37665000.000000
17100000.000000,38215000.000000
17079067.000000,38320238.000000
17019454.000000,38409454.000000
16930238.000000,38469067.000000
16825000.000000,38490000.000000
15575000.000000,38490000.000000
15469762.000000,38469067.000000
15380546.000000,38409454.000000
15320933.000000,38320238.000000
15300000.000000,38215000.000000
15300000.000000,37665000.000000
15320933.000000,37559762.000000
15380546.000000,37470546.000000
15469762.000000,37410933.000000
15575000.000000,37390000.000000
Z" /> 
</g>
<g >
</g>
<g style="fill:#000000; fill-opacity:1.0; 
stroke:#000000; stroke-width:1.000000; stroke-opacity:1; 
stroke-linecap:round; stroke-linejoin:round;">
<path style="fill:#000000; fill-opacity:1.0; 
stroke:#000000; stroke-width:1.000000; stroke-opacity:1; 
stroke-linecap:round; stroke-linejoin:round;fill-rule:evenodd;"
d="M 34099999.000000,44949999.000000
32300001.000000,44949999.000000
32300001.000000,43850001.000000
34099999.000000,43850001.000000
Z" /> 
<path style="fill:#000000; fill-opacity:1.0; 
stroke:#000000; stroke-width:1.000000; stroke-opacity:1; 
stroke-linecap:round; stroke-linejoin:round;fill-rule:evenodd;"
d="M 30505000.000000,43680000.000000
30399762.000000,43659067.000000
30310546.000000,43599454.000000
30250933.000000,43510238.000000
30230000.000000,43405000.000000
30230000.000000,42855000.000000
30250933.000000,42749762.000000
30310546.000000,42660546.000000
30399762.000000,42600933.000000
30505000.000000,42580000.000000
31755000.000000,42580000.000000
31860238.000000,42600933.000000
31949454.000000,42660546.000000
32009067.000000,42749762.000000
32030000.000000,42855000.000000
32030000.000000,43405000.000000
32009067.000000,43510238.000000
31949454.000000,43599454.000000
31860238.000000,43659067.000000
31755000.000000,43680000.000000
Z" /> 
<path style="fill:#000000; fill-opacity:1.0; 
stroke:#000000; stroke-width:1.000000; stroke-opacity:1; 
stroke-linecap:round; stroke-linejoin:round;fill-rule:evenodd;"
d="M 32575000.000000,42410000.000000
32469762.000000,42389067.000000
32380546.000000,42329454.000000
32320933.000000,42240238.000000
32300000.000000,42135000.000000
32300000.000000,41585000.000000
32320933.000000,41479762.000000
32380546.000000,41390546.000000
32469762.000000,41330933.000000
32575000.000000,41310000.000000
33825000.000000,41310000.000000
33930238.000000,41330933.000000
34019454.000000,41390546.000000
34079067.000000,41479762.000000
34100000.000000,41585000.000000
34100000.000000,42135000.000000
34079067.000000,42240238.000000
34019454.000000,42329454.000000
33930238.000000,42389067.000000
33825000.000000,42410000.000000
Z" /> 
</g>
<g >
</g>
<g style="fill:#000000; fill-opacity:1.0; 
stroke:#000000; stroke-width:1.000000; stroke-opacity:1; 
stroke-linecap:round; stroke-linejoin:round;">
<path style="fill:#000000; fill-opacity:1.0; 
stroke:#000000; stroke-width:1.000000; stroke-opacity:1; 
stroke-linecap:round; stroke-linejoin:round;fill-rule:evenodd;"
d="M 46999999.000000,31752499.000000
45000001.000000,31752499.000000
45000001.000000,29847501.000000
46999999.000000,29847501.000000
Z" /> 
</g>
<g style="fill:#000000; fill-opacity:1.0; 
stroke:#000000; stroke-width:1905000.000000; stroke-opacity:1; 
stroke-linecap:round; stroke-linejoin:round;">
</g>
<g style="fill:#000000; fill-opacity:0.0; 
stroke:#000000; stroke-width:1905000.000000; stroke-opacity:1; 
stroke-linecap:round; stroke-linejoin:round;">
<path d="M45952500 28260000
L46047500 28260000
" />
<path d="M45952500 25720000
L46047500 25720000
" />
</g>
<g >
</g>
<g style="fill:#000000; fill-opacity:0.0; 
stroke:#000000; stroke-width:1905000.000000; stroke-opacity:1; 
stroke-linecap:round; stroke-linejoin:round;">
</g>
<g style="fill:#000000; fill-opacity:0.0; 
stroke:#000000; stroke-width:1.000000; stroke-opacity:1; 
stroke-linecap:round; stroke-linejoin:round;">
</g>
<g style="fill:#000000; fill-opacity:1.0; 
stroke:#000000; stroke-width:1.000000; stroke-opacity:1; 
stroke-linecap:round; stroke-linejoin:round;">
<path style="fill:#000000; fill-opacity:1.0; 
stroke:#000000; stroke-width:1.000000; stroke-opacity:1; 
stroke-linecap:round; stroke-linejoin:round;fill-rule:evenodd;"
d="M 56399999.000000,19952499.000000
54400001.000000,19952499.000000
54400001.000000,18047501.000000
56399999.000000,18047501.000000
Z" /> 
</g>
<g style="fill:#000000; fill-opacity:1.0; 
stroke:#000000; stroke-width:1905000.000000; stroke-opacity:1; 
stroke-linecap:round; stroke-linejoin:round;">
</g>
<g style="fill:#000000; fill-opacity:0.0; 
stroke:#000000; stroke-width:1905000.000000; stroke-opacity:1; 
stroke-linecap:round; stroke-linejoin:round;">
<path d="M55352500 16460000
L55447500 16460000
" />
<path d="M55352500 13920000
L55447500 13920000
" />
</g>
<g >
</g>
<g style="fill:#000000; fill-opacity:0.0; 
stroke:#000000; stroke-width:1905000.000000; stroke-opacity:1; 
stroke-linecap:round; stroke-linejoin:round;">
</g>
<g style="fill:#000000; fill-opacity:0.0; 
stroke:#000000; stroke-width:1.000000; stroke-opacity:1; 
stroke-linecap:round; stroke-linejoin:round;">
</g>
<g style="fill:#000000; fill-opacity:1.0; 
stroke:#000000; stroke-width:1.000000; stroke-opacity:1; 
stroke-linecap:round; stroke-linejoin:round;">
<path style="fill:#000000; fill-opacity:1.0; 
stroke:#000000; stroke-width:1.000000; stroke-opacity:1; 
stroke-linecap:round; stroke-linejoin:round;fill-rule:evenodd;"
d="M 56599999.000000,52152499.000000
54600001.000000,52152499.000000
54600001.000000,50247501.000000
56599999.000000,50247501.000000
Z" /> 
</g>
<g style="fill:#000000; fill-opacity:1.0; 
stroke:#000000; stroke-width:1905000.000000; stroke-opacity:1; 
stroke-linecap:round; stroke-linejoin:round;">
</g>
<g style="fill:#000000; fill-opacity:0.0; 
stroke:#000000; stroke-width:1905000.000000; stroke-opacity:1; 
stroke-linecap:round; stroke-linejoin:round;">
<path d="M55552500 48660000
L55647500 48660000
" />
<path d="M55552500 46120000
L55647500 46120000
" />
</g>
<g >
</g>
<g style="fill:#000000; fill-opacity:0.0; 
stroke:#000000; stroke-width:1905000.000000; stroke-opacity:1; 
stroke-linecap:round; stroke-linejoin:round;">
</g>
<g style="fill:#000000; fill-opacity:0.0; 
stroke:#000000; stroke-width:1.000000; stroke-opacity:1; 
stroke-linecap:round; stroke-linejoin:round;">
</g>
<g style="fill:#000000; fill-opacity:1.0; 
stroke:#000000; stroke-width:1.000000; stroke-opacity:1; 
stroke-linecap:round; stroke-linejoin:round;">
<path style="fill:#000000; fill-opacity:1.0; 
stroke:#000000; stroke-width:1.000000; stroke-opacity:1; 
stroke-linecap:round; stroke-linejoin:round;fill-rule:evenodd;"
d="M 67750001.000000,11249999.000000
67750001.000000,6750001.000000
70249999.000000,6750001.000000
70249999.000000,11249999.000000
Z" /> 
</g>
<g style="fill:#000000; fill-opacity:1.0; 
stroke:#000000; stroke-width:2500000.000000; stroke-opacity:1; 
stroke-linecap:round; stroke-linejoin:round;">
</g>
<g style="fill:#000000; fill-opacity:0.0; 
stroke:#000000; stroke-width:2500000.000000; stroke-opacity:1; 
stroke-linecap:round; stroke-linejoin:round;">
<path d="M74450000 8000000
L74450000 10000000
" />
<path d="M79900000 8000000
L79900000 10000000
" />
</g>
<g >
</g>
<g style="fill:#000000; fill-opacity:0.0; 
stroke:#000000; stroke-width:2500000.000000; stroke-opacity:1; 
stroke-linecap:round; stroke-linejoin:round;">
</g>
<g style="fill:#000000; fill-opacity:0.0; 
stroke:#000000; stroke-width:1.000000; stroke-opacity:1; 
stroke-linecap:round; stroke-linejoin:round;">
</g>
<g style="fill:#000000; fill-opacity:1.0; 
stroke:#000000; stroke-width:1.000000; stroke-opacity:1; 
stroke-linecap:round; stroke-linejoin:round;">
<path style="fill:#000000; fill-opacity:1.0; 
stroke:#000000; stroke-width:1.000000; stroke-opacity:1; 
stroke-linecap:round; stroke-linejoin:round;fill-rule:evenodd;"
d="M 81249999.000000,54750001.000000
81249999.000000,59249999.000000
78750001.000000,59249999.000000
78750001.000000,54750001.000000
Z" /> 
</g>
<g style="fill:#000000; fill-opacity:1.0; 
stroke:#000000; stroke-width:2500000.000000; stroke-opacity:1; 
stroke-linecap:round; stroke-linejoin:round;">
</g>
<g style="fill:#000000; fill-opacity:0.0; 
stroke:#000000; stroke-width:2500000.000000; stroke-opacity:1; 
stroke-linecap:round; stroke-linejoin:round;">
<path d="M74550000 58000000
L74550000 56000000
" />
<path d="M69100000 58000000
L69100000 56000000
" />
</g>
<g >
</g>
<g style="fill:#000000; fill-opacity:0.0; 
stroke:#000000; stroke-width:2500000.000000; stroke-opacity:1; 
stroke-linecap:round; stroke-linejoin:round;">
</g>
<g style="fill:#000000; fill-opacity:1.0; 
stroke:#000000; stroke-width:1.000000; stroke-opacity:1; 
stroke-linecap:round; stroke-linejoin:round;">
<circle cx="17400000.000000" cy="40600000.000000" r="800000.000000" /> 
</g>
<g style="fill:#000000; fill-opacity:1.0; 
stroke:#000000; stroke-width:21200.000000; stroke-opacity:1; 
stroke-linecap:round; stroke-linejoin:round;">
</g>
<g style="fill:#000000; fill-opacity:1.0; 
stroke:#000000; stroke-width:1.000000; stroke-opacity:1; 
stroke-linecap:round; stroke-linejoin:round;">
<circle cx="17400000.000000" cy="48220000.000000" r="800000.000000" /> 
</g>
<g >
</g>
<g style="fill:#000000; fill-opacity:1.0; 
stroke:#000000; stroke-width:1.000000; stroke-opacity:1; 
stroke-linecap:round; stroke-linejoin:round;">
<circle cx="14500000.000000" cy="17000000.000000" r="800000.000000" /> 
</g>
<g style="fill:#000000; fill-opacity:1.0; 
stroke:#000000; stroke-width:21200.000000; stroke-opacity:1; 
stroke-linecap:round; stroke-linejoin:round;">
</g>
<g style="fill:#000000; fill-opacity:1.0; 
stroke:#000000; stroke-width:1.000000; stroke-opacity:1; 
stroke-linecap:round; stroke-linejoin:round;">
<circle cx="14500000.000000" cy="24620000.000000" r="800000.000000" /> 
</g>
<g >
</g>
<g style="fill:#000000; fill-opacity:1.0; 
stroke:#000000; stroke-width:1.000000; stroke-opacity:1; 
stroke-linecap:round; stroke-linejoin:round;">
<circle cx="16200000.000000" cy="32000000.000000" r="800000.000000" /> 
</g>
<g style="fill:#000000; fill-opacity:1.0; 
stroke:#000000; stroke-width:21200.000000; stroke-opacity:1; 
stroke-linecap:round; stroke-linejoin:round;">
</g>
<g style="fill:#000000; fill-opacity:1.0; 
stroke:#000000; stroke-width:1.000000; stroke-opacity:1; 
stroke-linecap:round; stroke-linejoin:round;">
<circle cx="23820000.000000" cy="32000000.000000" r="800000.000000" /> 
</g>
<g >
</g>
<g style="fill:#000000; fill-opacity:1.0; 
stroke:#000000; stroke-width:1.000000; stroke-opacity:1; 
stroke-linecap:round; stroke-linejoin:round;">
<circle cx="22200000.000000" cy="40800000.000000" r="800000.000000" /> 
</g>
<g style="fill:#000000; fill-opacity:1.0; 
stroke:#000000; stroke-width:21200.000000; stroke-opacity:1; 
stroke-linecap:round; stroke-linejoin:round;">
</g>
<g style="fill:#000000; fill-opacity:1.0; 
stroke:#000000; stroke-width:1.000000; stroke-opacity:1; 
stroke-linecap:round; stroke-linejoin:round;">
<circle cx="22200000.000000" cy="48420000.000000" r="800000.000000" /> 
</g>
<g >
</g>
<g style="fill:#000000; fill-opacity:1.0; 
stroke:#000000; stroke-width:1.000000; stroke-opacity:1; 
stroke-linecap:round; stroke-linejoin:round;">
<circle cx="26400000.000000" cy="35400000.000000" r="800000.000000" /> 
</g>
<g style="fill:#000000; fill-opacity:1.0; 
stroke:#000000; stroke-width:21200.000000; stroke-opacity:1; 
stroke-linecap:round; stroke-linejoin:round;">
</g>
<g style="fill:#000000; fill-opacity:1.0; 
stroke:#000000; stroke-width:1.000000; stroke-opacity:1; 
stroke-linecap:round; stroke-linejoin:round;">
<circle cx="34020000.000000" cy="35400000.000000" r="800000.000000" /> 
</g>
<g >
</g>
<g style="fill:#000000; fill-opacity:1.0; 
stroke:#000000; stroke-width:1.000000; stroke-opacity:1; 
stroke-linecap:round; stroke-linejoin:round;">
<circle cx="36900000.000000" cy="22400000.000000" r="800000.000000" /> 
</g>
<g style="fill:#000000; fill-opacity:1.0; 
stroke:#000000; stroke-width:21200.000000; stroke-opacity:1; 
stroke-linecap:round; stroke-linejoin:round;">
</g>
<g style="fill:#000000; fill-opacity:1.0; 
stroke:#000000; stroke-width:1.000000; stroke-opacity:1; 
stroke-linecap:round; stroke-linejoin:round;">
<circle cx="29280000.000000" cy="22400000.000000" r="800000.000000" /> 
</g>
<g >
</g>
<g style="fill:#000000; fill-opacity:1.0; 
stroke:#000000; stroke-width:1.000000; stroke-opacity:1; 
stroke-linecap:round; stroke-linejoin:round;">
<circle cx="40600000.000000" cy="44600000.000000" r="800000.000000" /> 
</g>
<g style="fill:#000000; fill-opacity:1.0; 
stroke:#000000; stroke-width:21200.000000; stroke-opacity:1; 
stroke-linecap:round; stroke-linejoin:round;">
</g>
<g style="fill:#000000; fill-opacity:1.0; 
stroke:#000000; stroke-width:1.000000; stroke-opacity:1; 
stroke-linecap:round; stroke-linejoin:round;">
<circle cx="40600000.000000" cy="36980000.000000" r="800000.000000" /> 
</g>
<g >
</g>
<g style="fill:#000000; fill-opacity:1.0; 
stroke:#000000; stroke-width:1.000000; stroke-opacity:1; 
stroke-linecap:round; stroke-linejoin:round;">
<circle cx="26000000.000000" cy="52600000.000000" r="800000.000000" /> 
</g>
<g style="fill:#000000; fill-opacity:1.0; 
stroke:#000000; stroke-width:21200.000000; stroke-opacity:1; 
stroke-linecap:round; stroke-linejoin:round;">
</g>
<g style="fill:#000000; fill-opacity:1.0; 
stroke:#000000; stroke-width:1.000000; stroke-opacity:1; 
stroke-linecap:round; stroke-linejoin:round;">
<circle cx="26000000.000000" cy="44980000.000000" r="800000.000000" /> 
</g>
<g >
</g>
<g style="fill:#000000; fill-opacity:1.0; 
stroke:#000000; stroke-width:1.000000; stroke-opacity:1; 
stroke-linecap:round; stroke-linejoin:round;">
<circle cx="36900000.000000" cy="18800000.000000" r="800000.000000" /> 
</g>
<g style="fill:#000000; fill-opacity:1.0; 
stroke:#000000; stroke-width:21200.000000; stroke-opacity:1; 
stroke-linecap:round; stroke-linejoin:round;">
</g>
<g style="fill:#000000; fill-opacity:1.0; 
stroke:#000000; stroke-width:1.000000; stroke-opacity:1; 
stroke-linecap:round; stroke-linejoin:round;">
<circle cx="29280000.000000" cy="18800000.000000" r="800000.000000" /> 
</g>
<g >
</g>
<g style="fill:#000000; fill-opacity:1.0; 
stroke:#000000; stroke-width:1.000000; stroke-opacity:1; 
stroke-linecap:round; stroke-linejoin:round;">
<circle cx="60800000.000000" cy="53400000.000000" r="1200000.000000" /> 
</g>
<g style="fill:#000000; fill-opacity:1.0; 
stroke:#000000; stroke-width:21200.000000; stroke-opacity:1; 
stroke-linecap:round; stroke-linejoin:round;">
</g>
<g style="fill:#000000; fill-opacity:1.0; 
stroke:#000000; stroke-width:1.000000; stroke-opacity:1; 
stroke-linecap:round; stroke-linejoin:round;">
<circle cx="60800000.000000" cy="33080000.000000" r="1200000.000000" /> 
</g>
<g >
</g>
<g style="fill:#000000; fill-opacity:1.0; 
stroke:#000000; stroke-width:1.000000; stroke-opacity:1; 
stroke-linecap:round; stroke-linejoin:round;">
<circle cx="69500000.000000" cy="28800000.000000" r="1200000.000000" /> 
</g>
<g style="fill:#000000; fill-opacity:1.0; 
stroke:#000000; stroke-width:21200.000000; stroke-opacity:1; 
stroke-linecap:round; stroke-linejoin:round;">
</g>
<g style="fill:#000000; fill-opacity:1.0; 
stroke:#000000; stroke-width:1.000000; stroke-opacity:1; 
stroke-linecap:round; stroke-linejoin:round;">
<circle cx="69500000.000000" cy="18640000.000000" r="1200000.000000" /> 
</g>
<g >
</g>
<g style="fill:#000000; fill-opacity:1.0; 
stroke:#000000; stroke-width:1.000000; stroke-opacity:1; 
stroke-linecap:round; stroke-linejoin:round;">
<circle cx="60800000.000000" cy="28800000.000000" r="1200000.000000" /> 
</g>
<g style="fill:#000000; fill-opacity:1.0; 
stroke:#000000; stroke-width:21200.000000; stroke-opacity:1; 
stroke-linecap:round; stroke-linejoin:round;">
</g>
<g style="fill:#000000; fill-opacity:1.0; 
stroke:#000000; stroke-width:1.000000; stroke-opacity:1; 
stroke-linecap:round; stroke-linejoin:round;">
<circle cx="60800000.000000" cy="8480000.000000" r="1200000.000000" /> 
</g>
<g >
</g>
<g style="fill:#000000; fill-opacity:1.0; 
stroke:#000000; stroke-width:1.000000; stroke-opacity:1; 
stroke-linecap:round; stroke-linejoin:round;">
<path style="fill:#000000; fill-opacity:1.0; 
stroke:#000000; stroke-width:1.000000; stroke-opacity:1; 
stroke-linecap:round; stroke-linejoin:round;fill-rule:evenodd;"
d="M 20700001.000000,34850001.000000
22499999.000000,34850001.000000
22499999.000000,35949999.000000
20700001.000000,35949999.000000
Z" /> 
<path style="fill:#000000; fill-opacity:1.0; 
stroke:#000000; stroke-width:1.000000; stroke-opacity:1; 
stroke-linecap:round; stroke-linejoin:round;fill-rule:evenodd;"
d="M 24295000.000000,36120000.000000
24400238.000000,36140933.000000
24489454.000000,36200546.000000
24549067.000000,36289762.000000
24570000.000000,36395000.000000
24570000.000000,36945000.000000
24549067.000000,37050238.000000
24489454.000000,37139454.000000
24400238.000000,37199067.000000
24295000.000000,37220000.000000
23045000.000000,37220000.000000
22939762.000000,37199067.000000
22850546.000000,37139454.000000
22790933.000000,37050238.000000
22770000.000000,36945000.000000
22770000.000000,36395000.000000
22790933.000000,36289762.000000
22850546.000000,36200546.000000
22939762.000000,36140933.000000
23045000.000000,36120000.000000
Z" /> 
<path style="fill:#000000; fill-opacity:1.0; 
stroke:#000000; stroke-width:1.000000; stroke-opacity:1; 
stroke-linecap:round; stroke-linejoin:round;fill-rule:evenodd;"
d="M 22225000.000000,37390000.000000
22330238.000000,37410933.000000
22419454.000000,37470546.000000
22479067.000000,37559762.000000
22500000.000000,37665000.000000
22500000.000000,38215000.000000
22479067.000000,38320238.000000
22419454.000000,38409454.000000
22330238.000000,38469067.000000
22225000.000000,38490000.000000
20975000.000000,38490000.000000
20869762.000000,38469067.000000
20780546.000000,38409454.000000
20720933.000000,38320238.000000
20700000.000000,38215000.000000
20700000.000000,37665000.000000
20720933.000000,37559762.000000
20780546.000000,37470546.000000
20869762.000000,37410933.000000
20975000.000000,37390000.000000
Z" /> 
</g>
<g >
</g>
<g style="fill:#000000; fill-opacity:1.0; 
stroke:#000000; stroke-width:1.000000; stroke-opacity:1; 
stroke-linecap:round; stroke-linejoin:round;">
<circle cx="37000000.000000" cy="48000000.000000" r="800000.000000" /> 
</g>
<g style="fill:#000000; fill-opacity:1.0; 
stroke:#000000; stroke-width:21200.000000; stroke-opacity:1; 
stroke-linecap:round; stroke-linejoin:round;">
</g>
<g style="fill:#000000; fill-opacity:1.0; 
stroke:#000000; stroke-width:1.000000; stroke-opacity:1; 
stroke-linecap:round; stroke-linejoin:round;">
<circle cx="37000000.000000" cy="53000000.000000" r="800000.000000" /> 
</g>
<g style="fill:#000000; fill-opacity:1.0; 
stroke:#000000; stroke-width:21200.000000; stroke-opacity:1; 
stroke-linecap:round; stroke-linejoin:round;">
</g>
<g >
</g>
<g style="fill:#000000; fill-opacity:1.0; 
stroke:#000000; stroke-width:21200.000000; stroke-opacity:1; 
stroke-linecap:round; stroke-linejoin:round;">
</g>
<g style="fill:#000000; fill-opacity:1.0; 
stroke:#000000; stroke-width:1.000000; stroke-opacity:1; 
stroke-linecap:round; stroke-linejoin:round;">
<circle cx="34000000.000000" cy="38600000.000000" r="800000.000000" /> 
</g>
<g style="fill:#000000; fill-opacity:1.0; 
stroke:#000000; stroke-width:21200.000000; stroke-opacity:1; 
stroke-linecap:round; stroke-linejoin:round;">
</g>
<g style="fill:#000000; fill-opacity:1.0; 
stroke:#000000; stroke-width:1.000000; stroke-opacity:1; 
stroke-linecap:round; stroke-linejoin:round;">
<circle cx="26380000.000000" cy="38600000.000000" r="800000.000000" /> 
</g>
<g >
</g>
<g style="fill:#000000; fill-opacity:1.0; 
stroke:#000000; stroke-width:1.000000; stroke-opacity:1; 
stroke-linecap:round; stroke-linejoin:round;">
<path style="fill:#000000; fill-opacity:1.0; 
stroke:#000000; stroke-width:1.000000; stroke-opacity:1; 
stroke-linecap:round; stroke-linejoin:round;fill-rule:evenodd;"
d="M 30500001.000000,47250001.000000
32299999.000000,47250001.000000
32299999.000000,48349999.000000
30500001.000000,48349999.000000
Z" /> 
<path style="fill:#000000; fill-opacity:1.0; 
stroke:#000000; stroke-width:1.000000; stroke-opacity:1; 
stroke-linecap:round; stroke-linejoin:round;fill-rule:evenodd;"
d="M 34095000.000000,48520000.000000
34200238.000000,48540933.000000
34289454.000000,48600546.000000
34349067.000000,48689762.000000
34370000.000000,48795000.000000
34370000.000000,49345000.000000
34349067.000000,49450238.000000
34289454.000000,49539454.000000
34200238.000000,49599067.000000
34095000.000000,49620000.000000
32845000.000000,49620000.000000
32739762.000000,49599067.000000
32650546.000000,49539454.000000
32590933.000000,49450238.000000
32570000.000000,49345000.000000
32570000.000000,48795000.000000
32590933.000000,48689762.000000
32650546.000000,48600546.000000
32739762.000000,48540933.000000
32845000.000000,48520000.000000
Z" /> 
<path style="fill:#000000; fill-opacity:1.0; 
stroke:#000000; stroke-width:1.000000; stroke-opacity:1; 
stroke-linecap:round; stroke-linejoin:round;fill-rule:evenodd;"
d="M 32025000.000000,49790000.000000
32130238.000000,49810933.000000
32219454.000000,49870546.000000
32279067.000000,49959762.000000
32300000.000000,50065000.000000
32300000.000000,50615000.000000
32279067.000000,50720238.000000
32219454.000000,50809454.000000
32130238.000000,50869067.000000
32025000.000000,50890000.000000
30775000.000000,50890000.000000
30669762.000000,50869067.000000
30580546.000000,50809454.000000
30520933.000000,50720238.000000
30500000.000000,50615000.000000
30500000.000000,50065000.000000
30520933.000000,49959762.000000
30580546.000000,49870546.000000
30669762.000000,49810933.000000
30775000.000000,49790000.000000
Z" /> 
</g>
<g >
</g>
<g style="fill:#000000; fill-opacity:1.0; 
stroke:#000000; stroke-width:1.000000; stroke-opacity:1; 
stroke-linecap:round; stroke-linejoin:round;">
<circle cx="69500000.000000" cy="39000000.000000" r="1200000.000000" /> 
</g>
<g style="fill:#000000; fill-opacity:1.0; 
stroke:#000000; stroke-width:21200.000000; stroke-opacity:1; 
stroke-linecap:round; stroke-linejoin:round;">
</g>
<g style="fill:#000000; fill-opacity:1.0; 
stroke:#000000; stroke-width:1.000000; stroke-opacity:1; 
stroke-linecap:round; stroke-linejoin:round;">
<circle cx="69500000.000000" cy="49160000.000000" r="1200000.000000" /> 
</g>
<g >
</g>
<g style="fill:#000000; fill-opacity:1.0; 
stroke:#000000; stroke-width:1.000000; stroke-opacity:1; 
stroke-linecap:round; stroke-linejoin:round;">
<path style="fill:#000000; fill-opacity:1.0; 
stroke:#000000; stroke-width:1.000000; stroke-opacity:1; 
stroke-linecap:round; stroke-linejoin:round;fill-rule:evenodd;"
d="M 40899999.000000,34699999.000000
38700001.000000,34699999.000000
38700001.000000,32500001.000000
40899999.000000,32500001.000000
Z" /> 
<circle cx="39800000.000000" cy="23440000.000000" r="1100000.000000" /> 
</g>
<g >
</g>
<g style="fill:#000000; fill-opacity:1.0; 
stroke:#000000; stroke-width:1.000000; stroke-opacity:1; 
stroke-linecap:round; stroke-linejoin:round;">
<circle cx="12400000.000000" cy="36800000.000000" r="800000.000000" /> 
</g>
<g style="fill:#000000; fill-opacity:1.0; 
stroke:#000000; stroke-width:21200.000000; stroke-opacity:1; 
stroke-linecap:round; stroke-linejoin:round;">
</g>
<g style="fill:#000000; fill-opacity:1.0; 
stroke:#000000; stroke-width:1.000000; stroke-opacity:1; 
stroke-linecap:round; stroke-linejoin:round;">
<circle cx="12400000.000000" cy="44420000.000000" r="800000.000000" /> 
</g>
<g >
</g>
<g style="fill:#000000; fill-opacity:1.0; 
stroke:#000000; stroke-width:1.000000; stroke-opacity:1; 
stroke-linecap:round; stroke-linejoin:round;">
<circle cx="9500000.000000" cy="11900000.000000" r="400000.000000" /> 
</g>
<g style="fill:#000000; fill-opacity:1.0; 
stroke:#000000; stroke-width:21200.000000; stroke-opacity:1; 
stroke-linecap:round; stroke-linejoin:round;">
</g>
<g style="fill:#000000; fill-opacity:1.0; 
stroke:#000000; stroke-width:1.000000; stroke-opacity:1; 
stroke-linecap:round; stroke-linejoin:round;">
<circle cx="7802944.000000" cy="11197056.000000" r="400000.000000" /> 
</g>
<g style="fill:#000000; fill-opacity:1.0; 
stroke:#000000; stroke-width:21200.000000; stroke-opacity:1; 
stroke-linecap:round; stroke-linejoin:round;">
</g>
<g style="fill:#000000; fill-opacity:1.0; 
stroke:#000000; stroke-width:1.000000; stroke-opacity:1; 
stroke-linecap:round; stroke-linejoin:round;">
<circle cx="11900000.000000" cy="9500000.000000" r="400000.000000" /> 
</g>
<g style="fill:#000000; fill-opacity:1.0; 
stroke:#000000; stroke-width:21200.000000; stroke-opacity:1; 
stroke-linecap:round; stroke-linejoin:round;">
</g>
<g style="fill:#000000; fill-opacity:1.0; 
stroke:#000000; stroke-width:1.000000; stroke-opacity:1; 
stroke-linecap:round; stroke-linejoin:round;">
<circle cx="7802944.000000" cy="7802944.000000" r="400000.000000" /> 
</g>
<g style="fill:#000000; fill-opacity:1.0; 
stroke:#000000; stroke-width:21200.000000; stroke-opacity:1; 
stroke-linecap:round; stroke-linejoin:round;">
</g>
<g style="fill:#000000; fill-opacity:1.0; 
stroke:#000000; stroke-width:1.000000; stroke-opacity:1; 
stroke-linecap:round; stroke-linejoin:round;">
<circle cx="9500000.000000" cy="7100000.000000" r="400000.000000" /> 
</g>
<g style="fill:#000000; fill-opacity:1.0; 
stroke:#000000; stroke-width:21200.000000; stroke-opacity:1; 
stroke-linecap:round; stroke-linejoin:round;">
</g>
<g style="fill:#000000; fill-opacity:1.0; 
stroke:#000000; stroke-width:1.000000; stroke-opacity:1; 
stroke-linecap:round; stroke-linejoin:round;">
<circle cx="11197056.000000" cy="7802944.000000" r="400000.000000" /> 
</g>
<g style="fill:#000000; fill-opacity:1.0; 
stroke:#000000; stroke-width:21200.000000; stroke-opacity:1; 
stroke-linecap:round; stroke-linejoin:round;">
</g>
<g style="fill:#000000; fill-opacity:1.0; 
stroke:#000000; stroke-width:1.000000; stroke-opacity:1; 
stroke-linecap:round; stroke-linejoin:round;">
<circle cx="9500000.000000" cy="9500000.000000" r="3200000.000000" /> 
</g>
<g style="fill:#000000; fill-opacity:1.0; 
stroke:#000000; stroke-width:21200.000000; stroke-opacity:1; 
stroke-linecap:round; stroke-linejoin:round;">
</g>
<g style="fill:#000000; fill-opacity:1.0; 
stroke:#000000; stroke-width:1.000000; stroke-opacity:1; 
stroke-linecap:round; stroke-linejoin:round;">
<circle cx="11197056.000000" cy="11197056.000000" r="400000.000000" /> 
</g>
<g style="fill:#000000; fill-opacity:1.0; 
stroke:#000000; stroke-width:21200.000000; stroke-opacity:1; 
stroke-linecap:round; stroke-linejoin:round;">
</g>
<g style="fill:#000000; fill-opacity:1.0; 
stroke:#000000; stroke-width:1.000000; stroke-opacity:1; 
stroke-linecap:round; stroke-linejoin:round;">
<circle cx="7100000.000000" cy="9500000.000000" r="400000.000000" /> 
</g>
<g style="fill:#000000; fill-opacity:1.0; 
stroke:#000000; stroke-width:21200.000000; stroke-opacity:1; 
stroke-linecap:round; stroke-linejoin:round;">
</g>
<g >
</g>
<g style="fill:#000000; fill-opacity:1.0; 
stroke:#000000; stroke-width:21200.000000; stroke-opacity:1; 
stroke-linecap:round; stroke-linejoin:round;">
</g>
<g style="fill:#000000; fill-opacity:1.0; 
stroke:#000000; stroke-width:1.000000; stroke-opacity:1; 
stroke-linecap:round; stroke-linejoin:round;">
<circle cx="83400000.000000" cy="45500000.000000" r="400000.000000" /> 
</g>
<g style="fill:#000000; fill-opacity:1.0; 
stroke:#000000; stroke-width:21200.000000; stroke-opacity:1; 
stroke-linecap:round; stroke-linejoin:round;">
</g>
<g style="fill:#000000; fill-opacity:1.0; 
stroke:#000000; stroke-width:1.000000; stroke-opacity:1; 
stroke-linecap:round; stroke-linejoin:round;">
<circle cx="82697056.000000" cy="47197056.000000" r="400000.000000" /> 
</g>
<g style="fill:#000000; fill-opacity:1.0; 
stroke:#000000; stroke-width:21200.000000; stroke-opacity:1; 
stroke-linecap:round; stroke-linejoin:round;">
</g>
<g style="fill:#000000; fill-opacity:1.0; 
stroke:#000000; stroke-width:1.000000; stroke-opacity:1; 
stroke-linecap:round; stroke-linejoin:round;">
<circle cx="82697056.000000" cy="43802944.000000" r="400000.000000" /> 
</g>
<g style="fill:#000000; fill-opacity:1.0; 
stroke:#000000; stroke-width:21200.000000; stroke-opacity:1; 
stroke-linecap:round; stroke-linejoin:round;">
</g>
<g style="fill:#000000; fill-opacity:1.0; 
stroke:#000000; stroke-width:1.000000; stroke-opacity:1; 
stroke-linecap:round; stroke-linejoin:round;">
<circle cx="78600000.000000" cy="45500000.000000" r="400000.000000" /> 
</g>
<g style="fill:#000000; fill-opacity:1.0; 
stroke:#000000; stroke-width:21200.000000; stroke-opacity:1; 
stroke-linecap:round; stroke-linejoin:round;">
</g>
<g style="fill:#000000; fill-opacity:1.0; 
stroke:#000000; stroke-width:1.000000; stroke-opacity:1; 
stroke-linecap:round; stroke-linejoin:round;">
<circle cx="81000000.000000" cy="43100000.000000" r="400000.000000" /> 
</g>
<g style="fill:#000000; fill-opacity:1.0; 
stroke:#000000; stroke-width:21200.000000; stroke-opacity:1; 
stroke-linecap:round; stroke-linejoin:round;">
</g>
<g style="fill:#000000; fill-opacity:1.0; 
stroke:#000000; stroke-width:1.000000; stroke-opacity:1; 
stroke-linecap:round; stroke-linejoin:round;">
<circle cx="81000000.000000" cy="45500000.000000" r="3200000.000000" /> 
</g>
<g style="fill:#000000; fill-opacity:1.0; 
stroke:#000000; stroke-width:21200.000000; stroke-opacity:1; 
stroke-linecap:round; stroke-linejoin:round;">
</g>
<g style="fill:#000000; fill-opacity:1.0; 
stroke:#000000; stroke-width:1.000000; stroke-opacity:1; 
stroke-linecap:round; stroke-linejoin:round;">
<circle cx="81000000.000000" cy="47900000.000000" r="400000.000000" /> 
</g>
<g style="fill:#000000; fill-opacity:1.0; 
stroke:#000000; stroke-width:21200.000000; stroke-opacity:1; 
stroke-linecap:round; stroke-linejoin:round;">
</g>
<g style="fill:#000000; fill-opacity:1.0; 
stroke:#000000; stroke-width:1.000000; stroke-opacity:1; 
stroke-linecap:round; stroke-linejoin:round;">
<circle cx="79302944.000000" cy="43802944.000000" r="400000.000000" /> 
</g>
<g style="fill:#000000; fill-opacity:1.0; 
stroke:#000000; stroke-width:21200.000000; stroke-opacity:1; 
stroke-linecap:round; stroke-linejoin:round;">
</g>
<g style="fill:#000000; fill-opacity:1.0; 
stroke:#000000; stroke-width:1.000000; stroke-opacity:1; 
stroke-linecap:round; stroke-linejoin:round;">
<circle cx="79302944.000000" cy="47197056.000000" r="400000.000000" /> 
</g>
<g style="fill:#000000; fill-opacity:1.0; 
stroke:#000000; stroke-width:21200.000000; stroke-opacity:1; 
stroke-linecap:round; stroke-linejoin:round;">
</g>
<g >
</g>
<g style="fill:#000000; fill-opacity:1.0; 
stroke:#000000; stroke-width:21200.000000; stroke-opacity:1; 
stroke-linecap:round; stroke-linejoin:round;">
</g>
<g style="fill:#000000; fill-opacity:1.0; 
stroke:#000000; stroke-width:1.000000; stroke-opacity:1; 
stroke-linecap:round; stroke-linejoin:round;">
<path style="fill:#000000; fill-opacity:1.0; 
stroke:#000000; stroke-width:1.000000; stroke-opacity:1; 
stroke-linecap:round; stroke-linejoin:round;fill-rule:evenodd;"
d="M 39425001.000000,49174999.000000
39425001.000000,47625001.000000
40974999.000000,47625001.000000
40974999.000000,49174999.000000
Z" /> 
<circle cx="42700000.000000" cy="53400000.000000" r="775000.000000" /> 
</g>
<g style="fill:#000000; fill-opacity:1.0; 
stroke:#000000; stroke-width:21200.000000; stroke-opacity:1; 
stroke-linecap:round; stroke-linejoin:round;">
</g>
<g style="fill:#000000; fill-opacity:1.0; 
stroke:#000000; stroke-width:1.000000; stroke-opacity:1; 
stroke-linecap:round; stroke-linejoin:round;">
<circle cx="45200000.000000" cy="48400000.000000" r="775000.000000" /> 
</g>
<g style="fill:#000000; fill-opacity:1.0; 
stroke:#000000; stroke-width:21200.000000; stroke-opacity:1; 
stroke-linecap:round; stroke-linejoin:round;">
</g>
<g >
</g>
<g >
</g>
<g style="fill:#000000; fill-opacity:1.0; 
stroke:#000000; stroke-width:21200.000000; stroke-opacity:1; 
stroke-linecap:round; stroke-linejoin:round;">
</g>
<g style="fill:#000000; fill-opacity:1.0; 
stroke:#000000; stroke-width:1.000000; stroke-opacity:1; 
stroke-linecap:round; stroke-linejoin:round;">
<circle cx="75399996.000000" cy="34200000.000000" r="800000.000000" /> 
</g>
<g style="fill:#000000; fill-opacity:1.0; 
stroke:#000000; stroke-width:21200.000000; stroke-opacity:1; 
stroke-linecap:round; stroke-linejoin:round;">
</g>
<g style="fill:#000000; fill-opacity:1.0; 
stroke:#000000; stroke-width:1.000000; stroke-opacity:1; 
stroke-linecap:round; stroke-linejoin:round;">
<circle cx="81000000.000000" cy="34200000.000000" r="800000.000000" /> 
</g>
<g style="fill:#000000; fill-opacity:1.0; 
stroke:#000000; stroke-width:21200.000000; stroke-opacity:1; 
stroke-linecap:round; stroke-linejoin:round;">
</g>
<g >
</g>
<g >
</g>
</g> 
</svg>
