%TF.GenerationSoftware,KiCad,Pcbnew,8.0.3-8.0.3-0~ubuntu22.04.1*%
%TF.CreationDate,2024-06-26T20:02:33-05:00*%
%TF.ProjectId,amplificador_200w,616d706c-6966-4696-9361-646f725f3230,v1.0.0*%
%TF.SameCoordinates,PX5cfbb60PY7d687e0*%
%TF.FileFunction,Legend,Top*%
%TF.FilePolarity,Positive*%
%FSLAX46Y46*%
G04 Gerber Fmt 4.6, Leading zero omitted, Abs format (unit mm)*
G04 Created by KiCad (PCBNEW 8.0.3-8.0.3-0~ubuntu22.04.1) date 2024-06-26 20:02:33*
%MOMM*%
%LPD*%
G01*
G04 APERTURE LIST*
%ADD10C,0.300000*%
%ADD11C,0.120000*%
%ADD12C,0.150000*%
%TA.AperFunction,Profile*%
%ADD13C,0.050000*%
%TD*%
G04 APERTURE END LIST*
D10*
G36*
X15399668Y57175000D02*
G01*
X15361566Y57190021D01*
X15346179Y57227757D01*
X15346179Y58591365D01*
X15361566Y58629467D01*
X15399668Y58644854D01*
X15626814Y58644854D01*
X15677739Y58626536D01*
X15699720Y58599425D01*
X16069016Y57936305D01*
X16438677Y58599425D01*
X16460659Y58626536D01*
X16511584Y58644854D01*
X16737997Y58644854D01*
X16776099Y58629467D01*
X16791486Y58591365D01*
X16791486Y57227757D01*
X16776099Y57190021D01*
X16737997Y57175000D01*
X16486304Y57175000D01*
X16448569Y57190021D01*
X16433548Y57227757D01*
X16433548Y58014341D01*
X16196510Y57576536D01*
X16169399Y57542830D01*
X16123604Y57527809D01*
X16014427Y57527809D01*
X15968265Y57542830D01*
X15941154Y57576536D01*
X15704117Y58014341D01*
X15704117Y57227757D01*
X15688729Y57190021D01*
X15651360Y57175000D01*
X15399668Y57175000D01*
G37*
G36*
X17628315Y58285494D02*
G01*
X17702446Y58276778D01*
X17775065Y58260001D01*
X17787264Y58256141D01*
X17859803Y58226491D01*
X17924397Y58185498D01*
X17944068Y58168580D01*
X17993736Y58111281D01*
X18029398Y58044482D01*
X18033094Y58034857D01*
X18053869Y57959225D01*
X18061783Y57883551D01*
X18062037Y57866696D01*
X18062037Y57227757D01*
X18046650Y57190021D01*
X18009281Y57175000D01*
X17766015Y57175000D01*
X17728279Y57190021D01*
X17713258Y57227757D01*
X17713258Y57301396D01*
X17661601Y57244862D01*
X17639986Y57227757D01*
X17572944Y57190002D01*
X17531908Y57174634D01*
X17459968Y57158626D01*
X17387561Y57154118D01*
X17312919Y57159226D01*
X17237614Y57176451D01*
X17185327Y57197349D01*
X17118626Y57237492D01*
X17064380Y57287673D01*
X17043545Y57314219D01*
X17008232Y57382230D01*
X16992694Y57457393D01*
X16991887Y57480182D01*
X16995048Y57506194D01*
X17335170Y57506194D01*
X17356053Y57445744D01*
X17411374Y57407275D01*
X17483600Y57394099D01*
X17486113Y57394086D01*
X17562020Y57405289D01*
X17597121Y57420098D01*
X17654753Y57470221D01*
X17674424Y57502164D01*
X17697234Y57573622D01*
X17702634Y57641382D01*
X17702634Y57669592D01*
X17523848Y57638451D01*
X17452365Y57621856D01*
X17385710Y57591396D01*
X17379867Y57587160D01*
X17337309Y57526097D01*
X17335170Y57506194D01*
X16995048Y57506194D01*
X17001480Y57559130D01*
X17030257Y57628225D01*
X17078219Y57687466D01*
X17113154Y57716121D01*
X17178893Y57756100D01*
X17254479Y57789210D01*
X17328693Y57812547D01*
X17410445Y57830624D01*
X17435188Y57834823D01*
X17698970Y57874390D01*
X17698970Y57903333D01*
X17689001Y57977174D01*
X17667463Y58018737D01*
X17599551Y58054771D01*
X17552424Y58058671D01*
X17479031Y58046558D01*
X17456803Y58035224D01*
X17403709Y57982130D01*
X17397819Y57972576D01*
X17346161Y57946564D01*
X17110223Y57946564D01*
X17075418Y57959386D01*
X17064061Y57992726D01*
X17085313Y58063224D01*
X17093370Y58078455D01*
X17137284Y58137154D01*
X17179832Y58176274D01*
X17242456Y58217463D01*
X17314123Y58249660D01*
X17331140Y58255775D01*
X17406068Y58275421D01*
X17484255Y58285465D01*
X17554989Y58288015D01*
X17628315Y58285494D01*
G37*
G36*
X18465404Y56776030D02*
G01*
X18434263Y56788853D01*
X18421074Y56819261D01*
X18422173Y56832084D01*
X18426936Y56848204D01*
X18592533Y57242045D01*
X18188799Y58194959D01*
X18182937Y58219871D01*
X18198691Y58253211D01*
X18231297Y58267132D01*
X18469801Y58267132D01*
X18510833Y58252844D01*
X18529884Y58223535D01*
X18769853Y57612439D01*
X19016782Y58223535D01*
X19038032Y58253577D01*
X19079431Y58267132D01*
X19314637Y58267132D01*
X19346510Y58253577D01*
X19360432Y58223535D01*
X19354570Y58194959D01*
X18760694Y56819261D01*
X18738346Y56789585D01*
X18696580Y56776030D01*
X18465404Y56776030D01*
G37*
G36*
X19567428Y57175000D02*
G01*
X19530059Y57190021D01*
X19514672Y57227757D01*
X19514672Y58613347D01*
X19530059Y58650716D01*
X19567428Y58666103D01*
X19810694Y58666103D01*
X19848063Y58650716D01*
X19863450Y58613347D01*
X19863450Y57909194D01*
X20154710Y58231229D01*
X20182554Y58256141D01*
X20225785Y58267132D01*
X20505687Y58267132D01*
X20539392Y58253577D01*
X20552948Y58219871D01*
X20548918Y58201187D01*
X20536095Y58184334D01*
X20157274Y57777303D01*
X20588852Y57255234D01*
X20604239Y57222261D01*
X20590683Y57188556D01*
X20556978Y57175000D01*
X20268649Y57175000D01*
X20222854Y57186724D01*
X20195010Y57210538D01*
X19863450Y57609509D01*
X19863450Y57227757D01*
X19848063Y57190021D01*
X19810694Y57175000D01*
X19567428Y57175000D01*
G37*
G36*
X21291355Y58284489D02*
G01*
X21367376Y58273910D01*
X21445454Y58253579D01*
X21500732Y58231595D01*
X21571071Y58191538D01*
X21630963Y58141893D01*
X21680408Y58082659D01*
X21689043Y58069662D01*
X21725379Y57999530D01*
X21748171Y57929254D01*
X21761572Y57852196D01*
X21764515Y57815772D01*
X21767696Y57741224D01*
X21767812Y57721616D01*
X21765957Y57647977D01*
X21764515Y57626361D01*
X21755547Y57547265D01*
X21737711Y57474429D01*
X21707493Y57400841D01*
X21692341Y57373570D01*
X21646724Y57311839D01*
X21590016Y57259911D01*
X21522217Y57217786D01*
X21507327Y57210538D01*
X21434857Y57183264D01*
X21362947Y57166515D01*
X21283984Y57156818D01*
X21209106Y57154118D01*
X21134086Y57156818D01*
X21055003Y57166515D01*
X20983018Y57183264D01*
X20910519Y57210538D01*
X20840502Y57250702D01*
X20781576Y57300669D01*
X20733741Y57360439D01*
X20725505Y57373570D01*
X20691102Y57444066D01*
X20669437Y57514121D01*
X20656583Y57590435D01*
X20653698Y57626361D01*
X20651577Y57701970D01*
X20651503Y57720883D01*
X21021161Y57720883D01*
X21022465Y57646984D01*
X21022993Y57636619D01*
X21032353Y57559820D01*
X21057207Y57490017D01*
X21072452Y57466626D01*
X21133281Y57422317D01*
X21209106Y57409840D01*
X21285479Y57422317D01*
X21345760Y57466626D01*
X21378443Y57532443D01*
X21392964Y57609280D01*
X21394853Y57636619D01*
X21397032Y57711178D01*
X21397051Y57720883D01*
X21395486Y57794782D01*
X21394853Y57805147D01*
X21385545Y57880933D01*
X21360881Y57950466D01*
X21345760Y57974041D01*
X21285479Y58019493D01*
X21209106Y58032293D01*
X21133281Y58019493D01*
X21072452Y57974041D01*
X21039506Y57908101D01*
X21024888Y57832069D01*
X21022993Y57805147D01*
X21021177Y57730588D01*
X21021161Y57720883D01*
X20651503Y57720883D01*
X20651500Y57721616D01*
X20652842Y57797366D01*
X20653698Y57815772D01*
X20662898Y57895843D01*
X20681429Y57969134D01*
X20712963Y58042614D01*
X20728803Y58069662D01*
X20776158Y58130813D01*
X20833961Y58182376D01*
X20902210Y58224351D01*
X20917114Y58231595D01*
X20989091Y58258868D01*
X21069008Y58277216D01*
X21146711Y58286032D01*
X21209106Y58288015D01*
X21291355Y58284489D01*
G37*
G36*
X22025000Y57175000D02*
G01*
X21987630Y57190021D01*
X21972243Y57227757D01*
X21972243Y58613347D01*
X21987630Y58650716D01*
X22025000Y58666103D01*
X22273394Y58666103D01*
X22310764Y58650716D01*
X22326151Y58613347D01*
X22326151Y57227757D01*
X22310764Y57190021D01*
X22273394Y57175000D01*
X22025000Y57175000D01*
G37*
G36*
X23301087Y58641813D02*
G01*
X23377505Y58632690D01*
X23461697Y58613713D01*
X23537698Y58585978D01*
X23605506Y58549485D01*
X23646161Y58520290D01*
X23706832Y58460815D01*
X23752600Y58391381D01*
X23783467Y58311991D01*
X23798065Y58236016D01*
X23801866Y58167115D01*
X23796215Y58086006D01*
X23779262Y58012491D01*
X23747169Y57939711D01*
X23730425Y57913225D01*
X23681267Y57853977D01*
X23623092Y57804460D01*
X23555901Y57764675D01*
X23541381Y57757886D01*
X23829344Y57242778D01*
X23835572Y57219697D01*
X23822383Y57188190D01*
X23791242Y57175000D01*
X23512438Y57175000D01*
X23454187Y57194784D01*
X23426343Y57231787D01*
X23188206Y57694139D01*
X22972051Y57694139D01*
X22972051Y57227757D01*
X22956664Y57190021D01*
X22918562Y57175000D01*
X22647086Y57175000D01*
X22609351Y57190021D01*
X22594330Y57227757D01*
X22594330Y57990894D01*
X22972051Y57990894D01*
X23215317Y57990894D01*
X23291943Y58000150D01*
X23359158Y58036279D01*
X23362229Y58039254D01*
X23401629Y58104324D01*
X23410956Y58169679D01*
X23399140Y58243960D01*
X23363695Y58302670D01*
X23298280Y58342405D01*
X23221584Y58353545D01*
X23215317Y58353594D01*
X22972051Y58353594D01*
X22972051Y57990894D01*
X22594330Y57990894D01*
X22594330Y58591365D01*
X22609351Y58629467D01*
X22647086Y58644854D01*
X23218981Y58644854D01*
X23301087Y58641813D01*
G37*
G36*
X24588246Y58284491D02*
G01*
X24669436Y58271835D01*
X24742794Y58249973D01*
X24815963Y58214376D01*
X24879393Y58168781D01*
X24933261Y58114839D01*
X24977565Y58052552D01*
X24998046Y58014341D01*
X25027444Y57940577D01*
X25047221Y57861481D01*
X25056724Y57786697D01*
X25058862Y57727844D01*
X25058862Y57676553D01*
X25043108Y57638818D01*
X25005373Y57623797D01*
X24333827Y57623797D01*
X24333827Y57617935D01*
X24333827Y57609509D01*
X24343805Y57533609D01*
X24355076Y57498134D01*
X24395331Y57435279D01*
X24413695Y57419365D01*
X24482525Y57391888D01*
X24509682Y57390056D01*
X24579658Y57402879D01*
X24627285Y57433654D01*
X24656960Y57464795D01*
X24687735Y57491906D01*
X24724005Y57497401D01*
X24984856Y57497401D01*
X25018562Y57484945D01*
X25030286Y57452705D01*
X25004406Y57381424D01*
X24994748Y57365876D01*
X24947801Y57309282D01*
X24897662Y57266225D01*
X24835251Y57227066D01*
X24765996Y57196354D01*
X24736461Y57185991D01*
X24659594Y57166568D01*
X24581528Y57156639D01*
X24512247Y57154118D01*
X24437110Y57157400D01*
X24353510Y57170006D01*
X24277071Y57192065D01*
X24207794Y57223578D01*
X24145678Y57264545D01*
X24117306Y57288573D01*
X24067284Y57343704D01*
X24027129Y57407980D01*
X23996839Y57481400D01*
X23976416Y57563965D01*
X23966933Y57639755D01*
X23964532Y57688277D01*
X23963433Y57724913D01*
X23964532Y57760451D01*
X23971149Y57836654D01*
X24333827Y57836654D01*
X24333827Y57831892D01*
X24689567Y57831892D01*
X24689567Y57836654D01*
X24682205Y57911117D01*
X24668684Y57954624D01*
X24626438Y58016585D01*
X24607501Y58031560D01*
X24537984Y58056977D01*
X24510781Y58058671D01*
X24438194Y58044666D01*
X24414427Y58031560D01*
X24364231Y57975335D01*
X24354344Y57954624D01*
X24336251Y57881339D01*
X24333827Y57836654D01*
X23971149Y57836654D01*
X23971493Y57840616D01*
X23986147Y57914782D01*
X24011830Y57991047D01*
X24038538Y58045116D01*
X24081013Y58107246D01*
X24131776Y58160508D01*
X24190827Y58204902D01*
X24227215Y58225733D01*
X24298525Y58255840D01*
X24376443Y58276094D01*
X24451250Y58285826D01*
X24510781Y58288015D01*
X24588246Y58284491D01*
G37*
G36*
X25410205Y56776030D02*
G01*
X25379064Y56788853D01*
X25365875Y56819261D01*
X25366974Y56832084D01*
X25371737Y56848204D01*
X25537334Y57242045D01*
X25133600Y58194959D01*
X25127739Y58219871D01*
X25143492Y58253211D01*
X25176099Y58267132D01*
X25414602Y58267132D01*
X25455635Y58252844D01*
X25474685Y58223535D01*
X25714654Y57612439D01*
X25961584Y58223535D01*
X25982833Y58253577D01*
X26024232Y58267132D01*
X26259438Y58267132D01*
X26291311Y58253577D01*
X26305233Y58223535D01*
X26299371Y58194959D01*
X25705495Y56819261D01*
X25683147Y56789585D01*
X25641381Y56776030D01*
X25410205Y56776030D01*
G37*
G36*
X26398656Y57175000D02*
G01*
X26360921Y57190021D01*
X26345900Y57227757D01*
X26345900Y57494104D01*
X26360921Y57531839D01*
X26398656Y57547593D01*
X26665003Y57547593D01*
X26702739Y57531839D01*
X26718492Y57494104D01*
X26718492Y57227757D01*
X26702739Y57190021D01*
X26665003Y57175000D01*
X26398656Y57175000D01*
G37*
G36*
X27445359Y57154118D02*
G01*
X27370071Y57157644D01*
X27290627Y57170041D01*
X27216748Y57191364D01*
X27170586Y57210538D01*
X27100576Y57250809D01*
X27040297Y57301099D01*
X26989751Y57361405D01*
X26980809Y57374669D01*
X26943228Y57446582D01*
X26919928Y57518768D01*
X26906597Y57598025D01*
X26903872Y57635520D01*
X26901694Y57710027D01*
X26901674Y57719418D01*
X26903239Y57793974D01*
X26903872Y57805147D01*
X26911246Y57879061D01*
X26928846Y57955427D01*
X26956300Y58024605D01*
X26980076Y58066731D01*
X27028362Y58129428D01*
X27086665Y58181964D01*
X27154987Y58224339D01*
X27169853Y58231595D01*
X27240377Y58258868D01*
X27316350Y58277216D01*
X27397771Y58286638D01*
X27445359Y58288015D01*
X27523811Y58284769D01*
X27603094Y58273549D01*
X27674078Y58254315D01*
X27693754Y58246982D01*
X27765830Y58213374D01*
X27831704Y58170570D01*
X27861915Y58144767D01*
X27912595Y58090921D01*
X27954887Y58027838D01*
X27959002Y58019837D01*
X27986390Y57949514D01*
X27993073Y57908095D01*
X27978053Y57870360D01*
X27940317Y57855339D01*
X27673237Y57855339D01*
X27638799Y57865964D01*
X27616451Y57898204D01*
X27579070Y57963691D01*
X27551971Y57989795D01*
X27481285Y58016242D01*
X27451953Y58018005D01*
X27377673Y58004174D01*
X27322627Y57962684D01*
X27287639Y57893166D01*
X27274588Y57815237D01*
X27273534Y57794522D01*
X27272074Y57720135D01*
X27273534Y57646145D01*
X27282722Y57567903D01*
X27310001Y57495024D01*
X27322993Y57476885D01*
X27385976Y57434226D01*
X27451953Y57424128D01*
X27525554Y57436277D01*
X27554535Y57452338D01*
X27601629Y57511060D01*
X27616451Y57543929D01*
X27638066Y57575803D01*
X27673237Y57586428D01*
X27940317Y57586428D01*
X27978053Y57571040D01*
X27993073Y57533671D01*
X27975549Y57460181D01*
X27972191Y57451239D01*
X27936456Y57383343D01*
X27913572Y57351222D01*
X27861112Y57295013D01*
X27809891Y57254502D01*
X27744434Y57216302D01*
X27672446Y57187330D01*
X27655652Y57181961D01*
X27583661Y57164994D01*
X27510429Y57156320D01*
X27445359Y57154118D01*
G37*
G36*
X28781306Y58284489D02*
G01*
X28857327Y58273910D01*
X28935405Y58253579D01*
X28990683Y58231595D01*
X29061022Y58191538D01*
X29120914Y58141893D01*
X29170359Y58082659D01*
X29178995Y58069662D01*
X29215331Y57999530D01*
X29238122Y57929254D01*
X29251523Y57852196D01*
X29254466Y57815772D01*
X29257647Y57741224D01*
X29257763Y57721616D01*
X29255908Y57647977D01*
X29254466Y57626361D01*
X29245498Y57547265D01*
X29227662Y57474429D01*
X29197444Y57400841D01*
X29182292Y57373570D01*
X29136675Y57311839D01*
X29079967Y57259911D01*
X29012169Y57217786D01*
X28997278Y57210538D01*
X28924809Y57183264D01*
X28852898Y57166515D01*
X28773935Y57156818D01*
X28699057Y57154118D01*
X28624037Y57156818D01*
X28544954Y57166515D01*
X28472969Y57183264D01*
X28400471Y57210538D01*
X28330453Y57250702D01*
X28271527Y57300669D01*
X28223693Y57360439D01*
X28215457Y57373570D01*
X28181053Y57444066D01*
X28159389Y57514121D01*
X28146534Y57590435D01*
X28143649Y57626361D01*
X28141528Y57701970D01*
X28141454Y57720883D01*
X28511113Y57720883D01*
X28512417Y57646984D01*
X28512944Y57636619D01*
X28522304Y57559820D01*
X28547158Y57490017D01*
X28562404Y57466626D01*
X28623232Y57422317D01*
X28699057Y57409840D01*
X28775430Y57422317D01*
X28835711Y57466626D01*
X28868394Y57532443D01*
X28882915Y57609280D01*
X28884804Y57636619D01*
X28886983Y57711178D01*
X28887002Y57720883D01*
X28885437Y57794782D01*
X28884804Y57805147D01*
X28875496Y57880933D01*
X28850832Y57950466D01*
X28835711Y57974041D01*
X28775430Y58019493D01*
X28699057Y58032293D01*
X28623232Y58019493D01*
X28562404Y57974041D01*
X28529458Y57908101D01*
X28514839Y57832069D01*
X28512944Y57805147D01*
X28511129Y57730588D01*
X28511113Y57720883D01*
X28141454Y57720883D01*
X28141451Y57721616D01*
X28142793Y57797366D01*
X28143649Y57815772D01*
X28152849Y57895843D01*
X28171380Y57969134D01*
X28202914Y58042614D01*
X28218754Y58069662D01*
X28266109Y58130813D01*
X28323912Y58182376D01*
X28392162Y58224351D01*
X28407065Y58231595D01*
X28479042Y58258868D01*
X28558959Y58277216D01*
X28636662Y58286032D01*
X28699057Y58288015D01*
X28781306Y58284489D01*
G37*
G36*
X29514218Y57175000D02*
G01*
X29476482Y57190021D01*
X29461461Y57227757D01*
X29461461Y58214376D01*
X29476482Y58251745D01*
X29514218Y58267132D01*
X29744295Y58267132D01*
X29781664Y58251745D01*
X29797051Y58214376D01*
X29797051Y58143301D01*
X29851019Y58198668D01*
X29913921Y58241853D01*
X29984967Y58272147D01*
X30060483Y58286212D01*
X30091974Y58288015D01*
X30177815Y58283189D01*
X30252888Y58264866D01*
X30326865Y58226427D01*
X30386185Y58169617D01*
X30425366Y58106298D01*
X30471551Y58166414D01*
X30531523Y58216976D01*
X30563852Y58237091D01*
X30633713Y58268123D01*
X30708107Y58284832D01*
X30760223Y58288015D01*
X30838671Y58281060D01*
X30911348Y58260194D01*
X30956594Y58238556D01*
X31017714Y58194043D01*
X31068633Y58134692D01*
X31096912Y58086881D01*
X31124346Y58017344D01*
X31140349Y57945093D01*
X31148122Y57863685D01*
X31148935Y57824564D01*
X31148935Y57227757D01*
X31133548Y57190021D01*
X31096179Y57175000D01*
X30851814Y57175000D01*
X30814078Y57190021D01*
X30799057Y57227757D01*
X30799057Y57809910D01*
X30791437Y57886024D01*
X30777442Y57926047D01*
X30728956Y57983189D01*
X30720289Y57988329D01*
X30647754Y58007213D01*
X30639323Y58007380D01*
X30566121Y57989501D01*
X30563852Y57988329D01*
X30511318Y57936477D01*
X30505600Y57926047D01*
X30485764Y57852578D01*
X30483618Y57809910D01*
X30483618Y57227757D01*
X30468230Y57190021D01*
X30430861Y57175000D01*
X30186496Y57175000D01*
X30148761Y57190021D01*
X30133740Y57227757D01*
X30133740Y57809910D01*
X30125861Y57886024D01*
X30111392Y57926047D01*
X30062184Y57983189D01*
X30053506Y57988329D01*
X29982174Y58007213D01*
X29974005Y58007380D01*
X29902714Y57989992D01*
X29898168Y57987596D01*
X29845434Y57935664D01*
X29839549Y57925315D01*
X29819053Y57852853D01*
X29816835Y57810643D01*
X29816835Y57227757D01*
X29801448Y57190021D01*
X29764078Y57175000D01*
X29514218Y57175000D01*
G37*
G36*
X15339584Y54655000D02*
G01*
X15301849Y54670021D01*
X15286828Y54707757D01*
X15286828Y54856134D01*
X15294888Y54902296D01*
X15339218Y54960182D01*
X15557937Y55174505D01*
X15618649Y55220826D01*
X15684238Y55271448D01*
X15744182Y55318389D01*
X15805777Y55367527D01*
X15833810Y55390294D01*
X15890375Y55438806D01*
X15947468Y55493849D01*
X15994644Y55548563D01*
X16032248Y55612029D01*
X16047034Y55680454D01*
X16033989Y55756331D01*
X16010031Y55798423D01*
X15947668Y55837579D01*
X15883269Y55845318D01*
X15808509Y55832677D01*
X15781053Y55818573D01*
X15727900Y55765793D01*
X15719138Y55750796D01*
X15692719Y55681588D01*
X15689096Y55665067D01*
X15661618Y55626965D01*
X15618387Y55616707D01*
X15356071Y55616707D01*
X15323464Y55629529D01*
X15310642Y55660670D01*
X15317528Y55734928D01*
X15337430Y55811187D01*
X15353506Y55850447D01*
X15392585Y55919037D01*
X15442547Y55980734D01*
X15469277Y56006885D01*
X15529504Y56053545D01*
X15598077Y56091858D01*
X15648429Y56112764D01*
X15723280Y56134665D01*
X15796209Y56146687D01*
X15873790Y56151195D01*
X15881803Y56151232D01*
X15957713Y56148480D01*
X16038027Y56138594D01*
X16111472Y56121518D01*
X16185886Y56093713D01*
X16251229Y56057852D01*
X16312753Y56009781D01*
X16362613Y55953052D01*
X16375296Y55934345D01*
X16409686Y55867433D01*
X16431338Y55794010D01*
X16440254Y55714075D01*
X16440509Y55697307D01*
X16434172Y55621160D01*
X16415161Y55549341D01*
X16395446Y55503867D01*
X16356566Y55438402D01*
X16311511Y55380203D01*
X16267951Y55333873D01*
X16213319Y55282575D01*
X16152461Y55230347D01*
X16092366Y55182546D01*
X16071214Y55166445D01*
X15877773Y54972638D01*
X16418527Y54972638D01*
X16456629Y54957251D01*
X16472016Y54919149D01*
X16472016Y54707757D01*
X16456629Y54670021D01*
X16418527Y54655000D01*
X15339584Y54655000D01*
G37*
G36*
X17357161Y56142741D02*
G01*
X17431375Y56132656D01*
X17506766Y56113565D01*
X17534839Y56103605D01*
X17606159Y56070830D01*
X17668994Y56030435D01*
X17718754Y55987101D01*
X17769587Y55927767D01*
X17810528Y55861324D01*
X17832327Y55813078D01*
X17855547Y55742706D01*
X17870801Y55668612D01*
X17877756Y55598022D01*
X17880944Y55522553D01*
X17881786Y55464666D01*
X17882152Y55390843D01*
X17881786Y55317387D01*
X17880331Y55240172D01*
X17877756Y55187328D01*
X17869916Y55109762D01*
X17854457Y55035746D01*
X17833792Y54971539D01*
X17800321Y54899703D01*
X17757062Y54834771D01*
X17722784Y54795318D01*
X17662797Y54743300D01*
X17598487Y54703673D01*
X17539235Y54676982D01*
X17466077Y54654378D01*
X17393382Y54641192D01*
X17314196Y54634787D01*
X17276919Y54634118D01*
X17203485Y54636797D01*
X17127059Y54646215D01*
X17049822Y54664634D01*
X17014235Y54676982D01*
X16942628Y54710305D01*
X16879939Y54751333D01*
X16830687Y54795318D01*
X16780953Y54855648D01*
X16741111Y54922881D01*
X16720045Y54971539D01*
X16697781Y55042328D01*
X16682877Y55116667D01*
X16675715Y55187328D01*
X16673186Y55260574D01*
X16672051Y55317387D01*
X16671544Y55385235D01*
X17063520Y55385235D01*
X17064061Y55326180D01*
X17065413Y55252429D01*
X17066625Y55197952D01*
X17074807Y55122433D01*
X17098430Y55047583D01*
X17120481Y55009275D01*
X17179852Y54958522D01*
X17251233Y54939671D01*
X17276919Y54938566D01*
X17349733Y54948510D01*
X17413847Y54985245D01*
X17434455Y55009275D01*
X17469077Y55080191D01*
X17484464Y55155375D01*
X17487212Y55197952D01*
X17490094Y55272497D01*
X17490875Y55326180D01*
X17491236Y55402133D01*
X17490875Y55461368D01*
X17489407Y55538156D01*
X17487212Y55585932D01*
X17479742Y55659330D01*
X17456849Y55733348D01*
X17435188Y55772045D01*
X17380731Y55821593D01*
X17309569Y55843239D01*
X17276919Y55845318D01*
X17203760Y55834499D01*
X17139767Y55796612D01*
X17119382Y55772045D01*
X17085301Y55700899D01*
X17069708Y55627191D01*
X17066625Y55585932D01*
X17064937Y55510827D01*
X17064061Y55461368D01*
X17063520Y55385235D01*
X16671544Y55385235D01*
X16671502Y55390843D01*
X16672051Y55464666D01*
X16673633Y55539343D01*
X16675715Y55598022D01*
X16683684Y55675501D01*
X16699533Y55749258D01*
X16720778Y55813078D01*
X16755296Y55884261D01*
X16799500Y55948335D01*
X16834351Y55987101D01*
X16895127Y56038346D01*
X16959619Y56077355D01*
X17018632Y56103605D01*
X17091082Y56126016D01*
X17171045Y56140127D01*
X17249436Y56145730D01*
X17276919Y56146103D01*
X17357161Y56142741D01*
G37*
G36*
X18131280Y54655000D02*
G01*
X18093545Y54670021D01*
X18078524Y54707757D01*
X18078524Y54856134D01*
X18086584Y54902296D01*
X18130914Y54960182D01*
X18349633Y55174505D01*
X18410345Y55220826D01*
X18475934Y55271448D01*
X18535878Y55318389D01*
X18597473Y55367527D01*
X18625505Y55390294D01*
X18682071Y55438806D01*
X18739164Y55493849D01*
X18786339Y55548563D01*
X18823944Y55612029D01*
X18838729Y55680454D01*
X18825685Y55756331D01*
X18801727Y55798423D01*
X18739364Y55837579D01*
X18674965Y55845318D01*
X18600205Y55832677D01*
X18572749Y55818573D01*
X18519596Y55765793D01*
X18510833Y55750796D01*
X18484415Y55681588D01*
X18480792Y55665067D01*
X18453314Y55626965D01*
X18410083Y55616707D01*
X18147766Y55616707D01*
X18115160Y55629529D01*
X18102337Y55660670D01*
X18109224Y55734928D01*
X18129126Y55811187D01*
X18145202Y55850447D01*
X18184280Y55919037D01*
X18234243Y55980734D01*
X18260973Y56006885D01*
X18321200Y56053545D01*
X18389773Y56091858D01*
X18440125Y56112764D01*
X18514975Y56134665D01*
X18587905Y56146687D01*
X18665485Y56151195D01*
X18673499Y56151232D01*
X18749409Y56148480D01*
X18829723Y56138594D01*
X18903167Y56121518D01*
X18977581Y56093713D01*
X19042925Y56057852D01*
X19104448Y56009781D01*
X19154308Y55953052D01*
X19166992Y55934345D01*
X19201381Y55867433D01*
X19223034Y55794010D01*
X19231950Y55714075D01*
X19232205Y55697307D01*
X19225868Y55621160D01*
X19206857Y55549341D01*
X19187142Y55503867D01*
X19148261Y55438402D01*
X19103207Y55380203D01*
X19059647Y55333873D01*
X19005014Y55282575D01*
X18944156Y55230347D01*
X18884062Y55182546D01*
X18862909Y55166445D01*
X18669469Y54972638D01*
X19210223Y54972638D01*
X19248325Y54957251D01*
X19263712Y54919149D01*
X19263712Y54707757D01*
X19248325Y54670021D01*
X19210223Y54655000D01*
X18131280Y54655000D01*
G37*
G36*
X20460990Y56109467D02*
G01*
X20476378Y56072097D01*
X20476378Y55257303D01*
X20662124Y55257303D01*
X20701692Y55241916D01*
X20716346Y55204547D01*
X20716346Y54996452D01*
X20700959Y54958716D01*
X20663590Y54943696D01*
X20476378Y54943696D01*
X20476378Y54707757D01*
X20460990Y54670021D01*
X20423621Y54655000D01*
X20164235Y54655000D01*
X20126866Y54670021D01*
X20111479Y54707757D01*
X20111479Y54943696D01*
X19459351Y54943696D01*
X19421615Y54958716D01*
X19406594Y54996452D01*
X19406594Y55196853D01*
X19413189Y55231658D01*
X19419577Y55243015D01*
X19768196Y55243015D01*
X20121004Y55243015D01*
X20121004Y55738340D01*
X19768196Y55243015D01*
X19419577Y55243015D01*
X19429675Y55260967D01*
X20040404Y56089317D01*
X20105961Y56124299D01*
X20118073Y56124854D01*
X20423621Y56124854D01*
X20460990Y56109467D01*
G37*
D11*
X37400000Y5800000D02*
G75*
G02*
X37400000Y9400000I0J1800000D01*
G01*
X41800000Y9400000D02*
X37400000Y9400000D01*
X37400000Y5800000D02*
X41800000Y5800000D01*
X41800000Y9400000D02*
G75*
G02*
X41800000Y5800000I0J-1800000D01*
G01*
D10*
X6357143Y17293100D02*
X7500001Y17293100D01*
X6928572Y16721672D02*
X6928572Y17864529D01*
X8928572Y18221672D02*
X8214286Y18221672D01*
X8214286Y18221672D02*
X8142858Y17507386D01*
X8142858Y17507386D02*
X8214286Y17578815D01*
X8214286Y17578815D02*
X8357144Y17650243D01*
X8357144Y17650243D02*
X8714286Y17650243D01*
X8714286Y17650243D02*
X8857144Y17578815D01*
X8857144Y17578815D02*
X8928572Y17507386D01*
X8928572Y17507386D02*
X9000001Y17364529D01*
X9000001Y17364529D02*
X9000001Y17007386D01*
X9000001Y17007386D02*
X8928572Y16864529D01*
X8928572Y16864529D02*
X8857144Y16793100D01*
X8857144Y16793100D02*
X8714286Y16721672D01*
X8714286Y16721672D02*
X8357144Y16721672D01*
X8357144Y16721672D02*
X8214286Y16793100D01*
X8214286Y16793100D02*
X8142858Y16864529D01*
X9928572Y18221672D02*
X10071429Y18221672D01*
X10071429Y18221672D02*
X10214286Y18150243D01*
X10214286Y18150243D02*
X10285715Y18078815D01*
X10285715Y18078815D02*
X10357143Y17935958D01*
X10357143Y17935958D02*
X10428572Y17650243D01*
X10428572Y17650243D02*
X10428572Y17293100D01*
X10428572Y17293100D02*
X10357143Y17007386D01*
X10357143Y17007386D02*
X10285715Y16864529D01*
X10285715Y16864529D02*
X10214286Y16793100D01*
X10214286Y16793100D02*
X10071429Y16721672D01*
X10071429Y16721672D02*
X9928572Y16721672D01*
X9928572Y16721672D02*
X9785715Y16793100D01*
X9785715Y16793100D02*
X9714286Y16864529D01*
X9714286Y16864529D02*
X9642857Y17007386D01*
X9642857Y17007386D02*
X9571429Y17293100D01*
X9571429Y17293100D02*
X9571429Y17650243D01*
X9571429Y17650243D02*
X9642857Y17935958D01*
X9642857Y17935958D02*
X9714286Y18078815D01*
X9714286Y18078815D02*
X9785715Y18150243D01*
X9785715Y18150243D02*
X9928572Y18221672D01*
X10857143Y18221672D02*
X11357143Y16721672D01*
X11357143Y16721672D02*
X11857143Y18221672D01*
X7238095Y43252267D02*
X8761905Y43252267D01*
X8000000Y42490362D02*
X8000000Y44014172D01*
D12*
X38328571Y8473963D02*
X38471428Y8426344D01*
X38471428Y8426344D02*
X38519047Y8378725D01*
X38519047Y8378725D02*
X38566666Y8283487D01*
X38566666Y8283487D02*
X38566666Y8140630D01*
X38566666Y8140630D02*
X38519047Y8045392D01*
X38519047Y8045392D02*
X38471428Y7997772D01*
X38471428Y7997772D02*
X38376190Y7950153D01*
X38376190Y7950153D02*
X37995238Y7950153D01*
X37995238Y7950153D02*
X37995238Y8950153D01*
X37995238Y8950153D02*
X38328571Y8950153D01*
X38328571Y8950153D02*
X38423809Y8902534D01*
X38423809Y8902534D02*
X38471428Y8854915D01*
X38471428Y8854915D02*
X38519047Y8759677D01*
X38519047Y8759677D02*
X38519047Y8664439D01*
X38519047Y8664439D02*
X38471428Y8569201D01*
X38471428Y8569201D02*
X38423809Y8521582D01*
X38423809Y8521582D02*
X38328571Y8473963D01*
X38328571Y8473963D02*
X37995238Y8473963D01*
X38995238Y7950153D02*
X38995238Y8950153D01*
X39423809Y8235868D02*
X39899999Y8235868D01*
X39328571Y7950153D02*
X39661904Y8950153D01*
X39661904Y8950153D02*
X39995237Y7950153D01*
X40280952Y7997772D02*
X40423809Y7950153D01*
X40423809Y7950153D02*
X40661904Y7950153D01*
X40661904Y7950153D02*
X40757142Y7997772D01*
X40757142Y7997772D02*
X40804761Y8045392D01*
X40804761Y8045392D02*
X40852380Y8140630D01*
X40852380Y8140630D02*
X40852380Y8235868D01*
X40852380Y8235868D02*
X40804761Y8331106D01*
X40804761Y8331106D02*
X40757142Y8378725D01*
X40757142Y8378725D02*
X40661904Y8426344D01*
X40661904Y8426344D02*
X40471428Y8473963D01*
X40471428Y8473963D02*
X40376190Y8521582D01*
X40376190Y8521582D02*
X40328571Y8569201D01*
X40328571Y8569201D02*
X40280952Y8664439D01*
X40280952Y8664439D02*
X40280952Y8759677D01*
X40280952Y8759677D02*
X40328571Y8854915D01*
X40328571Y8854915D02*
X40376190Y8902534D01*
X40376190Y8902534D02*
X40471428Y8950153D01*
X40471428Y8950153D02*
X40709523Y8950153D01*
X40709523Y8950153D02*
X40852380Y8902534D01*
X36852380Y6435448D02*
X36804761Y6387828D01*
X36804761Y6387828D02*
X36661904Y6340209D01*
X36661904Y6340209D02*
X36566666Y6340209D01*
X36566666Y6340209D02*
X36423809Y6387828D01*
X36423809Y6387828D02*
X36328571Y6483067D01*
X36328571Y6483067D02*
X36280952Y6578305D01*
X36280952Y6578305D02*
X36233333Y6768781D01*
X36233333Y6768781D02*
X36233333Y6911638D01*
X36233333Y6911638D02*
X36280952Y7102114D01*
X36280952Y7102114D02*
X36328571Y7197352D01*
X36328571Y7197352D02*
X36423809Y7292590D01*
X36423809Y7292590D02*
X36566666Y7340209D01*
X36566666Y7340209D02*
X36661904Y7340209D01*
X36661904Y7340209D02*
X36804761Y7292590D01*
X36804761Y7292590D02*
X36852380Y7244971D01*
X37471428Y7340209D02*
X37661904Y7340209D01*
X37661904Y7340209D02*
X37757142Y7292590D01*
X37757142Y7292590D02*
X37852380Y7197352D01*
X37852380Y7197352D02*
X37899999Y7006876D01*
X37899999Y7006876D02*
X37899999Y6673543D01*
X37899999Y6673543D02*
X37852380Y6483067D01*
X37852380Y6483067D02*
X37757142Y6387828D01*
X37757142Y6387828D02*
X37661904Y6340209D01*
X37661904Y6340209D02*
X37471428Y6340209D01*
X37471428Y6340209D02*
X37376190Y6387828D01*
X37376190Y6387828D02*
X37280952Y6483067D01*
X37280952Y6483067D02*
X37233333Y6673543D01*
X37233333Y6673543D02*
X37233333Y7006876D01*
X37233333Y7006876D02*
X37280952Y7197352D01*
X37280952Y7197352D02*
X37376190Y7292590D01*
X37376190Y7292590D02*
X37471428Y7340209D01*
X38328571Y6340209D02*
X38328571Y7340209D01*
X38328571Y7340209D02*
X38899999Y6340209D01*
X38899999Y6340209D02*
X38899999Y7340209D01*
X39233333Y7340209D02*
X39804761Y7340209D01*
X39519047Y6340209D02*
X39519047Y7340209D01*
X40709523Y6340209D02*
X40376190Y6816400D01*
X40138095Y6340209D02*
X40138095Y7340209D01*
X40138095Y7340209D02*
X40519047Y7340209D01*
X40519047Y7340209D02*
X40614285Y7292590D01*
X40614285Y7292590D02*
X40661904Y7244971D01*
X40661904Y7244971D02*
X40709523Y7149733D01*
X40709523Y7149733D02*
X40709523Y7006876D01*
X40709523Y7006876D02*
X40661904Y6911638D01*
X40661904Y6911638D02*
X40614285Y6864019D01*
X40614285Y6864019D02*
X40519047Y6816400D01*
X40519047Y6816400D02*
X40138095Y6816400D01*
X41328571Y7340209D02*
X41519047Y7340209D01*
X41519047Y7340209D02*
X41614285Y7292590D01*
X41614285Y7292590D02*
X41709523Y7197352D01*
X41709523Y7197352D02*
X41757142Y7006876D01*
X41757142Y7006876D02*
X41757142Y6673543D01*
X41757142Y6673543D02*
X41709523Y6483067D01*
X41709523Y6483067D02*
X41614285Y6387828D01*
X41614285Y6387828D02*
X41519047Y6340209D01*
X41519047Y6340209D02*
X41328571Y6340209D01*
X41328571Y6340209D02*
X41233333Y6387828D01*
X41233333Y6387828D02*
X41138095Y6483067D01*
X41138095Y6483067D02*
X41090476Y6673543D01*
X41090476Y6673543D02*
X41090476Y7006876D01*
X41090476Y7006876D02*
X41138095Y7197352D01*
X41138095Y7197352D02*
X41233333Y7292590D01*
X41233333Y7292590D02*
X41328571Y7340209D01*
X42661904Y6340209D02*
X42185714Y6340209D01*
X42185714Y6340209D02*
X42185714Y7340209D01*
D10*
X24757143Y7293100D02*
X25900001Y7293100D01*
X27328572Y8221672D02*
X26614286Y8221672D01*
X26614286Y8221672D02*
X26542858Y7507386D01*
X26542858Y7507386D02*
X26614286Y7578815D01*
X26614286Y7578815D02*
X26757144Y7650243D01*
X26757144Y7650243D02*
X27114286Y7650243D01*
X27114286Y7650243D02*
X27257144Y7578815D01*
X27257144Y7578815D02*
X27328572Y7507386D01*
X27328572Y7507386D02*
X27400001Y7364529D01*
X27400001Y7364529D02*
X27400001Y7007386D01*
X27400001Y7007386D02*
X27328572Y6864529D01*
X27328572Y6864529D02*
X27257144Y6793100D01*
X27257144Y6793100D02*
X27114286Y6721672D01*
X27114286Y6721672D02*
X26757144Y6721672D01*
X26757144Y6721672D02*
X26614286Y6793100D01*
X26614286Y6793100D02*
X26542858Y6864529D01*
X28328572Y8221672D02*
X28471429Y8221672D01*
X28471429Y8221672D02*
X28614286Y8150243D01*
X28614286Y8150243D02*
X28685715Y8078815D01*
X28685715Y8078815D02*
X28757143Y7935958D01*
X28757143Y7935958D02*
X28828572Y7650243D01*
X28828572Y7650243D02*
X28828572Y7293100D01*
X28828572Y7293100D02*
X28757143Y7007386D01*
X28757143Y7007386D02*
X28685715Y6864529D01*
X28685715Y6864529D02*
X28614286Y6793100D01*
X28614286Y6793100D02*
X28471429Y6721672D01*
X28471429Y6721672D02*
X28328572Y6721672D01*
X28328572Y6721672D02*
X28185715Y6793100D01*
X28185715Y6793100D02*
X28114286Y6864529D01*
X28114286Y6864529D02*
X28042857Y7007386D01*
X28042857Y7007386D02*
X27971429Y7293100D01*
X27971429Y7293100D02*
X27971429Y7650243D01*
X27971429Y7650243D02*
X28042857Y7935958D01*
X28042857Y7935958D02*
X28114286Y8078815D01*
X28114286Y8078815D02*
X28185715Y8150243D01*
X28185715Y8150243D02*
X28328572Y8221672D01*
X29257143Y8221672D02*
X29757143Y6721672D01*
X29757143Y6721672D02*
X30257143Y8221672D01*
X80438095Y33652267D02*
X81961905Y33652267D01*
X81200000Y32890362D02*
X81200000Y34414172D01*
D12*
X10259580Y35133334D02*
X10307200Y35085715D01*
X10307200Y35085715D02*
X10354819Y34942858D01*
X10354819Y34942858D02*
X10354819Y34847620D01*
X10354819Y34847620D02*
X10307200Y34704763D01*
X10307200Y34704763D02*
X10211961Y34609525D01*
X10211961Y34609525D02*
X10116723Y34561906D01*
X10116723Y34561906D02*
X9926247Y34514287D01*
X9926247Y34514287D02*
X9783390Y34514287D01*
X9783390Y34514287D02*
X9592914Y34561906D01*
X9592914Y34561906D02*
X9497676Y34609525D01*
X9497676Y34609525D02*
X9402438Y34704763D01*
X9402438Y34704763D02*
X9354819Y34847620D01*
X9354819Y34847620D02*
X9354819Y34942858D01*
X9354819Y34942858D02*
X9402438Y35085715D01*
X9402438Y35085715D02*
X9450057Y35133334D01*
X10354819Y36085715D02*
X10354819Y35514287D01*
X10354819Y35800001D02*
X9354819Y35800001D01*
X9354819Y35800001D02*
X9497676Y35704763D01*
X9497676Y35704763D02*
X9592914Y35609525D01*
X9592914Y35609525D02*
X9640533Y35514287D01*
X20383333Y48890420D02*
X20335714Y48842800D01*
X20335714Y48842800D02*
X20192857Y48795181D01*
X20192857Y48795181D02*
X20097619Y48795181D01*
X20097619Y48795181D02*
X19954762Y48842800D01*
X19954762Y48842800D02*
X19859524Y48938039D01*
X19859524Y48938039D02*
X19811905Y49033277D01*
X19811905Y49033277D02*
X19764286Y49223753D01*
X19764286Y49223753D02*
X19764286Y49366610D01*
X19764286Y49366610D02*
X19811905Y49557086D01*
X19811905Y49557086D02*
X19859524Y49652324D01*
X19859524Y49652324D02*
X19954762Y49747562D01*
X19954762Y49747562D02*
X20097619Y49795181D01*
X20097619Y49795181D02*
X20192857Y49795181D01*
X20192857Y49795181D02*
X20335714Y49747562D01*
X20335714Y49747562D02*
X20383333Y49699943D01*
X20764286Y49699943D02*
X20811905Y49747562D01*
X20811905Y49747562D02*
X20907143Y49795181D01*
X20907143Y49795181D02*
X21145238Y49795181D01*
X21145238Y49795181D02*
X21240476Y49747562D01*
X21240476Y49747562D02*
X21288095Y49699943D01*
X21288095Y49699943D02*
X21335714Y49604705D01*
X21335714Y49604705D02*
X21335714Y49509467D01*
X21335714Y49509467D02*
X21288095Y49366610D01*
X21288095Y49366610D02*
X20716667Y48795181D01*
X20716667Y48795181D02*
X21335714Y48795181D01*
X28759580Y40033334D02*
X28807200Y39985715D01*
X28807200Y39985715D02*
X28854819Y39842858D01*
X28854819Y39842858D02*
X28854819Y39747620D01*
X28854819Y39747620D02*
X28807200Y39604763D01*
X28807200Y39604763D02*
X28711961Y39509525D01*
X28711961Y39509525D02*
X28616723Y39461906D01*
X28616723Y39461906D02*
X28426247Y39414287D01*
X28426247Y39414287D02*
X28283390Y39414287D01*
X28283390Y39414287D02*
X28092914Y39461906D01*
X28092914Y39461906D02*
X27997676Y39509525D01*
X27997676Y39509525D02*
X27902438Y39604763D01*
X27902438Y39604763D02*
X27854819Y39747620D01*
X27854819Y39747620D02*
X27854819Y39842858D01*
X27854819Y39842858D02*
X27902438Y39985715D01*
X27902438Y39985715D02*
X27950057Y40033334D01*
X27854819Y40366668D02*
X27854819Y40985715D01*
X27854819Y40985715D02*
X28235771Y40652382D01*
X28235771Y40652382D02*
X28235771Y40795239D01*
X28235771Y40795239D02*
X28283390Y40890477D01*
X28283390Y40890477D02*
X28331009Y40938096D01*
X28331009Y40938096D02*
X28426247Y40985715D01*
X28426247Y40985715D02*
X28664342Y40985715D01*
X28664342Y40985715D02*
X28759580Y40938096D01*
X28759580Y40938096D02*
X28807200Y40890477D01*
X28807200Y40890477D02*
X28854819Y40795239D01*
X28854819Y40795239D02*
X28854819Y40509525D01*
X28854819Y40509525D02*
X28807200Y40414287D01*
X28807200Y40414287D02*
X28759580Y40366668D01*
X36969580Y27503334D02*
X37017200Y27455715D01*
X37017200Y27455715D02*
X37064819Y27312858D01*
X37064819Y27312858D02*
X37064819Y27217620D01*
X37064819Y27217620D02*
X37017200Y27074763D01*
X37017200Y27074763D02*
X36921961Y26979525D01*
X36921961Y26979525D02*
X36826723Y26931906D01*
X36826723Y26931906D02*
X36636247Y26884287D01*
X36636247Y26884287D02*
X36493390Y26884287D01*
X36493390Y26884287D02*
X36302914Y26931906D01*
X36302914Y26931906D02*
X36207676Y26979525D01*
X36207676Y26979525D02*
X36112438Y27074763D01*
X36112438Y27074763D02*
X36064819Y27217620D01*
X36064819Y27217620D02*
X36064819Y27312858D01*
X36064819Y27312858D02*
X36112438Y27455715D01*
X36112438Y27455715D02*
X36160057Y27503334D01*
X36398152Y28360477D02*
X37064819Y28360477D01*
X36017200Y28122382D02*
X36731485Y27884287D01*
X36731485Y27884287D02*
X36731485Y28503334D01*
X39233333Y50240420D02*
X39185714Y50192800D01*
X39185714Y50192800D02*
X39042857Y50145181D01*
X39042857Y50145181D02*
X38947619Y50145181D01*
X38947619Y50145181D02*
X38804762Y50192800D01*
X38804762Y50192800D02*
X38709524Y50288039D01*
X38709524Y50288039D02*
X38661905Y50383277D01*
X38661905Y50383277D02*
X38614286Y50573753D01*
X38614286Y50573753D02*
X38614286Y50716610D01*
X38614286Y50716610D02*
X38661905Y50907086D01*
X38661905Y50907086D02*
X38709524Y51002324D01*
X38709524Y51002324D02*
X38804762Y51097562D01*
X38804762Y51097562D02*
X38947619Y51145181D01*
X38947619Y51145181D02*
X39042857Y51145181D01*
X39042857Y51145181D02*
X39185714Y51097562D01*
X39185714Y51097562D02*
X39233333Y51049943D01*
X40090476Y51145181D02*
X39900000Y51145181D01*
X39900000Y51145181D02*
X39804762Y51097562D01*
X39804762Y51097562D02*
X39757143Y51049943D01*
X39757143Y51049943D02*
X39661905Y50907086D01*
X39661905Y50907086D02*
X39614286Y50716610D01*
X39614286Y50716610D02*
X39614286Y50335658D01*
X39614286Y50335658D02*
X39661905Y50240420D01*
X39661905Y50240420D02*
X39709524Y50192800D01*
X39709524Y50192800D02*
X39804762Y50145181D01*
X39804762Y50145181D02*
X39995238Y50145181D01*
X39995238Y50145181D02*
X40090476Y50192800D01*
X40090476Y50192800D02*
X40138095Y50240420D01*
X40138095Y50240420D02*
X40185714Y50335658D01*
X40185714Y50335658D02*
X40185714Y50573753D01*
X40185714Y50573753D02*
X40138095Y50668991D01*
X40138095Y50668991D02*
X40090476Y50716610D01*
X40090476Y50716610D02*
X39995238Y50764229D01*
X39995238Y50764229D02*
X39804762Y50764229D01*
X39804762Y50764229D02*
X39709524Y50716610D01*
X39709524Y50716610D02*
X39661905Y50668991D01*
X39661905Y50668991D02*
X39614286Y50573753D01*
X48433333Y6840420D02*
X48385714Y6792800D01*
X48385714Y6792800D02*
X48242857Y6745181D01*
X48242857Y6745181D02*
X48147619Y6745181D01*
X48147619Y6745181D02*
X48004762Y6792800D01*
X48004762Y6792800D02*
X47909524Y6888039D01*
X47909524Y6888039D02*
X47861905Y6983277D01*
X47861905Y6983277D02*
X47814286Y7173753D01*
X47814286Y7173753D02*
X47814286Y7316610D01*
X47814286Y7316610D02*
X47861905Y7507086D01*
X47861905Y7507086D02*
X47909524Y7602324D01*
X47909524Y7602324D02*
X48004762Y7697562D01*
X48004762Y7697562D02*
X48147619Y7745181D01*
X48147619Y7745181D02*
X48242857Y7745181D01*
X48242857Y7745181D02*
X48385714Y7697562D01*
X48385714Y7697562D02*
X48433333Y7649943D01*
X48766667Y7745181D02*
X49433333Y7745181D01*
X49433333Y7745181D02*
X49004762Y6745181D01*
X24061905Y39745181D02*
X24061905Y40745181D01*
X24061905Y40745181D02*
X24300000Y40745181D01*
X24300000Y40745181D02*
X24442857Y40697562D01*
X24442857Y40697562D02*
X24538095Y40602324D01*
X24538095Y40602324D02*
X24585714Y40507086D01*
X24585714Y40507086D02*
X24633333Y40316610D01*
X24633333Y40316610D02*
X24633333Y40173753D01*
X24633333Y40173753D02*
X24585714Y39983277D01*
X24585714Y39983277D02*
X24538095Y39888039D01*
X24538095Y39888039D02*
X24442857Y39792800D01*
X24442857Y39792800D02*
X24300000Y39745181D01*
X24300000Y39745181D02*
X24061905Y39745181D01*
X25585714Y39745181D02*
X25014286Y39745181D01*
X25300000Y39745181D02*
X25300000Y40745181D01*
X25300000Y40745181D02*
X25204762Y40602324D01*
X25204762Y40602324D02*
X25109524Y40507086D01*
X25109524Y40507086D02*
X25014286Y40459467D01*
X16538095Y39545181D02*
X16538095Y40545181D01*
X17109523Y39545181D02*
X16680952Y40116610D01*
X17109523Y40545181D02*
X16538095Y39973753D01*
X52854819Y32061906D02*
X51854819Y32061906D01*
X51854819Y32061906D02*
X51854819Y32300001D01*
X51854819Y32300001D02*
X51902438Y32442858D01*
X51902438Y32442858D02*
X51997676Y32538096D01*
X51997676Y32538096D02*
X52092914Y32585715D01*
X52092914Y32585715D02*
X52283390Y32633334D01*
X52283390Y32633334D02*
X52426247Y32633334D01*
X52426247Y32633334D02*
X52616723Y32585715D01*
X52616723Y32585715D02*
X52711961Y32538096D01*
X52711961Y32538096D02*
X52807200Y32442858D01*
X52807200Y32442858D02*
X52854819Y32300001D01*
X52854819Y32300001D02*
X52854819Y32061906D01*
X51854819Y32966668D02*
X51854819Y33585715D01*
X51854819Y33585715D02*
X52235771Y33252382D01*
X52235771Y33252382D02*
X52235771Y33395239D01*
X52235771Y33395239D02*
X52283390Y33490477D01*
X52283390Y33490477D02*
X52331009Y33538096D01*
X52331009Y33538096D02*
X52426247Y33585715D01*
X52426247Y33585715D02*
X52664342Y33585715D01*
X52664342Y33585715D02*
X52759580Y33538096D01*
X52759580Y33538096D02*
X52807200Y33490477D01*
X52807200Y33490477D02*
X52854819Y33395239D01*
X52854819Y33395239D02*
X52854819Y33109525D01*
X52854819Y33109525D02*
X52807200Y33014287D01*
X52807200Y33014287D02*
X52759580Y32966668D01*
X53054819Y27238096D02*
X52054819Y27238096D01*
X53054819Y27809524D02*
X52483390Y27380953D01*
X52054819Y27809524D02*
X52626247Y27238096D01*
X47054819Y25261906D02*
X46054819Y25261906D01*
X46054819Y25261906D02*
X46054819Y25500001D01*
X46054819Y25500001D02*
X46102438Y25642858D01*
X46102438Y25642858D02*
X46197676Y25738096D01*
X46197676Y25738096D02*
X46292914Y25785715D01*
X46292914Y25785715D02*
X46483390Y25833334D01*
X46483390Y25833334D02*
X46626247Y25833334D01*
X46626247Y25833334D02*
X46816723Y25785715D01*
X46816723Y25785715D02*
X46911961Y25738096D01*
X46911961Y25738096D02*
X47007200Y25642858D01*
X47007200Y25642858D02*
X47054819Y25500001D01*
X47054819Y25500001D02*
X47054819Y25261906D01*
X46388152Y26690477D02*
X47054819Y26690477D01*
X46007200Y26452382D02*
X46721485Y26214287D01*
X46721485Y26214287D02*
X46721485Y26833334D01*
X47054819Y21338096D02*
X46054819Y21338096D01*
X47054819Y21909524D02*
X46483390Y21480953D01*
X46054819Y21909524D02*
X46626247Y21338096D01*
X10466666Y49145181D02*
X10466666Y48430896D01*
X10466666Y48430896D02*
X10419047Y48288039D01*
X10419047Y48288039D02*
X10323809Y48192800D01*
X10323809Y48192800D02*
X10180952Y48145181D01*
X10180952Y48145181D02*
X10085714Y48145181D01*
X11466666Y48145181D02*
X10895238Y48145181D01*
X11180952Y48145181D02*
X11180952Y49145181D01*
X11180952Y49145181D02*
X11085714Y49002324D01*
X11085714Y49002324D02*
X10990476Y48907086D01*
X10990476Y48907086D02*
X10895238Y48859467D01*
X14466666Y17745181D02*
X14466666Y17030896D01*
X14466666Y17030896D02*
X14419047Y16888039D01*
X14419047Y16888039D02*
X14323809Y16792800D01*
X14323809Y16792800D02*
X14180952Y16745181D01*
X14180952Y16745181D02*
X14085714Y16745181D01*
X14895238Y17649943D02*
X14942857Y17697562D01*
X14942857Y17697562D02*
X15038095Y17745181D01*
X15038095Y17745181D02*
X15276190Y17745181D01*
X15276190Y17745181D02*
X15371428Y17697562D01*
X15371428Y17697562D02*
X15419047Y17649943D01*
X15419047Y17649943D02*
X15466666Y17554705D01*
X15466666Y17554705D02*
X15466666Y17459467D01*
X15466666Y17459467D02*
X15419047Y17316610D01*
X15419047Y17316610D02*
X14847619Y16745181D01*
X14847619Y16745181D02*
X15466666Y16745181D01*
X75454819Y46666667D02*
X76169104Y46666667D01*
X76169104Y46666667D02*
X76311961Y46619048D01*
X76311961Y46619048D02*
X76407200Y46523810D01*
X76407200Y46523810D02*
X76454819Y46380953D01*
X76454819Y46380953D02*
X76454819Y46285715D01*
X75454819Y47047620D02*
X75454819Y47666667D01*
X75454819Y47666667D02*
X75835771Y47333334D01*
X75835771Y47333334D02*
X75835771Y47476191D01*
X75835771Y47476191D02*
X75883390Y47571429D01*
X75883390Y47571429D02*
X75931009Y47619048D01*
X75931009Y47619048D02*
X76026247Y47666667D01*
X76026247Y47666667D02*
X76264342Y47666667D01*
X76264342Y47666667D02*
X76359580Y47619048D01*
X76359580Y47619048D02*
X76407200Y47571429D01*
X76407200Y47571429D02*
X76454819Y47476191D01*
X76454819Y47476191D02*
X76454819Y47190477D01*
X76454819Y47190477D02*
X76407200Y47095239D01*
X76407200Y47095239D02*
X76359580Y47047620D01*
X15350057Y25904762D02*
X15302438Y25809524D01*
X15302438Y25809524D02*
X15207200Y25714286D01*
X15207200Y25714286D02*
X15064342Y25571429D01*
X15064342Y25571429D02*
X15016723Y25476191D01*
X15016723Y25476191D02*
X15016723Y25380953D01*
X15254819Y25428572D02*
X15207200Y25333334D01*
X15207200Y25333334D02*
X15111961Y25238096D01*
X15111961Y25238096D02*
X14921485Y25190477D01*
X14921485Y25190477D02*
X14588152Y25190477D01*
X14588152Y25190477D02*
X14397676Y25238096D01*
X14397676Y25238096D02*
X14302438Y25333334D01*
X14302438Y25333334D02*
X14254819Y25428572D01*
X14254819Y25428572D02*
X14254819Y25619048D01*
X14254819Y25619048D02*
X14302438Y25714286D01*
X14302438Y25714286D02*
X14397676Y25809524D01*
X14397676Y25809524D02*
X14588152Y25857143D01*
X14588152Y25857143D02*
X14921485Y25857143D01*
X14921485Y25857143D02*
X15111961Y25809524D01*
X15111961Y25809524D02*
X15207200Y25714286D01*
X15207200Y25714286D02*
X15254819Y25619048D01*
X15254819Y25619048D02*
X15254819Y25428572D01*
X15254819Y26809524D02*
X15254819Y26238096D01*
X15254819Y26523810D02*
X14254819Y26523810D01*
X14254819Y26523810D02*
X14397676Y26428572D01*
X14397676Y26428572D02*
X14492914Y26333334D01*
X14492914Y26333334D02*
X14540533Y26238096D01*
X29550057Y20504762D02*
X29502438Y20409524D01*
X29502438Y20409524D02*
X29407200Y20314286D01*
X29407200Y20314286D02*
X29264342Y20171429D01*
X29264342Y20171429D02*
X29216723Y20076191D01*
X29216723Y20076191D02*
X29216723Y19980953D01*
X29454819Y20028572D02*
X29407200Y19933334D01*
X29407200Y19933334D02*
X29311961Y19838096D01*
X29311961Y19838096D02*
X29121485Y19790477D01*
X29121485Y19790477D02*
X28788152Y19790477D01*
X28788152Y19790477D02*
X28597676Y19838096D01*
X28597676Y19838096D02*
X28502438Y19933334D01*
X28502438Y19933334D02*
X28454819Y20028572D01*
X28454819Y20028572D02*
X28454819Y20219048D01*
X28454819Y20219048D02*
X28502438Y20314286D01*
X28502438Y20314286D02*
X28597676Y20409524D01*
X28597676Y20409524D02*
X28788152Y20457143D01*
X28788152Y20457143D02*
X29121485Y20457143D01*
X29121485Y20457143D02*
X29311961Y20409524D01*
X29311961Y20409524D02*
X29407200Y20314286D01*
X29407200Y20314286D02*
X29454819Y20219048D01*
X29454819Y20219048D02*
X29454819Y20028572D01*
X28454819Y20790477D02*
X28454819Y21409524D01*
X28454819Y21409524D02*
X28835771Y21076191D01*
X28835771Y21076191D02*
X28835771Y21219048D01*
X28835771Y21219048D02*
X28883390Y21314286D01*
X28883390Y21314286D02*
X28931009Y21361905D01*
X28931009Y21361905D02*
X29026247Y21409524D01*
X29026247Y21409524D02*
X29264342Y21409524D01*
X29264342Y21409524D02*
X29359580Y21361905D01*
X29359580Y21361905D02*
X29407200Y21314286D01*
X29407200Y21314286D02*
X29454819Y21219048D01*
X29454819Y21219048D02*
X29454819Y20933334D01*
X29454819Y20933334D02*
X29407200Y20838096D01*
X29407200Y20838096D02*
X29359580Y20790477D01*
X48950057Y42104762D02*
X48902438Y42009524D01*
X48902438Y42009524D02*
X48807200Y41914286D01*
X48807200Y41914286D02*
X48664342Y41771429D01*
X48664342Y41771429D02*
X48616723Y41676191D01*
X48616723Y41676191D02*
X48616723Y41580953D01*
X48854819Y41628572D02*
X48807200Y41533334D01*
X48807200Y41533334D02*
X48711961Y41438096D01*
X48711961Y41438096D02*
X48521485Y41390477D01*
X48521485Y41390477D02*
X48188152Y41390477D01*
X48188152Y41390477D02*
X47997676Y41438096D01*
X47997676Y41438096D02*
X47902438Y41533334D01*
X47902438Y41533334D02*
X47854819Y41628572D01*
X47854819Y41628572D02*
X47854819Y41819048D01*
X47854819Y41819048D02*
X47902438Y41914286D01*
X47902438Y41914286D02*
X47997676Y42009524D01*
X47997676Y42009524D02*
X48188152Y42057143D01*
X48188152Y42057143D02*
X48521485Y42057143D01*
X48521485Y42057143D02*
X48711961Y42009524D01*
X48711961Y42009524D02*
X48807200Y41914286D01*
X48807200Y41914286D02*
X48854819Y41819048D01*
X48854819Y41819048D02*
X48854819Y41628572D01*
X47854819Y42961905D02*
X47854819Y42485715D01*
X47854819Y42485715D02*
X48331009Y42438096D01*
X48331009Y42438096D02*
X48283390Y42485715D01*
X48283390Y42485715D02*
X48235771Y42580953D01*
X48235771Y42580953D02*
X48235771Y42819048D01*
X48235771Y42819048D02*
X48283390Y42914286D01*
X48283390Y42914286D02*
X48331009Y42961905D01*
X48331009Y42961905D02*
X48426247Y43009524D01*
X48426247Y43009524D02*
X48664342Y43009524D01*
X48664342Y43009524D02*
X48759580Y42961905D01*
X48759580Y42961905D02*
X48807200Y42914286D01*
X48807200Y42914286D02*
X48854819Y42819048D01*
X48854819Y42819048D02*
X48854819Y42580953D01*
X48854819Y42580953D02*
X48807200Y42485715D01*
X48807200Y42485715D02*
X48759580Y42438096D01*
X51680057Y49444762D02*
X51632438Y49349524D01*
X51632438Y49349524D02*
X51537200Y49254286D01*
X51537200Y49254286D02*
X51394342Y49111429D01*
X51394342Y49111429D02*
X51346723Y49016191D01*
X51346723Y49016191D02*
X51346723Y48920953D01*
X51584819Y48968572D02*
X51537200Y48873334D01*
X51537200Y48873334D02*
X51441961Y48778096D01*
X51441961Y48778096D02*
X51251485Y48730477D01*
X51251485Y48730477D02*
X50918152Y48730477D01*
X50918152Y48730477D02*
X50727676Y48778096D01*
X50727676Y48778096D02*
X50632438Y48873334D01*
X50632438Y48873334D02*
X50584819Y48968572D01*
X50584819Y48968572D02*
X50584819Y49159048D01*
X50584819Y49159048D02*
X50632438Y49254286D01*
X50632438Y49254286D02*
X50727676Y49349524D01*
X50727676Y49349524D02*
X50918152Y49397143D01*
X50918152Y49397143D02*
X51251485Y49397143D01*
X51251485Y49397143D02*
X51441961Y49349524D01*
X51441961Y49349524D02*
X51537200Y49254286D01*
X51537200Y49254286D02*
X51584819Y49159048D01*
X51584819Y49159048D02*
X51584819Y48968572D01*
X50584819Y50254286D02*
X50584819Y50063810D01*
X50584819Y50063810D02*
X50632438Y49968572D01*
X50632438Y49968572D02*
X50680057Y49920953D01*
X50680057Y49920953D02*
X50822914Y49825715D01*
X50822914Y49825715D02*
X51013390Y49778096D01*
X51013390Y49778096D02*
X51394342Y49778096D01*
X51394342Y49778096D02*
X51489580Y49825715D01*
X51489580Y49825715D02*
X51537200Y49873334D01*
X51537200Y49873334D02*
X51584819Y49968572D01*
X51584819Y49968572D02*
X51584819Y50159048D01*
X51584819Y50159048D02*
X51537200Y50254286D01*
X51537200Y50254286D02*
X51489580Y50301905D01*
X51489580Y50301905D02*
X51394342Y50349524D01*
X51394342Y50349524D02*
X51156247Y50349524D01*
X51156247Y50349524D02*
X51061009Y50301905D01*
X51061009Y50301905D02*
X51013390Y50254286D01*
X51013390Y50254286D02*
X50965771Y50159048D01*
X50965771Y50159048D02*
X50965771Y49968572D01*
X50965771Y49968572D02*
X51013390Y49873334D01*
X51013390Y49873334D02*
X51061009Y49825715D01*
X51061009Y49825715D02*
X51156247Y49778096D01*
X51880057Y17244762D02*
X51832438Y17149524D01*
X51832438Y17149524D02*
X51737200Y17054286D01*
X51737200Y17054286D02*
X51594342Y16911429D01*
X51594342Y16911429D02*
X51546723Y16816191D01*
X51546723Y16816191D02*
X51546723Y16720953D01*
X51784819Y16768572D02*
X51737200Y16673334D01*
X51737200Y16673334D02*
X51641961Y16578096D01*
X51641961Y16578096D02*
X51451485Y16530477D01*
X51451485Y16530477D02*
X51118152Y16530477D01*
X51118152Y16530477D02*
X50927676Y16578096D01*
X50927676Y16578096D02*
X50832438Y16673334D01*
X50832438Y16673334D02*
X50784819Y16768572D01*
X50784819Y16768572D02*
X50784819Y16959048D01*
X50784819Y16959048D02*
X50832438Y17054286D01*
X50832438Y17054286D02*
X50927676Y17149524D01*
X50927676Y17149524D02*
X51118152Y17197143D01*
X51118152Y17197143D02*
X51451485Y17197143D01*
X51451485Y17197143D02*
X51641961Y17149524D01*
X51641961Y17149524D02*
X51737200Y17054286D01*
X51737200Y17054286D02*
X51784819Y16959048D01*
X51784819Y16959048D02*
X51784819Y16768572D01*
X50784819Y17530477D02*
X50784819Y18197143D01*
X50784819Y18197143D02*
X51784819Y17768572D01*
X74304761Y51849943D02*
X74209523Y51897562D01*
X74209523Y51897562D02*
X74114285Y51992800D01*
X74114285Y51992800D02*
X73971428Y52135658D01*
X73971428Y52135658D02*
X73876190Y52183277D01*
X73876190Y52183277D02*
X73780952Y52183277D01*
X73828571Y51945181D02*
X73733333Y51992800D01*
X73733333Y51992800D02*
X73638095Y52088039D01*
X73638095Y52088039D02*
X73590476Y52278515D01*
X73590476Y52278515D02*
X73590476Y52611848D01*
X73590476Y52611848D02*
X73638095Y52802324D01*
X73638095Y52802324D02*
X73733333Y52897562D01*
X73733333Y52897562D02*
X73828571Y52945181D01*
X73828571Y52945181D02*
X74019047Y52945181D01*
X74019047Y52945181D02*
X74114285Y52897562D01*
X74114285Y52897562D02*
X74209523Y52802324D01*
X74209523Y52802324D02*
X74257142Y52611848D01*
X74257142Y52611848D02*
X74257142Y52278515D01*
X74257142Y52278515D02*
X74209523Y52088039D01*
X74209523Y52088039D02*
X74114285Y51992800D01*
X74114285Y51992800D02*
X74019047Y51945181D01*
X74019047Y51945181D02*
X73828571Y51945181D01*
X74828571Y52516610D02*
X74733333Y52564229D01*
X74733333Y52564229D02*
X74685714Y52611848D01*
X74685714Y52611848D02*
X74638095Y52707086D01*
X74638095Y52707086D02*
X74638095Y52754705D01*
X74638095Y52754705D02*
X74685714Y52849943D01*
X74685714Y52849943D02*
X74733333Y52897562D01*
X74733333Y52897562D02*
X74828571Y52945181D01*
X74828571Y52945181D02*
X75019047Y52945181D01*
X75019047Y52945181D02*
X75114285Y52897562D01*
X75114285Y52897562D02*
X75161904Y52849943D01*
X75161904Y52849943D02*
X75209523Y52754705D01*
X75209523Y52754705D02*
X75209523Y52707086D01*
X75209523Y52707086D02*
X75161904Y52611848D01*
X75161904Y52611848D02*
X75114285Y52564229D01*
X75114285Y52564229D02*
X75019047Y52516610D01*
X75019047Y52516610D02*
X74828571Y52516610D01*
X74828571Y52516610D02*
X74733333Y52468991D01*
X74733333Y52468991D02*
X74685714Y52421372D01*
X74685714Y52421372D02*
X74638095Y52326134D01*
X74638095Y52326134D02*
X74638095Y52135658D01*
X74638095Y52135658D02*
X74685714Y52040420D01*
X74685714Y52040420D02*
X74733333Y51992800D01*
X74733333Y51992800D02*
X74828571Y51945181D01*
X74828571Y51945181D02*
X75019047Y51945181D01*
X75019047Y51945181D02*
X75114285Y51992800D01*
X75114285Y51992800D02*
X75161904Y52040420D01*
X75161904Y52040420D02*
X75209523Y52135658D01*
X75209523Y52135658D02*
X75209523Y52326134D01*
X75209523Y52326134D02*
X75161904Y52421372D01*
X75161904Y52421372D02*
X75114285Y52468991D01*
X75114285Y52468991D02*
X75019047Y52516610D01*
X74504761Y12649943D02*
X74409523Y12697562D01*
X74409523Y12697562D02*
X74314285Y12792800D01*
X74314285Y12792800D02*
X74171428Y12935658D01*
X74171428Y12935658D02*
X74076190Y12983277D01*
X74076190Y12983277D02*
X73980952Y12983277D01*
X74028571Y12745181D02*
X73933333Y12792800D01*
X73933333Y12792800D02*
X73838095Y12888039D01*
X73838095Y12888039D02*
X73790476Y13078515D01*
X73790476Y13078515D02*
X73790476Y13411848D01*
X73790476Y13411848D02*
X73838095Y13602324D01*
X73838095Y13602324D02*
X73933333Y13697562D01*
X73933333Y13697562D02*
X74028571Y13745181D01*
X74028571Y13745181D02*
X74219047Y13745181D01*
X74219047Y13745181D02*
X74314285Y13697562D01*
X74314285Y13697562D02*
X74409523Y13602324D01*
X74409523Y13602324D02*
X74457142Y13411848D01*
X74457142Y13411848D02*
X74457142Y13078515D01*
X74457142Y13078515D02*
X74409523Y12888039D01*
X74409523Y12888039D02*
X74314285Y12792800D01*
X74314285Y12792800D02*
X74219047Y12745181D01*
X74219047Y12745181D02*
X74028571Y12745181D01*
X74933333Y12745181D02*
X75123809Y12745181D01*
X75123809Y12745181D02*
X75219047Y12792800D01*
X75219047Y12792800D02*
X75266666Y12840420D01*
X75266666Y12840420D02*
X75361904Y12983277D01*
X75361904Y12983277D02*
X75409523Y13173753D01*
X75409523Y13173753D02*
X75409523Y13554705D01*
X75409523Y13554705D02*
X75361904Y13649943D01*
X75361904Y13649943D02*
X75314285Y13697562D01*
X75314285Y13697562D02*
X75219047Y13745181D01*
X75219047Y13745181D02*
X75028571Y13745181D01*
X75028571Y13745181D02*
X74933333Y13697562D01*
X74933333Y13697562D02*
X74885714Y13649943D01*
X74885714Y13649943D02*
X74838095Y13554705D01*
X74838095Y13554705D02*
X74838095Y13316610D01*
X74838095Y13316610D02*
X74885714Y13221372D01*
X74885714Y13221372D02*
X74933333Y13173753D01*
X74933333Y13173753D02*
X75028571Y13126134D01*
X75028571Y13126134D02*
X75219047Y13126134D01*
X75219047Y13126134D02*
X75314285Y13173753D01*
X75314285Y13173753D02*
X75361904Y13221372D01*
X75361904Y13221372D02*
X75409523Y13316610D01*
X20224819Y21423334D02*
X19748628Y21090001D01*
X20224819Y20851906D02*
X19224819Y20851906D01*
X19224819Y20851906D02*
X19224819Y21232858D01*
X19224819Y21232858D02*
X19272438Y21328096D01*
X19272438Y21328096D02*
X19320057Y21375715D01*
X19320057Y21375715D02*
X19415295Y21423334D01*
X19415295Y21423334D02*
X19558152Y21423334D01*
X19558152Y21423334D02*
X19653390Y21375715D01*
X19653390Y21375715D02*
X19701009Y21328096D01*
X19701009Y21328096D02*
X19748628Y21232858D01*
X19748628Y21232858D02*
X19748628Y20851906D01*
X19320057Y21804287D02*
X19272438Y21851906D01*
X19272438Y21851906D02*
X19224819Y21947144D01*
X19224819Y21947144D02*
X19224819Y22185239D01*
X19224819Y22185239D02*
X19272438Y22280477D01*
X19272438Y22280477D02*
X19320057Y22328096D01*
X19320057Y22328096D02*
X19415295Y22375715D01*
X19415295Y22375715D02*
X19510533Y22375715D01*
X19510533Y22375715D02*
X19653390Y22328096D01*
X19653390Y22328096D02*
X20224819Y21756668D01*
X20224819Y21756668D02*
X20224819Y22375715D01*
X15054819Y51233334D02*
X14578628Y50900001D01*
X15054819Y50661906D02*
X14054819Y50661906D01*
X14054819Y50661906D02*
X14054819Y51042858D01*
X14054819Y51042858D02*
X14102438Y51138096D01*
X14102438Y51138096D02*
X14150057Y51185715D01*
X14150057Y51185715D02*
X14245295Y51233334D01*
X14245295Y51233334D02*
X14388152Y51233334D01*
X14388152Y51233334D02*
X14483390Y51185715D01*
X14483390Y51185715D02*
X14531009Y51138096D01*
X14531009Y51138096D02*
X14578628Y51042858D01*
X14578628Y51042858D02*
X14578628Y50661906D01*
X14054819Y51566668D02*
X14054819Y52185715D01*
X14054819Y52185715D02*
X14435771Y51852382D01*
X14435771Y51852382D02*
X14435771Y51995239D01*
X14435771Y51995239D02*
X14483390Y52090477D01*
X14483390Y52090477D02*
X14531009Y52138096D01*
X14531009Y52138096D02*
X14626247Y52185715D01*
X14626247Y52185715D02*
X14864342Y52185715D01*
X14864342Y52185715D02*
X14959580Y52138096D01*
X14959580Y52138096D02*
X15007200Y52090477D01*
X15007200Y52090477D02*
X15054819Y51995239D01*
X15054819Y51995239D02*
X15054819Y51709525D01*
X15054819Y51709525D02*
X15007200Y51614287D01*
X15007200Y51614287D02*
X14959580Y51566668D01*
X25833333Y34145181D02*
X25500000Y34621372D01*
X25261905Y34145181D02*
X25261905Y35145181D01*
X25261905Y35145181D02*
X25642857Y35145181D01*
X25642857Y35145181D02*
X25738095Y35097562D01*
X25738095Y35097562D02*
X25785714Y35049943D01*
X25785714Y35049943D02*
X25833333Y34954705D01*
X25833333Y34954705D02*
X25833333Y34811848D01*
X25833333Y34811848D02*
X25785714Y34716610D01*
X25785714Y34716610D02*
X25738095Y34668991D01*
X25738095Y34668991D02*
X25642857Y34621372D01*
X25642857Y34621372D02*
X25261905Y34621372D01*
X26690476Y34811848D02*
X26690476Y34145181D01*
X26452381Y35192800D02*
X26214286Y34478515D01*
X26214286Y34478515D02*
X26833333Y34478515D01*
X25054819Y25033334D02*
X24578628Y24700001D01*
X25054819Y24461906D02*
X24054819Y24461906D01*
X24054819Y24461906D02*
X24054819Y24842858D01*
X24054819Y24842858D02*
X24102438Y24938096D01*
X24102438Y24938096D02*
X24150057Y24985715D01*
X24150057Y24985715D02*
X24245295Y25033334D01*
X24245295Y25033334D02*
X24388152Y25033334D01*
X24388152Y25033334D02*
X24483390Y24985715D01*
X24483390Y24985715D02*
X24531009Y24938096D01*
X24531009Y24938096D02*
X24578628Y24842858D01*
X24578628Y24842858D02*
X24578628Y24461906D01*
X24054819Y25938096D02*
X24054819Y25461906D01*
X24054819Y25461906D02*
X24531009Y25414287D01*
X24531009Y25414287D02*
X24483390Y25461906D01*
X24483390Y25461906D02*
X24435771Y25557144D01*
X24435771Y25557144D02*
X24435771Y25795239D01*
X24435771Y25795239D02*
X24483390Y25890477D01*
X24483390Y25890477D02*
X24531009Y25938096D01*
X24531009Y25938096D02*
X24626247Y25985715D01*
X24626247Y25985715D02*
X24864342Y25985715D01*
X24864342Y25985715D02*
X24959580Y25938096D01*
X24959580Y25938096D02*
X25007200Y25890477D01*
X25007200Y25890477D02*
X25054819Y25795239D01*
X25054819Y25795239D02*
X25054819Y25557144D01*
X25054819Y25557144D02*
X25007200Y25461906D01*
X25007200Y25461906D02*
X24959580Y25414287D01*
X27833333Y32345181D02*
X27500000Y32821372D01*
X27261905Y32345181D02*
X27261905Y33345181D01*
X27261905Y33345181D02*
X27642857Y33345181D01*
X27642857Y33345181D02*
X27738095Y33297562D01*
X27738095Y33297562D02*
X27785714Y33249943D01*
X27785714Y33249943D02*
X27833333Y33154705D01*
X27833333Y33154705D02*
X27833333Y33011848D01*
X27833333Y33011848D02*
X27785714Y32916610D01*
X27785714Y32916610D02*
X27738095Y32868991D01*
X27738095Y32868991D02*
X27642857Y32821372D01*
X27642857Y32821372D02*
X27261905Y32821372D01*
X28690476Y33345181D02*
X28500000Y33345181D01*
X28500000Y33345181D02*
X28404762Y33297562D01*
X28404762Y33297562D02*
X28357143Y33249943D01*
X28357143Y33249943D02*
X28261905Y33107086D01*
X28261905Y33107086D02*
X28214286Y32916610D01*
X28214286Y32916610D02*
X28214286Y32535658D01*
X28214286Y32535658D02*
X28261905Y32440420D01*
X28261905Y32440420D02*
X28309524Y32392800D01*
X28309524Y32392800D02*
X28404762Y32345181D01*
X28404762Y32345181D02*
X28595238Y32345181D01*
X28595238Y32345181D02*
X28690476Y32392800D01*
X28690476Y32392800D02*
X28738095Y32440420D01*
X28738095Y32440420D02*
X28785714Y32535658D01*
X28785714Y32535658D02*
X28785714Y32773753D01*
X28785714Y32773753D02*
X28738095Y32868991D01*
X28738095Y32868991D02*
X28690476Y32916610D01*
X28690476Y32916610D02*
X28595238Y32964229D01*
X28595238Y32964229D02*
X28404762Y32964229D01*
X28404762Y32964229D02*
X28309524Y32916610D01*
X28309524Y32916610D02*
X28261905Y32868991D01*
X28261905Y32868991D02*
X28214286Y32773753D01*
X26633333Y43145181D02*
X26300000Y43621372D01*
X26061905Y43145181D02*
X26061905Y44145181D01*
X26061905Y44145181D02*
X26442857Y44145181D01*
X26442857Y44145181D02*
X26538095Y44097562D01*
X26538095Y44097562D02*
X26585714Y44049943D01*
X26585714Y44049943D02*
X26633333Y43954705D01*
X26633333Y43954705D02*
X26633333Y43811848D01*
X26633333Y43811848D02*
X26585714Y43716610D01*
X26585714Y43716610D02*
X26538095Y43668991D01*
X26538095Y43668991D02*
X26442857Y43621372D01*
X26442857Y43621372D02*
X26061905Y43621372D01*
X27204762Y43716610D02*
X27109524Y43764229D01*
X27109524Y43764229D02*
X27061905Y43811848D01*
X27061905Y43811848D02*
X27014286Y43907086D01*
X27014286Y43907086D02*
X27014286Y43954705D01*
X27014286Y43954705D02*
X27061905Y44049943D01*
X27061905Y44049943D02*
X27109524Y44097562D01*
X27109524Y44097562D02*
X27204762Y44145181D01*
X27204762Y44145181D02*
X27395238Y44145181D01*
X27395238Y44145181D02*
X27490476Y44097562D01*
X27490476Y44097562D02*
X27538095Y44049943D01*
X27538095Y44049943D02*
X27585714Y43954705D01*
X27585714Y43954705D02*
X27585714Y43907086D01*
X27585714Y43907086D02*
X27538095Y43811848D01*
X27538095Y43811848D02*
X27490476Y43764229D01*
X27490476Y43764229D02*
X27395238Y43716610D01*
X27395238Y43716610D02*
X27204762Y43716610D01*
X27204762Y43716610D02*
X27109524Y43668991D01*
X27109524Y43668991D02*
X27061905Y43621372D01*
X27061905Y43621372D02*
X27014286Y43526134D01*
X27014286Y43526134D02*
X27014286Y43335658D01*
X27014286Y43335658D02*
X27061905Y43240420D01*
X27061905Y43240420D02*
X27109524Y43192800D01*
X27109524Y43192800D02*
X27204762Y43145181D01*
X27204762Y43145181D02*
X27395238Y43145181D01*
X27395238Y43145181D02*
X27490476Y43192800D01*
X27490476Y43192800D02*
X27538095Y43240420D01*
X27538095Y43240420D02*
X27585714Y43335658D01*
X27585714Y43335658D02*
X27585714Y43526134D01*
X27585714Y43526134D02*
X27538095Y43621372D01*
X27538095Y43621372D02*
X27490476Y43668991D01*
X27490476Y43668991D02*
X27395238Y43716610D01*
X38654819Y28833334D02*
X38178628Y28500001D01*
X38654819Y28261906D02*
X37654819Y28261906D01*
X37654819Y28261906D02*
X37654819Y28642858D01*
X37654819Y28642858D02*
X37702438Y28738096D01*
X37702438Y28738096D02*
X37750057Y28785715D01*
X37750057Y28785715D02*
X37845295Y28833334D01*
X37845295Y28833334D02*
X37988152Y28833334D01*
X37988152Y28833334D02*
X38083390Y28785715D01*
X38083390Y28785715D02*
X38131009Y28738096D01*
X38131009Y28738096D02*
X38178628Y28642858D01*
X38178628Y28642858D02*
X38178628Y28261906D01*
X38654819Y29309525D02*
X38654819Y29500001D01*
X38654819Y29500001D02*
X38607200Y29595239D01*
X38607200Y29595239D02*
X38559580Y29642858D01*
X38559580Y29642858D02*
X38416723Y29738096D01*
X38416723Y29738096D02*
X38226247Y29785715D01*
X38226247Y29785715D02*
X37845295Y29785715D01*
X37845295Y29785715D02*
X37750057Y29738096D01*
X37750057Y29738096D02*
X37702438Y29690477D01*
X37702438Y29690477D02*
X37654819Y29595239D01*
X37654819Y29595239D02*
X37654819Y29404763D01*
X37654819Y29404763D02*
X37702438Y29309525D01*
X37702438Y29309525D02*
X37750057Y29261906D01*
X37750057Y29261906D02*
X37845295Y29214287D01*
X37845295Y29214287D02*
X38083390Y29214287D01*
X38083390Y29214287D02*
X38178628Y29261906D01*
X38178628Y29261906D02*
X38226247Y29309525D01*
X38226247Y29309525D02*
X38273866Y29404763D01*
X38273866Y29404763D02*
X38273866Y29595239D01*
X38273866Y29595239D02*
X38226247Y29690477D01*
X38226247Y29690477D02*
X38178628Y29738096D01*
X38178628Y29738096D02*
X38083390Y29785715D01*
X26454819Y9957143D02*
X25978628Y9623810D01*
X26454819Y9385715D02*
X25454819Y9385715D01*
X25454819Y9385715D02*
X25454819Y9766667D01*
X25454819Y9766667D02*
X25502438Y9861905D01*
X25502438Y9861905D02*
X25550057Y9909524D01*
X25550057Y9909524D02*
X25645295Y9957143D01*
X25645295Y9957143D02*
X25788152Y9957143D01*
X25788152Y9957143D02*
X25883390Y9909524D01*
X25883390Y9909524D02*
X25931009Y9861905D01*
X25931009Y9861905D02*
X25978628Y9766667D01*
X25978628Y9766667D02*
X25978628Y9385715D01*
X26454819Y10909524D02*
X26454819Y10338096D01*
X26454819Y10623810D02*
X25454819Y10623810D01*
X25454819Y10623810D02*
X25597676Y10528572D01*
X25597676Y10528572D02*
X25692914Y10433334D01*
X25692914Y10433334D02*
X25740533Y10338096D01*
X25454819Y11528572D02*
X25454819Y11623810D01*
X25454819Y11623810D02*
X25502438Y11719048D01*
X25502438Y11719048D02*
X25550057Y11766667D01*
X25550057Y11766667D02*
X25645295Y11814286D01*
X25645295Y11814286D02*
X25835771Y11861905D01*
X25835771Y11861905D02*
X26073866Y11861905D01*
X26073866Y11861905D02*
X26264342Y11814286D01*
X26264342Y11814286D02*
X26359580Y11766667D01*
X26359580Y11766667D02*
X26407200Y11719048D01*
X26407200Y11719048D02*
X26454819Y11623810D01*
X26454819Y11623810D02*
X26454819Y11528572D01*
X26454819Y11528572D02*
X26407200Y11433334D01*
X26407200Y11433334D02*
X26359580Y11385715D01*
X26359580Y11385715D02*
X26264342Y11338096D01*
X26264342Y11338096D02*
X26073866Y11290477D01*
X26073866Y11290477D02*
X25835771Y11290477D01*
X25835771Y11290477D02*
X25645295Y11338096D01*
X25645295Y11338096D02*
X25550057Y11385715D01*
X25550057Y11385715D02*
X25502438Y11433334D01*
X25502438Y11433334D02*
X25454819Y11528572D01*
X39157142Y46745181D02*
X38823809Y47221372D01*
X38585714Y46745181D02*
X38585714Y47745181D01*
X38585714Y47745181D02*
X38966666Y47745181D01*
X38966666Y47745181D02*
X39061904Y47697562D01*
X39061904Y47697562D02*
X39109523Y47649943D01*
X39109523Y47649943D02*
X39157142Y47554705D01*
X39157142Y47554705D02*
X39157142Y47411848D01*
X39157142Y47411848D02*
X39109523Y47316610D01*
X39109523Y47316610D02*
X39061904Y47268991D01*
X39061904Y47268991D02*
X38966666Y47221372D01*
X38966666Y47221372D02*
X38585714Y47221372D01*
X40109523Y46745181D02*
X39538095Y46745181D01*
X39823809Y46745181D02*
X39823809Y47745181D01*
X39823809Y47745181D02*
X39728571Y47602324D01*
X39728571Y47602324D02*
X39633333Y47507086D01*
X39633333Y47507086D02*
X39538095Y47459467D01*
X41061904Y46745181D02*
X40490476Y46745181D01*
X40776190Y46745181D02*
X40776190Y47745181D01*
X40776190Y47745181D02*
X40680952Y47602324D01*
X40680952Y47602324D02*
X40585714Y47507086D01*
X40585714Y47507086D02*
X40490476Y47459467D01*
X57634819Y26357143D02*
X57158628Y26023810D01*
X57634819Y25785715D02*
X56634819Y25785715D01*
X56634819Y25785715D02*
X56634819Y26166667D01*
X56634819Y26166667D02*
X56682438Y26261905D01*
X56682438Y26261905D02*
X56730057Y26309524D01*
X56730057Y26309524D02*
X56825295Y26357143D01*
X56825295Y26357143D02*
X56968152Y26357143D01*
X56968152Y26357143D02*
X57063390Y26309524D01*
X57063390Y26309524D02*
X57111009Y26261905D01*
X57111009Y26261905D02*
X57158628Y26166667D01*
X57158628Y26166667D02*
X57158628Y25785715D01*
X57634819Y27309524D02*
X57634819Y26738096D01*
X57634819Y27023810D02*
X56634819Y27023810D01*
X56634819Y27023810D02*
X56777676Y26928572D01*
X56777676Y26928572D02*
X56872914Y26833334D01*
X56872914Y26833334D02*
X56920533Y26738096D01*
X56968152Y28166667D02*
X57634819Y28166667D01*
X56587200Y27928572D02*
X57301485Y27690477D01*
X57301485Y27690477D02*
X57301485Y28309524D01*
X66854819Y43157143D02*
X66378628Y42823810D01*
X66854819Y42585715D02*
X65854819Y42585715D01*
X65854819Y42585715D02*
X65854819Y42966667D01*
X65854819Y42966667D02*
X65902438Y43061905D01*
X65902438Y43061905D02*
X65950057Y43109524D01*
X65950057Y43109524D02*
X66045295Y43157143D01*
X66045295Y43157143D02*
X66188152Y43157143D01*
X66188152Y43157143D02*
X66283390Y43109524D01*
X66283390Y43109524D02*
X66331009Y43061905D01*
X66331009Y43061905D02*
X66378628Y42966667D01*
X66378628Y42966667D02*
X66378628Y42585715D01*
X66854819Y44109524D02*
X66854819Y43538096D01*
X66854819Y43823810D02*
X65854819Y43823810D01*
X65854819Y43823810D02*
X65997676Y43728572D01*
X65997676Y43728572D02*
X66092914Y43633334D01*
X66092914Y43633334D02*
X66140533Y43538096D01*
X65854819Y45014286D02*
X65854819Y44538096D01*
X65854819Y44538096D02*
X66331009Y44490477D01*
X66331009Y44490477D02*
X66283390Y44538096D01*
X66283390Y44538096D02*
X66235771Y44633334D01*
X66235771Y44633334D02*
X66235771Y44871429D01*
X66235771Y44871429D02*
X66283390Y44966667D01*
X66283390Y44966667D02*
X66331009Y45014286D01*
X66331009Y45014286D02*
X66426247Y45061905D01*
X66426247Y45061905D02*
X66664342Y45061905D01*
X66664342Y45061905D02*
X66759580Y45014286D01*
X66759580Y45014286D02*
X66807200Y44966667D01*
X66807200Y44966667D02*
X66854819Y44871429D01*
X66854819Y44871429D02*
X66854819Y44633334D01*
X66854819Y44633334D02*
X66807200Y44538096D01*
X66807200Y44538096D02*
X66759580Y44490477D01*
X65054819Y49157143D02*
X64578628Y48823810D01*
X65054819Y48585715D02*
X64054819Y48585715D01*
X64054819Y48585715D02*
X64054819Y48966667D01*
X64054819Y48966667D02*
X64102438Y49061905D01*
X64102438Y49061905D02*
X64150057Y49109524D01*
X64150057Y49109524D02*
X64245295Y49157143D01*
X64245295Y49157143D02*
X64388152Y49157143D01*
X64388152Y49157143D02*
X64483390Y49109524D01*
X64483390Y49109524D02*
X64531009Y49061905D01*
X64531009Y49061905D02*
X64578628Y48966667D01*
X64578628Y48966667D02*
X64578628Y48585715D01*
X65054819Y50109524D02*
X65054819Y49538096D01*
X65054819Y49823810D02*
X64054819Y49823810D01*
X64054819Y49823810D02*
X64197676Y49728572D01*
X64197676Y49728572D02*
X64292914Y49633334D01*
X64292914Y49633334D02*
X64340533Y49538096D01*
X64054819Y50442858D02*
X64054819Y51061905D01*
X64054819Y51061905D02*
X64435771Y50728572D01*
X64435771Y50728572D02*
X64435771Y50871429D01*
X64435771Y50871429D02*
X64483390Y50966667D01*
X64483390Y50966667D02*
X64531009Y51014286D01*
X64531009Y51014286D02*
X64626247Y51061905D01*
X64626247Y51061905D02*
X64864342Y51061905D01*
X64864342Y51061905D02*
X64959580Y51014286D01*
X64959580Y51014286D02*
X65007200Y50966667D01*
X65007200Y50966667D02*
X65054819Y50871429D01*
X65054819Y50871429D02*
X65054819Y50585715D01*
X65054819Y50585715D02*
X65007200Y50490477D01*
X65007200Y50490477D02*
X64959580Y50442858D01*
X20350057Y26104762D02*
X20302438Y26009524D01*
X20302438Y26009524D02*
X20207200Y25914286D01*
X20207200Y25914286D02*
X20064342Y25771429D01*
X20064342Y25771429D02*
X20016723Y25676191D01*
X20016723Y25676191D02*
X20016723Y25580953D01*
X20254819Y25628572D02*
X20207200Y25533334D01*
X20207200Y25533334D02*
X20111961Y25438096D01*
X20111961Y25438096D02*
X19921485Y25390477D01*
X19921485Y25390477D02*
X19588152Y25390477D01*
X19588152Y25390477D02*
X19397676Y25438096D01*
X19397676Y25438096D02*
X19302438Y25533334D01*
X19302438Y25533334D02*
X19254819Y25628572D01*
X19254819Y25628572D02*
X19254819Y25819048D01*
X19254819Y25819048D02*
X19302438Y25914286D01*
X19302438Y25914286D02*
X19397676Y26009524D01*
X19397676Y26009524D02*
X19588152Y26057143D01*
X19588152Y26057143D02*
X19921485Y26057143D01*
X19921485Y26057143D02*
X20111961Y26009524D01*
X20111961Y26009524D02*
X20207200Y25914286D01*
X20207200Y25914286D02*
X20254819Y25819048D01*
X20254819Y25819048D02*
X20254819Y25628572D01*
X19350057Y26438096D02*
X19302438Y26485715D01*
X19302438Y26485715D02*
X19254819Y26580953D01*
X19254819Y26580953D02*
X19254819Y26819048D01*
X19254819Y26819048D02*
X19302438Y26914286D01*
X19302438Y26914286D02*
X19350057Y26961905D01*
X19350057Y26961905D02*
X19445295Y27009524D01*
X19445295Y27009524D02*
X19540533Y27009524D01*
X19540533Y27009524D02*
X19683390Y26961905D01*
X19683390Y26961905D02*
X20254819Y26390477D01*
X20254819Y26390477D02*
X20254819Y27009524D01*
X34859580Y12333334D02*
X34907200Y12285715D01*
X34907200Y12285715D02*
X34954819Y12142858D01*
X34954819Y12142858D02*
X34954819Y12047620D01*
X34954819Y12047620D02*
X34907200Y11904763D01*
X34907200Y11904763D02*
X34811961Y11809525D01*
X34811961Y11809525D02*
X34716723Y11761906D01*
X34716723Y11761906D02*
X34526247Y11714287D01*
X34526247Y11714287D02*
X34383390Y11714287D01*
X34383390Y11714287D02*
X34192914Y11761906D01*
X34192914Y11761906D02*
X34097676Y11809525D01*
X34097676Y11809525D02*
X34002438Y11904763D01*
X34002438Y11904763D02*
X33954819Y12047620D01*
X33954819Y12047620D02*
X33954819Y12142858D01*
X33954819Y12142858D02*
X34002438Y12285715D01*
X34002438Y12285715D02*
X34050057Y12333334D01*
X33954819Y13238096D02*
X33954819Y12761906D01*
X33954819Y12761906D02*
X34431009Y12714287D01*
X34431009Y12714287D02*
X34383390Y12761906D01*
X34383390Y12761906D02*
X34335771Y12857144D01*
X34335771Y12857144D02*
X34335771Y13095239D01*
X34335771Y13095239D02*
X34383390Y13190477D01*
X34383390Y13190477D02*
X34431009Y13238096D01*
X34431009Y13238096D02*
X34526247Y13285715D01*
X34526247Y13285715D02*
X34764342Y13285715D01*
X34764342Y13285715D02*
X34859580Y13238096D01*
X34859580Y13238096D02*
X34907200Y13190477D01*
X34907200Y13190477D02*
X34954819Y13095239D01*
X34954819Y13095239D02*
X34954819Y12857144D01*
X34954819Y12857144D02*
X34907200Y12761906D01*
X34907200Y12761906D02*
X34859580Y12714287D01*
X28233333Y24545181D02*
X27900000Y25021372D01*
X27661905Y24545181D02*
X27661905Y25545181D01*
X27661905Y25545181D02*
X28042857Y25545181D01*
X28042857Y25545181D02*
X28138095Y25497562D01*
X28138095Y25497562D02*
X28185714Y25449943D01*
X28185714Y25449943D02*
X28233333Y25354705D01*
X28233333Y25354705D02*
X28233333Y25211848D01*
X28233333Y25211848D02*
X28185714Y25116610D01*
X28185714Y25116610D02*
X28138095Y25068991D01*
X28138095Y25068991D02*
X28042857Y25021372D01*
X28042857Y25021372D02*
X27661905Y25021372D01*
X28566667Y25545181D02*
X29233333Y25545181D01*
X29233333Y25545181D02*
X28804762Y24545181D01*
X29750057Y13704762D02*
X29702438Y13609524D01*
X29702438Y13609524D02*
X29607200Y13514286D01*
X29607200Y13514286D02*
X29464342Y13371429D01*
X29464342Y13371429D02*
X29416723Y13276191D01*
X29416723Y13276191D02*
X29416723Y13180953D01*
X29654819Y13228572D02*
X29607200Y13133334D01*
X29607200Y13133334D02*
X29511961Y13038096D01*
X29511961Y13038096D02*
X29321485Y12990477D01*
X29321485Y12990477D02*
X28988152Y12990477D01*
X28988152Y12990477D02*
X28797676Y13038096D01*
X28797676Y13038096D02*
X28702438Y13133334D01*
X28702438Y13133334D02*
X28654819Y13228572D01*
X28654819Y13228572D02*
X28654819Y13419048D01*
X28654819Y13419048D02*
X28702438Y13514286D01*
X28702438Y13514286D02*
X28797676Y13609524D01*
X28797676Y13609524D02*
X28988152Y13657143D01*
X28988152Y13657143D02*
X29321485Y13657143D01*
X29321485Y13657143D02*
X29511961Y13609524D01*
X29511961Y13609524D02*
X29607200Y13514286D01*
X29607200Y13514286D02*
X29654819Y13419048D01*
X29654819Y13419048D02*
X29654819Y13228572D01*
X28988152Y14514286D02*
X29654819Y14514286D01*
X28607200Y14276191D02*
X29321485Y14038096D01*
X29321485Y14038096D02*
X29321485Y14657143D01*
X75654819Y26557143D02*
X75178628Y26223810D01*
X75654819Y25985715D02*
X74654819Y25985715D01*
X74654819Y25985715D02*
X74654819Y26366667D01*
X74654819Y26366667D02*
X74702438Y26461905D01*
X74702438Y26461905D02*
X74750057Y26509524D01*
X74750057Y26509524D02*
X74845295Y26557143D01*
X74845295Y26557143D02*
X74988152Y26557143D01*
X74988152Y26557143D02*
X75083390Y26509524D01*
X75083390Y26509524D02*
X75131009Y26461905D01*
X75131009Y26461905D02*
X75178628Y26366667D01*
X75178628Y26366667D02*
X75178628Y25985715D01*
X75654819Y27509524D02*
X75654819Y26938096D01*
X75654819Y27223810D02*
X74654819Y27223810D01*
X74654819Y27223810D02*
X74797676Y27128572D01*
X74797676Y27128572D02*
X74892914Y27033334D01*
X74892914Y27033334D02*
X74940533Y26938096D01*
X74654819Y28366667D02*
X74654819Y28176191D01*
X74654819Y28176191D02*
X74702438Y28080953D01*
X74702438Y28080953D02*
X74750057Y28033334D01*
X74750057Y28033334D02*
X74892914Y27938096D01*
X74892914Y27938096D02*
X75083390Y27890477D01*
X75083390Y27890477D02*
X75464342Y27890477D01*
X75464342Y27890477D02*
X75559580Y27938096D01*
X75559580Y27938096D02*
X75607200Y27985715D01*
X75607200Y27985715D02*
X75654819Y28080953D01*
X75654819Y28080953D02*
X75654819Y28271429D01*
X75654819Y28271429D02*
X75607200Y28366667D01*
X75607200Y28366667D02*
X75559580Y28414286D01*
X75559580Y28414286D02*
X75464342Y28461905D01*
X75464342Y28461905D02*
X75226247Y28461905D01*
X75226247Y28461905D02*
X75131009Y28414286D01*
X75131009Y28414286D02*
X75083390Y28366667D01*
X75083390Y28366667D02*
X75035771Y28271429D01*
X75035771Y28271429D02*
X75035771Y28080953D01*
X75035771Y28080953D02*
X75083390Y27985715D01*
X75083390Y27985715D02*
X75131009Y27938096D01*
X75131009Y27938096D02*
X75226247Y27890477D01*
X37854819Y39261906D02*
X36854819Y39261906D01*
X36854819Y39261906D02*
X36854819Y39500001D01*
X36854819Y39500001D02*
X36902438Y39642858D01*
X36902438Y39642858D02*
X36997676Y39738096D01*
X36997676Y39738096D02*
X37092914Y39785715D01*
X37092914Y39785715D02*
X37283390Y39833334D01*
X37283390Y39833334D02*
X37426247Y39833334D01*
X37426247Y39833334D02*
X37616723Y39785715D01*
X37616723Y39785715D02*
X37711961Y39738096D01*
X37711961Y39738096D02*
X37807200Y39642858D01*
X37807200Y39642858D02*
X37854819Y39500001D01*
X37854819Y39500001D02*
X37854819Y39261906D01*
X36950057Y40214287D02*
X36902438Y40261906D01*
X36902438Y40261906D02*
X36854819Y40357144D01*
X36854819Y40357144D02*
X36854819Y40595239D01*
X36854819Y40595239D02*
X36902438Y40690477D01*
X36902438Y40690477D02*
X36950057Y40738096D01*
X36950057Y40738096D02*
X37045295Y40785715D01*
X37045295Y40785715D02*
X37140533Y40785715D01*
X37140533Y40785715D02*
X37283390Y40738096D01*
X37283390Y40738096D02*
X37854819Y40166668D01*
X37854819Y40166668D02*
X37854819Y40785715D01*
X38154819Y32138096D02*
X37154819Y32138096D01*
X38154819Y32709524D02*
X37583390Y32280953D01*
X37154819Y32709524D02*
X37726247Y32138096D01*
X10454819Y25233334D02*
X9978628Y24900001D01*
X10454819Y24661906D02*
X9454819Y24661906D01*
X9454819Y24661906D02*
X9454819Y25042858D01*
X9454819Y25042858D02*
X9502438Y25138096D01*
X9502438Y25138096D02*
X9550057Y25185715D01*
X9550057Y25185715D02*
X9645295Y25233334D01*
X9645295Y25233334D02*
X9788152Y25233334D01*
X9788152Y25233334D02*
X9883390Y25185715D01*
X9883390Y25185715D02*
X9931009Y25138096D01*
X9931009Y25138096D02*
X9978628Y25042858D01*
X9978628Y25042858D02*
X9978628Y24661906D01*
X10454819Y26185715D02*
X10454819Y25614287D01*
X10454819Y25900001D02*
X9454819Y25900001D01*
X9454819Y25900001D02*
X9597676Y25804763D01*
X9597676Y25804763D02*
X9692914Y25709525D01*
X9692914Y25709525D02*
X9740533Y25614287D01*
X38654819Y16204762D02*
X38178628Y15871429D01*
X38654819Y15633334D02*
X37654819Y15633334D01*
X37654819Y15633334D02*
X37654819Y16014286D01*
X37654819Y16014286D02*
X37702438Y16109524D01*
X37702438Y16109524D02*
X37750057Y16157143D01*
X37750057Y16157143D02*
X37845295Y16204762D01*
X37845295Y16204762D02*
X37988152Y16204762D01*
X37988152Y16204762D02*
X38083390Y16157143D01*
X38083390Y16157143D02*
X38131009Y16109524D01*
X38131009Y16109524D02*
X38178628Y16014286D01*
X38178628Y16014286D02*
X38178628Y15633334D01*
X37654819Y16490477D02*
X38654819Y16823810D01*
X38654819Y16823810D02*
X37654819Y17157143D01*
X38654819Y18014286D02*
X38654819Y17442858D01*
X38654819Y17728572D02*
X37654819Y17728572D01*
X37654819Y17728572D02*
X37797676Y17633334D01*
X37797676Y17633334D02*
X37892914Y17538096D01*
X37892914Y17538096D02*
X37940533Y17442858D01*
D11*
%TO.C,C1*%
X13770000Y30680000D02*
X13770000Y39920000D01*
X11030000Y39920000D02*
X13770000Y39920000D01*
X11030000Y30680000D02*
X11030000Y39920000D01*
X11030000Y30680000D02*
X13770000Y30680000D01*
%TO.C,C2*%
X23231000Y42960000D02*
X23231000Y40910000D01*
X21951000Y42960000D02*
X21951000Y40165000D01*
X21391000Y47994000D02*
X21391000Y45040000D01*
X20550000Y48080000D02*
X20550000Y39920000D01*
X21951000Y47835000D02*
X21951000Y45040000D01*
X23031000Y42960000D02*
X23031000Y40750000D01*
X24071000Y46102000D02*
X24071000Y41898000D01*
X22191000Y42960000D02*
X22191000Y40260000D01*
X22311000Y42960000D02*
X22311000Y40314000D01*
X23271000Y42960000D02*
X23271000Y40945000D01*
X22791000Y42960000D02*
X22791000Y40582000D01*
X22631000Y42960000D02*
X22631000Y40483000D01*
X22871000Y47365000D02*
X22871000Y45040000D01*
X22351000Y47666000D02*
X22351000Y45040000D01*
X22711000Y42960000D02*
X22711000Y40531000D01*
X24031000Y46166000D02*
X24031000Y41834000D01*
X21351000Y42960000D02*
X21351000Y39998000D01*
X23911000Y46345000D02*
X23911000Y41655000D01*
X22391000Y47647000D02*
X22391000Y45040000D01*
X23311000Y42960000D02*
X23311000Y40981000D01*
X22551000Y47562000D02*
X22551000Y45040000D01*
X21431000Y47985000D02*
X21431000Y45040000D01*
X21271000Y48017000D02*
X21271000Y45040000D01*
X21711000Y42960000D02*
X21711000Y40086000D01*
X22591000Y47540000D02*
X22591000Y45040000D01*
X22391000Y42960000D02*
X22391000Y40353000D01*
X23511000Y46826000D02*
X23511000Y41174000D01*
X22871000Y42960000D02*
X22871000Y40635000D01*
X21110000Y48042000D02*
X21110000Y39958000D01*
X23671000Y46651000D02*
X23671000Y41349000D01*
X21911000Y42960000D02*
X21911000Y40150000D01*
X21831000Y47877000D02*
X21831000Y45040000D01*
X24631000Y44533000D02*
X24631000Y43467000D01*
X21070000Y48048000D02*
X21070000Y39952000D01*
X22911000Y47338000D02*
X22911000Y45040000D01*
X21631000Y42960000D02*
X21631000Y40064000D01*
X21271000Y42960000D02*
X21271000Y39983000D01*
X22831000Y42960000D02*
X22831000Y40608000D01*
X20630000Y48080000D02*
X20630000Y39920000D01*
X24591000Y44768000D02*
X24591000Y43232000D01*
X20710000Y48077000D02*
X20710000Y39923000D01*
X21791000Y47889000D02*
X21791000Y45040000D01*
X20830000Y48071000D02*
X20830000Y39929000D01*
X21631000Y47936000D02*
X21631000Y45040000D01*
X22991000Y47280000D02*
X22991000Y45040000D01*
X23711000Y46604000D02*
X23711000Y41396000D01*
X21991000Y47821000D02*
X21991000Y45040000D01*
X24391000Y45453000D02*
X24391000Y42547000D01*
X21391000Y42960000D02*
X21391000Y40006000D01*
X22711000Y47469000D02*
X22711000Y45040000D01*
X21751000Y47902000D02*
X21751000Y45040000D01*
X21591000Y42960000D02*
X21591000Y40053000D01*
X23311000Y47019000D02*
X23311000Y45040000D01*
X22111000Y47774000D02*
X22111000Y45040000D01*
X23111000Y42960000D02*
X23111000Y40811000D01*
X21671000Y42960000D02*
X21671000Y40075000D01*
X22031000Y47805000D02*
X22031000Y45040000D01*
X21511000Y42960000D02*
X21511000Y40033000D01*
X22791000Y47418000D02*
X22791000Y45040000D01*
X23231000Y47090000D02*
X23231000Y45040000D01*
X21671000Y47925000D02*
X21671000Y45040000D01*
X24551000Y44948000D02*
X24551000Y43052000D01*
X24231000Y45813000D02*
X24231000Y42187000D01*
X23151000Y47156000D02*
X23151000Y45040000D01*
X23551000Y46784000D02*
X23551000Y41216000D01*
X21230000Y48024000D02*
X21230000Y39976000D01*
X24431000Y45346000D02*
X24431000Y42654000D01*
X24471000Y45229000D02*
X24471000Y42771000D01*
X23071000Y42960000D02*
X23071000Y40780000D01*
X16140302Y46315000D02*
X16940302Y46315000D01*
X22071000Y42960000D02*
X22071000Y40210000D01*
X22471000Y47606000D02*
X22471000Y45040000D01*
X23391000Y46945000D02*
X23391000Y41055000D01*
X23871000Y46400000D02*
X23871000Y41600000D01*
X22471000Y42960000D02*
X22471000Y40394000D01*
X21471000Y42960000D02*
X21471000Y40024000D01*
X20870000Y48068000D02*
X20870000Y39932000D01*
X21150000Y48037000D02*
X21150000Y39963000D01*
X22631000Y47517000D02*
X22631000Y45040000D01*
X23351000Y46983000D02*
X23351000Y41017000D01*
X21711000Y47914000D02*
X21711000Y45040000D01*
X24191000Y45890000D02*
X24191000Y42110000D01*
X21831000Y42960000D02*
X21831000Y40123000D01*
X22551000Y42960000D02*
X22551000Y40438000D01*
X22351000Y42960000D02*
X22351000Y40334000D01*
X22071000Y47790000D02*
X22071000Y45040000D01*
X22911000Y42960000D02*
X22911000Y40662000D01*
X24511000Y45098000D02*
X24511000Y42902000D01*
X20750000Y48076000D02*
X20750000Y39924000D01*
X23791000Y46505000D02*
X23791000Y41495000D01*
X21030000Y48052000D02*
X21030000Y39948000D01*
X23631000Y46697000D02*
X23631000Y41303000D01*
X21471000Y47976000D02*
X21471000Y45040000D01*
X22431000Y42960000D02*
X22431000Y40373000D01*
X21511000Y47967000D02*
X21511000Y45040000D01*
X22151000Y47757000D02*
X22151000Y45040000D01*
X23591000Y46741000D02*
X23591000Y41259000D01*
X22231000Y47722000D02*
X22231000Y45040000D01*
X22111000Y42960000D02*
X22111000Y40226000D01*
X22951000Y42960000D02*
X22951000Y40691000D01*
X21551000Y47957000D02*
X21551000Y45040000D01*
X23191000Y42960000D02*
X23191000Y40876000D01*
X22671000Y47493000D02*
X22671000Y45040000D01*
X23991000Y46228000D02*
X23991000Y41772000D01*
X16540302Y46715000D02*
X16540302Y45915000D01*
X21190000Y48030000D02*
X21190000Y39970000D01*
X21751000Y42960000D02*
X21751000Y40098000D01*
X22151000Y42960000D02*
X22151000Y40243000D01*
X22271000Y47704000D02*
X22271000Y45040000D01*
X23111000Y47189000D02*
X23111000Y45040000D01*
X24351000Y45552000D02*
X24351000Y42448000D01*
X21591000Y47947000D02*
X21591000Y45040000D01*
X22231000Y42960000D02*
X22231000Y40278000D01*
X23431000Y46907000D02*
X23431000Y41093000D01*
X21311000Y48010000D02*
X21311000Y45040000D01*
X21791000Y42960000D02*
X21791000Y40111000D01*
X22031000Y42960000D02*
X22031000Y40195000D01*
X22431000Y47627000D02*
X22431000Y45040000D01*
X23071000Y47220000D02*
X23071000Y45040000D01*
X24311000Y45645000D02*
X24311000Y42355000D01*
X22831000Y47392000D02*
X22831000Y45040000D01*
X22271000Y42960000D02*
X22271000Y40296000D01*
X23271000Y47055000D02*
X23271000Y45040000D01*
X21911000Y47850000D02*
X21911000Y45040000D01*
X21351000Y48002000D02*
X21351000Y45040000D01*
X22511000Y42960000D02*
X22511000Y40416000D01*
X21871000Y47863000D02*
X21871000Y45040000D01*
X23831000Y46454000D02*
X23831000Y41546000D01*
X23951000Y46287000D02*
X23951000Y41713000D01*
X20790000Y48074000D02*
X20790000Y39926000D01*
X22991000Y42960000D02*
X22991000Y40720000D01*
X23191000Y47124000D02*
X23191000Y45040000D01*
X22751000Y42960000D02*
X22751000Y40556000D01*
X21871000Y42960000D02*
X21871000Y40137000D01*
X20910000Y48065000D02*
X20910000Y39935000D01*
X23031000Y47250000D02*
X23031000Y45040000D01*
X24151000Y45964000D02*
X24151000Y42036000D01*
X20590000Y48080000D02*
X20590000Y39920000D01*
X22511000Y47584000D02*
X22511000Y45040000D01*
X20670000Y48079000D02*
X20670000Y39921000D01*
X22191000Y47740000D02*
X22191000Y45040000D01*
X21431000Y42960000D02*
X21431000Y40015000D01*
X22591000Y42960000D02*
X22591000Y40460000D01*
X21311000Y42960000D02*
X21311000Y39990000D01*
X23751000Y46556000D02*
X23751000Y41444000D01*
X24111000Y46034000D02*
X24111000Y41966000D01*
X21551000Y42960000D02*
X21551000Y40043000D01*
X20990000Y48057000D02*
X20990000Y39943000D01*
X22951000Y47309000D02*
X22951000Y45040000D01*
X20950000Y48061000D02*
X20950000Y39939000D01*
X23471000Y46867000D02*
X23471000Y41133000D01*
X22751000Y47444000D02*
X22751000Y45040000D01*
X21991000Y42960000D02*
X21991000Y40179000D01*
X23151000Y42960000D02*
X23151000Y40844000D01*
X22311000Y47686000D02*
X22311000Y45040000D01*
X22671000Y42960000D02*
X22671000Y40507000D01*
X24271000Y45731000D02*
X24271000Y42269000D01*
X24670000Y44000000D02*
G75*
G02*
X16430000Y44000000I-4120000J0D01*
G01*
X16430000Y44000000D02*
G75*
G02*
X24670000Y44000000I4120000J0D01*
G01*
%TO.C,C3*%
X28995000Y38631000D02*
X31760000Y38631000D01*
X28739000Y37550000D02*
X36861000Y37550000D01*
X29550000Y39631000D02*
X31760000Y39631000D01*
X29520000Y39591000D02*
X31760000Y39591000D01*
X33840000Y39911000D02*
X35819000Y39911000D01*
X29173000Y39031000D02*
X31760000Y39031000D01*
X29435000Y39471000D02*
X31760000Y39471000D01*
X29043000Y38751000D02*
X31760000Y38751000D01*
X30059000Y40191000D02*
X35541000Y40191000D01*
X31571000Y41071000D02*
X34029000Y41071000D01*
X28911000Y38391000D02*
X31760000Y38391000D01*
X30085000Y33140302D02*
X30885000Y33140302D01*
X33840000Y39071000D02*
X36406000Y39071000D01*
X28721000Y37270000D02*
X36879000Y37270000D01*
X33840000Y39231000D02*
X36317000Y39231000D01*
X30513000Y40551000D02*
X35087000Y40551000D01*
X28758000Y37710000D02*
X36842000Y37710000D01*
X28783000Y37871000D02*
X31760000Y37871000D01*
X31069000Y40871000D02*
X34531000Y40871000D01*
X28864000Y38231000D02*
X31760000Y38231000D01*
X29974000Y40111000D02*
X35626000Y40111000D01*
X33840000Y39871000D02*
X35855000Y39871000D01*
X33840000Y39391000D02*
X36218000Y39391000D01*
X29216000Y39111000D02*
X31760000Y39111000D01*
X28724000Y37350000D02*
X36876000Y37350000D01*
X33840000Y38271000D02*
X36725000Y38271000D01*
X33840000Y38311000D02*
X36714000Y38311000D01*
X28720000Y37150000D02*
X36880000Y37150000D01*
X29238000Y39151000D02*
X31760000Y39151000D01*
X29580000Y39671000D02*
X31760000Y39671000D01*
X33840000Y39191000D02*
X36340000Y39191000D01*
X28743000Y37590000D02*
X36857000Y37590000D01*
X30634000Y40631000D02*
X34966000Y40631000D01*
X32267000Y41231000D02*
X33333000Y41231000D01*
X33840000Y39711000D02*
X35989000Y39711000D01*
X29356000Y39351000D02*
X31760000Y39351000D01*
X33840000Y38431000D02*
X36677000Y38431000D01*
X29010000Y38671000D02*
X31760000Y38671000D01*
X33840000Y39271000D02*
X36293000Y39271000D01*
X30196000Y40311000D02*
X35404000Y40311000D01*
X28950000Y38511000D02*
X31760000Y38511000D01*
X29491000Y39551000D02*
X31760000Y39551000D01*
X33840000Y39031000D02*
X36427000Y39031000D01*
X33840000Y39431000D02*
X36192000Y39431000D01*
X32032000Y41191000D02*
X33568000Y41191000D01*
X29307000Y39271000D02*
X31760000Y39271000D01*
X28806000Y37991000D02*
X31760000Y37991000D01*
X28798000Y37951000D02*
X31760000Y37951000D01*
X28886000Y38311000D02*
X31760000Y38311000D01*
X29283000Y39231000D02*
X31760000Y39231000D01*
X33840000Y38631000D02*
X36605000Y38631000D01*
X30103000Y40231000D02*
X35497000Y40231000D01*
X31702000Y41111000D02*
X33898000Y41111000D01*
X28875000Y38271000D02*
X31760000Y38271000D01*
X31852000Y41151000D02*
X33748000Y41151000D01*
X33840000Y38751000D02*
X36557000Y38751000D01*
X33840000Y38671000D02*
X36590000Y38671000D01*
X29194000Y39071000D02*
X31760000Y39071000D01*
X33840000Y39351000D02*
X36244000Y39351000D01*
X33840000Y38351000D02*
X36702000Y38351000D01*
X28833000Y38111000D02*
X31760000Y38111000D01*
X29817000Y39951000D02*
X35783000Y39951000D01*
X33840000Y39751000D02*
X35956000Y39751000D01*
X31454000Y41031000D02*
X34146000Y41031000D01*
X29611000Y39711000D02*
X31760000Y39711000D01*
X29331000Y39311000D02*
X31760000Y39311000D01*
X33840000Y38591000D02*
X36621000Y38591000D01*
X29893000Y40031000D02*
X35707000Y40031000D01*
X33840000Y38071000D02*
X36776000Y38071000D01*
X28726000Y37390000D02*
X36874000Y37390000D01*
X33840000Y39471000D02*
X36165000Y39471000D01*
X33840000Y38111000D02*
X36767000Y38111000D01*
X33840000Y38831000D02*
X36522000Y38831000D01*
X28979000Y38591000D02*
X31760000Y38591000D01*
X33840000Y39511000D02*
X36138000Y39511000D01*
X33840000Y39671000D02*
X36020000Y39671000D01*
X29026000Y38711000D02*
X31760000Y38711000D01*
X28732000Y37470000D02*
X36868000Y37470000D01*
X29462000Y39511000D02*
X31760000Y39511000D01*
X33840000Y38151000D02*
X36757000Y38151000D01*
X28843000Y38151000D02*
X31760000Y38151000D01*
X33840000Y39311000D02*
X36269000Y39311000D01*
X29676000Y39791000D02*
X31760000Y39791000D01*
X30698000Y40671000D02*
X34902000Y40671000D01*
X30987000Y40831000D02*
X34613000Y40831000D01*
X33840000Y38031000D02*
X36785000Y38031000D01*
X29745000Y39871000D02*
X31760000Y39871000D01*
X30346000Y40431000D02*
X35254000Y40431000D01*
X29134000Y38951000D02*
X31760000Y38951000D01*
X28923000Y38431000D02*
X31760000Y38431000D01*
X31155000Y40911000D02*
X34445000Y40911000D01*
X33840000Y39591000D02*
X36080000Y39591000D01*
X28815000Y38031000D02*
X31760000Y38031000D01*
X33840000Y39791000D02*
X35924000Y39791000D01*
X29382000Y39391000D02*
X31760000Y39391000D01*
X33840000Y37951000D02*
X36802000Y37951000D01*
X30836000Y40751000D02*
X34764000Y40751000D01*
X33840000Y37911000D02*
X36810000Y37911000D01*
X30244000Y40351000D02*
X35356000Y40351000D01*
X28735000Y37510000D02*
X36865000Y37510000D01*
X29260000Y39191000D02*
X31760000Y39191000D01*
X33840000Y39551000D02*
X36109000Y39551000D01*
X30149000Y40271000D02*
X35451000Y40271000D01*
X28720000Y37230000D02*
X36880000Y37230000D01*
X28853000Y38191000D02*
X31760000Y38191000D01*
X30766000Y40711000D02*
X34834000Y40711000D01*
X33840000Y38391000D02*
X36689000Y38391000D01*
X33840000Y38191000D02*
X36747000Y38191000D01*
X29644000Y39751000D02*
X31760000Y39751000D01*
X30400000Y40471000D02*
X35200000Y40471000D01*
X29408000Y39431000D02*
X31760000Y39431000D01*
X33840000Y38991000D02*
X36447000Y38991000D01*
X29060000Y38791000D02*
X31760000Y38791000D01*
X28790000Y37911000D02*
X31760000Y37911000D01*
X33840000Y38871000D02*
X36504000Y38871000D01*
X33840000Y39111000D02*
X36384000Y39111000D01*
X33840000Y38511000D02*
X36650000Y38511000D01*
X29096000Y38871000D02*
X31760000Y38871000D01*
X33840000Y38911000D02*
X36486000Y38911000D01*
X33840000Y38471000D02*
X36663000Y38471000D01*
X30572000Y40591000D02*
X35028000Y40591000D01*
X31248000Y40951000D02*
X34352000Y40951000D01*
X30295000Y40391000D02*
X35305000Y40391000D01*
X33840000Y39631000D02*
X36050000Y39631000D01*
X28748000Y37630000D02*
X36852000Y37630000D01*
X29153000Y38991000D02*
X31760000Y38991000D01*
X28723000Y37310000D02*
X36877000Y37310000D01*
X28937000Y38471000D02*
X31760000Y38471000D01*
X33840000Y38231000D02*
X36736000Y38231000D01*
X30016000Y40151000D02*
X35584000Y40151000D01*
X28729000Y37430000D02*
X36871000Y37430000D01*
X28720000Y37190000D02*
X36880000Y37190000D01*
X28824000Y38071000D02*
X31760000Y38071000D01*
X28763000Y37750000D02*
X36837000Y37750000D01*
X33840000Y37871000D02*
X36817000Y37871000D01*
X29781000Y39911000D02*
X31760000Y39911000D01*
X33840000Y39151000D02*
X36362000Y39151000D01*
X33840000Y38791000D02*
X36540000Y38791000D01*
X30455000Y40511000D02*
X35145000Y40511000D01*
X28752000Y37670000D02*
X36848000Y37670000D01*
X28965000Y38551000D02*
X31760000Y38551000D01*
X29855000Y39991000D02*
X35745000Y39991000D01*
X30910000Y40791000D02*
X34690000Y40791000D01*
X29114000Y38911000D02*
X31760000Y38911000D01*
X29078000Y38831000D02*
X31760000Y38831000D01*
X33840000Y39831000D02*
X35890000Y39831000D01*
X33840000Y37991000D02*
X36794000Y37991000D01*
X33840000Y38951000D02*
X36466000Y38951000D01*
X29933000Y40071000D02*
X35667000Y40071000D01*
X33840000Y38551000D02*
X36635000Y38551000D01*
X30485000Y32740302D02*
X30485000Y33540302D01*
X28770000Y37790000D02*
X36830000Y37790000D01*
X31347000Y40991000D02*
X34253000Y40991000D01*
X28776000Y37830000D02*
X36824000Y37830000D01*
X29710000Y39831000D02*
X31760000Y39831000D01*
X33840000Y38711000D02*
X36574000Y38711000D01*
X28898000Y38351000D02*
X31760000Y38351000D01*
X36920000Y37150000D02*
G75*
G02*
X28680000Y37150000I-4120000J0D01*
G01*
X28680000Y37150000D02*
G75*
G02*
X36920000Y37150000I4120000J0D01*
G01*
%TO.C,C4*%
X38380000Y25390000D02*
X38380000Y20150000D01*
X35955000Y25390000D02*
X35640000Y25390000D01*
X35640000Y25390000D02*
X35640000Y20150000D01*
X35955000Y20150000D02*
X35640000Y20150000D01*
X38380000Y20150000D02*
X38065000Y20150000D01*
X38380000Y25390000D02*
X38065000Y25390000D01*
%TO.C,C6*%
X37820000Y51970000D02*
X28580000Y51970000D01*
X37820000Y49230000D02*
X28580000Y49230000D01*
X37820000Y49230000D02*
X37820000Y51970000D01*
X28580000Y49230000D02*
X28580000Y51970000D01*
%TO.C,C7*%
X43880000Y8230000D02*
X53120000Y8230000D01*
X53120000Y10970000D02*
X53120000Y8230000D01*
X43880000Y10970000D02*
X43880000Y8230000D01*
X43880000Y10970000D02*
X53120000Y10970000D01*
%TO.C,D1*%
X17760000Y36130000D02*
X23200000Y36130000D01*
X24420000Y37600000D02*
X23200000Y37600000D01*
X18540000Y39070000D02*
X18540000Y36130000D01*
X18780000Y39070000D02*
X18780000Y36130000D01*
X17760000Y39070000D02*
X17760000Y36130000D01*
X16540000Y37600000D02*
X17760000Y37600000D01*
X18660000Y39070000D02*
X18660000Y36130000D01*
X23200000Y36130000D02*
X23200000Y39070000D01*
X23200000Y39070000D02*
X17760000Y39070000D01*
%TO.C,D3*%
X48530000Y35300000D02*
X48530000Y29860000D01*
X48530000Y30760000D02*
X51470000Y30760000D01*
X50000000Y28840000D02*
X50000000Y29860000D01*
X48530000Y30880000D02*
X51470000Y30880000D01*
X48530000Y29860000D02*
X51470000Y29860000D01*
X51470000Y35300000D02*
X48530000Y35300000D01*
X51470000Y29860000D02*
X51470000Y35300000D01*
X50000000Y36320000D02*
X50000000Y35300000D01*
X48530000Y30640000D02*
X51470000Y30640000D01*
%TO.C,D4*%
X42730000Y28600000D02*
X42730000Y23160000D01*
X44200000Y22140000D02*
X44200000Y23160000D01*
X42730000Y24180000D02*
X45670000Y24180000D01*
X42730000Y23940000D02*
X45670000Y23940000D01*
X44200000Y29620000D02*
X44200000Y28600000D01*
X45670000Y23160000D02*
X45670000Y28600000D01*
X45670000Y28600000D02*
X42730000Y28600000D01*
X42730000Y24060000D02*
X45670000Y24060000D01*
X42730000Y23160000D02*
X45670000Y23160000D01*
%TO.C,J1*%
X9470000Y41930000D02*
X12130000Y41930000D01*
X12130000Y44530000D02*
X12130000Y41930000D01*
X9470000Y44530000D02*
X12130000Y44530000D01*
X9470000Y44530000D02*
X9470000Y41930000D01*
X9470000Y45800000D02*
X9470000Y47130000D01*
X9470000Y47130000D02*
X10800000Y47130000D01*
%TO.C,J2*%
X8400000Y6400000D02*
X23760000Y6400000D01*
X8160000Y6340000D02*
X8160000Y5600000D01*
X8400000Y12801000D02*
X23760000Y12801000D01*
X14853000Y9477000D02*
X14806000Y9431000D01*
X8400000Y7900000D02*
X23760000Y7900000D01*
X8400000Y15761000D02*
X8400000Y5840000D01*
X8400000Y15761000D02*
X23760000Y15761000D01*
X8400000Y5840000D02*
X23760000Y5840000D01*
X8160000Y5600000D02*
X8660000Y5600000D01*
X17150000Y11775000D02*
X17115000Y11739000D01*
X22230000Y11775000D02*
X22195000Y11739000D01*
X15046000Y9261000D02*
X15011000Y9226000D01*
X20126000Y9261000D02*
X20091000Y9226000D01*
X19933000Y9477000D02*
X19886000Y9431000D01*
X22435000Y11569000D02*
X22388000Y11523000D01*
X23760000Y15761000D02*
X23760000Y5840000D01*
X17355000Y11569000D02*
X17308000Y11523000D01*
X10316958Y12035427D02*
G75*
G02*
X11684000Y12035000I683041J-1535420D01*
G01*
X12535427Y11183042D02*
G75*
G02*
X12535000Y9816000I-1535427J-683042D01*
G01*
X9464573Y9816958D02*
G75*
G02*
X9465000Y11184000I1535420J683041D01*
G01*
X11028805Y8819747D02*
G75*
G02*
X10316000Y8965000I-28806J1680254D01*
G01*
X11683318Y8965244D02*
G75*
G02*
X11000000Y8820000I-683318J1534756D01*
G01*
X17760000Y10500000D02*
G75*
G02*
X14400000Y10500000I-1680000J0D01*
G01*
X14400000Y10500000D02*
G75*
G02*
X17760000Y10500000I1680000J0D01*
G01*
X22840000Y10500000D02*
G75*
G02*
X19480000Y10500000I-1680000J0D01*
G01*
X19480000Y10500000D02*
G75*
G02*
X22840000Y10500000I1680000J0D01*
G01*
%TO.C,J3*%
X85160000Y35160000D02*
X85900000Y35160000D01*
X82239000Y42046000D02*
X82274000Y42011000D01*
X79931000Y44355000D02*
X79977000Y44308000D01*
X75739000Y35400000D02*
X85660000Y35400000D01*
X85100000Y35400000D02*
X85100000Y45680000D01*
X85660000Y35400000D02*
X85660000Y45680000D01*
X75739000Y35400000D02*
X75739000Y45680000D01*
X85900000Y35160000D02*
X85900000Y35660000D01*
X78699000Y35400000D02*
X78699000Y45680000D01*
X82023000Y41853000D02*
X82069000Y41806000D01*
X75739000Y45680000D02*
X85660000Y45680000D01*
X79725000Y44150000D02*
X79761000Y44115000D01*
X83600000Y35400000D02*
X83600000Y45680000D01*
X82680253Y38028805D02*
G75*
G02*
X82535000Y37316000I-1680254J-28806D01*
G01*
X79464573Y37316958D02*
G75*
G02*
X79465000Y38684000I1535420J683041D01*
G01*
X80316958Y39535427D02*
G75*
G02*
X81684000Y39535000I683042J-1535427D01*
G01*
X82534756Y38683318D02*
G75*
G02*
X82680000Y38000000I-1534756J-683318D01*
G01*
X81683042Y36464573D02*
G75*
G02*
X80316000Y36465000I-683041J1535420D01*
G01*
X82680000Y43080000D02*
G75*
G02*
X79320000Y43080000I-1680000J0D01*
G01*
X79320000Y43080000D02*
G75*
G02*
X82680000Y43080000I1680000J0D01*
G01*
%TO.C,Q1*%
X14750000Y31130000D02*
X14750000Y27530000D01*
X19050000Y28550000D02*
G75*
G02*
X14772316Y27521555I-2450000J780000D01*
G01*
X14757844Y31141453D02*
G75*
G02*
X19050000Y30150000I1842156J-1811453D01*
G01*
%TO.C,Q3*%
X34650000Y21070000D02*
X34650000Y24670000D01*
X34642156Y21058547D02*
G75*
G02*
X30350000Y22050000I-1842156J1811453D01*
G01*
X30350000Y23650000D02*
G75*
G02*
X34627684Y24678445I2450000J-780000D01*
G01*
%TO.C,Q5*%
X44240000Y32620000D02*
X44240000Y42860000D01*
X42730000Y42860000D02*
X47371000Y42860000D01*
X42730000Y39591000D02*
X44240000Y39591000D01*
X42730000Y32620000D02*
X47371000Y32620000D01*
X47371000Y32620000D02*
X47371000Y42860000D01*
X42730000Y35890000D02*
X44240000Y35890000D01*
X42730000Y32620000D02*
X42730000Y42860000D01*
%TO.C,Q6*%
X56771000Y44420000D02*
X56771000Y54660000D01*
X52130000Y51391000D02*
X53640000Y51391000D01*
X52130000Y47690000D02*
X53640000Y47690000D01*
X52130000Y44420000D02*
X56771000Y44420000D01*
X53640000Y44420000D02*
X53640000Y54660000D01*
X52130000Y44420000D02*
X52130000Y54660000D01*
X52130000Y54660000D02*
X56771000Y54660000D01*
%TO.C,Q7*%
X56971000Y12220000D02*
X56971000Y22460000D01*
X52330000Y22460000D02*
X56971000Y22460000D01*
X52330000Y15490000D02*
X53840000Y15490000D01*
X52330000Y12220000D02*
X56971000Y12220000D01*
X53840000Y12220000D02*
X53840000Y22460000D01*
X52330000Y19191000D02*
X53840000Y19191000D01*
X52330000Y12220000D02*
X52330000Y22460000D01*
%TO.C,Q8*%
X76100000Y59021000D02*
X76100000Y56780000D01*
X81300000Y56780000D02*
X84570000Y56780000D01*
X70400000Y56780000D02*
X73051000Y56780000D01*
X64330000Y59021000D02*
X67600000Y59021000D01*
X70400000Y59021000D02*
X73051000Y59021000D01*
X64330000Y53780000D02*
X84570000Y53780000D01*
X84570000Y59021000D02*
X84570000Y53780000D01*
X75850000Y59021000D02*
X78500000Y59021000D01*
X75850000Y56780000D02*
X78500000Y56780000D01*
X64330000Y56780000D02*
X67600000Y56780000D01*
X72800000Y59021000D02*
X72800000Y56780000D01*
X81300000Y59021000D02*
X84570000Y59021000D01*
X64330000Y59021000D02*
X64330000Y53780000D01*
%TO.C,Q9*%
X84670000Y12220000D02*
X64430000Y12220000D01*
X64430000Y6979000D02*
X64430000Y12220000D01*
X78600000Y9220000D02*
X75949000Y9220000D01*
X67700000Y9220000D02*
X64430000Y9220000D01*
X73150000Y9220000D02*
X70500000Y9220000D01*
X84670000Y6979000D02*
X84670000Y12220000D01*
X72900000Y6979000D02*
X72900000Y9220000D01*
X78600000Y6979000D02*
X75949000Y6979000D01*
X84670000Y9220000D02*
X81400000Y9220000D01*
X67700000Y6979000D02*
X64430000Y6979000D01*
X76200000Y6979000D02*
X76200000Y9220000D01*
X73150000Y6979000D02*
X70500000Y6979000D01*
X84670000Y6979000D02*
X81400000Y6979000D01*
%TO.C,R2*%
X16030000Y24860000D02*
X16030000Y18320000D01*
X16360000Y24860000D02*
X16030000Y24860000D01*
X16030000Y18320000D02*
X16360000Y18320000D01*
X18440000Y24860000D02*
X18770000Y24860000D01*
X18770000Y18320000D02*
X18440000Y18320000D01*
X18770000Y24860000D02*
X18770000Y18320000D01*
%TO.C,R3*%
X15540000Y48460000D02*
X15870000Y48460000D01*
X13460000Y48460000D02*
X13130000Y48460000D01*
X13130000Y41920000D02*
X13460000Y41920000D01*
X15870000Y48460000D02*
X15870000Y41920000D01*
X13130000Y48460000D02*
X13130000Y41920000D01*
X15870000Y41920000D02*
X15540000Y41920000D01*
%TO.C,R4*%
X23280000Y32630000D02*
X23280000Y32960000D01*
X16740000Y35040000D02*
X16740000Y35370000D01*
X23280000Y35370000D02*
X23280000Y35040000D01*
X16740000Y35370000D02*
X23280000Y35370000D01*
X16740000Y32630000D02*
X23280000Y32630000D01*
X16740000Y32960000D02*
X16740000Y32630000D01*
%TO.C,R5*%
X20830000Y18120000D02*
X21160000Y18120000D01*
X21160000Y24660000D02*
X20830000Y24660000D01*
X20830000Y24660000D02*
X20830000Y18120000D01*
X23570000Y18120000D02*
X23240000Y18120000D01*
X23240000Y24660000D02*
X23570000Y24660000D01*
X23570000Y24660000D02*
X23570000Y18120000D01*
%TO.C,R6*%
X26940000Y31640000D02*
X26940000Y31970000D01*
X26940000Y31970000D02*
X33480000Y31970000D01*
X26940000Y29230000D02*
X33480000Y29230000D01*
X26940000Y29560000D02*
X26940000Y29230000D01*
X33480000Y31970000D02*
X33480000Y31640000D01*
X33480000Y29230000D02*
X33480000Y29560000D01*
%TO.C,R8*%
X36360000Y42560000D02*
X36360000Y42230000D01*
X29820000Y44970000D02*
X29820000Y44640000D01*
X29820000Y42230000D02*
X29820000Y42560000D01*
X36360000Y42230000D02*
X29820000Y42230000D01*
X36360000Y44970000D02*
X29820000Y44970000D01*
X36360000Y44640000D02*
X36360000Y44970000D01*
%TO.C,R9*%
X39230000Y21940000D02*
X39230000Y28480000D01*
X39230000Y28480000D02*
X39560000Y28480000D01*
X41970000Y21940000D02*
X41970000Y28480000D01*
X39560000Y21940000D02*
X39230000Y21940000D01*
X41970000Y28480000D02*
X41640000Y28480000D01*
X41640000Y21940000D02*
X41970000Y21940000D01*
%TO.C,R10*%
X27040000Y13940000D02*
X27370000Y13940000D01*
X24630000Y20480000D02*
X24960000Y20480000D01*
X27370000Y20480000D02*
X27040000Y20480000D01*
X27370000Y13940000D02*
X27370000Y20480000D01*
X24960000Y13940000D02*
X24630000Y13940000D01*
X24630000Y13940000D02*
X24630000Y20480000D01*
%TO.C,R11*%
X36360000Y48570000D02*
X29820000Y48570000D01*
X36360000Y46160000D02*
X36360000Y45830000D01*
X36360000Y48240000D02*
X36360000Y48570000D01*
X29820000Y45830000D02*
X29820000Y46160000D01*
X36360000Y45830000D02*
X29820000Y45830000D01*
X29820000Y48570000D02*
X29820000Y48240000D01*
%TO.C,R14*%
X63420000Y30630000D02*
X58180000Y30630000D01*
X60800000Y14040000D02*
X60800000Y14890000D01*
X60800000Y31480000D02*
X60800000Y30630000D01*
X58180000Y14890000D02*
X63420000Y14890000D01*
X58180000Y30630000D02*
X58180000Y14890000D01*
X63420000Y14890000D02*
X63420000Y30630000D01*
%TO.C,R15*%
X69500000Y41820000D02*
X69500000Y45860000D01*
X74120000Y32580000D02*
X74120000Y41820000D01*
X64880000Y32580000D02*
X74120000Y32580000D01*
X74120000Y41820000D02*
X64880000Y41820000D01*
X64880000Y41820000D02*
X64880000Y32580000D01*
%TO.C,R13*%
X60800000Y38640000D02*
X60800000Y39490000D01*
X63420000Y55230000D02*
X58180000Y55230000D01*
X63420000Y39490000D02*
X63420000Y55230000D01*
X58180000Y39490000D02*
X63420000Y39490000D01*
X58180000Y55230000D02*
X58180000Y39490000D01*
X60800000Y56080000D02*
X60800000Y55230000D01*
%TO.C,Q2*%
X20150000Y31130000D02*
X20150000Y27530000D01*
X20157844Y31141453D02*
G75*
G02*
X24450000Y30150000I1842156J-1811453D01*
G01*
X24450000Y28550000D02*
G75*
G02*
X20172316Y27521555I-2450000J780000D01*
G01*
%TO.C,C5*%
X35925000Y11700000D02*
X35610000Y11700000D01*
X38350000Y16940000D02*
X38350000Y11700000D01*
X35925000Y16940000D02*
X35610000Y16940000D01*
X35610000Y16940000D02*
X35610000Y11700000D01*
X38350000Y11700000D02*
X38035000Y11700000D01*
X38350000Y16940000D02*
X38035000Y16940000D01*
%TO.C,R7*%
X33460000Y26030000D02*
X26920000Y26030000D01*
X33460000Y28440000D02*
X33460000Y28770000D01*
X33460000Y28770000D02*
X26920000Y28770000D01*
X26920000Y26030000D02*
X26920000Y26360000D01*
X26920000Y28770000D02*
X26920000Y28440000D01*
X33460000Y26360000D02*
X33460000Y26030000D01*
%TO.C,Q4*%
X29950000Y18730000D02*
X29950000Y15130000D01*
X29957844Y18741453D02*
G75*
G02*
X34250000Y17750000I1842156J-1811453D01*
G01*
X34250000Y16150000D02*
G75*
G02*
X29972316Y15121555I-2450000J780000D01*
G01*
%TO.C,R16*%
X74120000Y31620000D02*
X64880000Y31620000D01*
X74120000Y22380000D02*
X74120000Y31620000D01*
X64880000Y31620000D02*
X64880000Y22380000D01*
X64880000Y22380000D02*
X74120000Y22380000D01*
X69500000Y22380000D02*
X69500000Y18340000D01*
%TO.C,D2*%
X41270000Y40200000D02*
X38330000Y40200000D01*
X38330000Y40200000D02*
X38330000Y34760000D01*
X39800000Y33740000D02*
X39800000Y34760000D01*
X41270000Y34760000D02*
X41270000Y40200000D01*
X38330000Y35540000D02*
X41270000Y35540000D01*
X38330000Y35660000D02*
X41270000Y35660000D01*
X38330000Y34760000D02*
X41270000Y34760000D01*
X39800000Y41220000D02*
X39800000Y40200000D01*
X38330000Y35780000D02*
X41270000Y35780000D01*
%TO.C,R1*%
X13440000Y28660000D02*
X13770000Y28660000D01*
X11360000Y28660000D02*
X11030000Y28660000D01*
X13770000Y22120000D02*
X13440000Y22120000D01*
X13770000Y28660000D02*
X13770000Y22120000D01*
X11030000Y28660000D02*
X11030000Y22120000D01*
X11030000Y22120000D02*
X11360000Y22120000D01*
%TO.C,RV1*%
X46810000Y18110000D02*
X46610000Y18110000D01*
X46810000Y11690000D02*
X46610000Y11690000D01*
X46610000Y13110000D02*
X46810000Y13110000D01*
X46610000Y16690000D02*
X46610000Y13110000D01*
X46610000Y11590000D02*
X45920000Y11590000D01*
X46810000Y13110000D02*
X46810000Y11690000D01*
X40900000Y18210000D02*
X44440000Y18210000D01*
X39590000Y12900000D02*
X39590000Y14390000D01*
X46610000Y16690000D02*
X46810000Y16690000D01*
X46610000Y18210000D02*
X46360000Y18210000D01*
X39590000Y15410000D02*
X39590000Y16900000D01*
X44880000Y11590000D02*
X40900000Y11590000D01*
X46610000Y11690000D02*
X46610000Y11590000D01*
X46610000Y18110000D02*
X46610000Y18210000D01*
X46810000Y18110000D02*
X46810000Y16690000D01*
X39590000Y16900000D02*
G75*
G02*
X40900000Y18210000I1310000J0D01*
G01*
X40900000Y11590000D02*
G75*
G02*
X39590000Y12900000I0J1310000D01*
G01*
%TD*%
D13*
X86000000Y5000000D02*
X86000000Y61000000D01*
X5000000Y61000000D02*
X5000000Y5000000D01*
X5000000Y5000000D02*
X86000000Y5000000D01*
X86000000Y61000000D02*
X5000000Y61000000D01*
X1666666Y0D02*
G75*
G02*
X-1666666Y0I-1666666J0D01*
G01*
X-1666666Y0D02*
G75*
G02*
X1666666Y0I1666666J0D01*
G01*
X-2500000Y0D02*
X2500000Y0D01*
X0Y2500000D02*
X0Y-2500000D01*
M02*
