%TF.GenerationSoftware,KiCad,Pcbnew,8.0.3-8.0.3-0~ubuntu22.04.1*%
%TF.CreationDate,2024-06-26T20:02:33-05:00*%
%TF.ProjectId,amplificador_200w,616d706c-6966-4696-9361-646f725f3230,v1.0.0*%
%TF.SameCoordinates,PX5cfbb60PY7d687e0*%
%TF.FileFunction,Soldermask,Bot*%
%TF.FilePolarity,Negative*%
%FSLAX46Y46*%
G04 Gerber Fmt 4.6, Leading zero omitted, Abs format (unit mm)*
G04 Created by KiCad (PCBNEW 8.0.3-8.0.3-0~ubuntu22.04.1) date 2024-06-26 20:02:33*
%MOMM*%
%LPD*%
G01*
G04 APERTURE LIST*
G04 Aperture macros list*
%AMRoundRect*
0 Rectangle with rounded corners*
0 $1 Rounding radius*
0 $2 $3 $4 $5 $6 $7 $8 $9 X,Y pos of 4 corners*
0 Add a 4 corners polygon primitive as box body*
4,1,4,$2,$3,$4,$5,$6,$7,$8,$9,$2,$3,0*
0 Add four circle primitives for the rounded corners*
1,1,$1+$1,$2,$3*
1,1,$1+$1,$4,$5*
1,1,$1+$1,$6,$7*
1,1,$1+$1,$8,$9*
0 Add four rect primitives between the rounded corners*
20,1,$1+$1,$2,$3,$4,$5,0*
20,1,$1+$1,$4,$5,$6,$7,0*
20,1,$1+$1,$6,$7,$8,$9,0*
20,1,$1+$1,$8,$9,$2,$3,0*%
G04 Aperture macros list end*
%ADD10C,0.100000*%
%ADD11C,1.600000*%
%ADD12R,1.600000X1.600000*%
%ADD13R,1.800000X1.800000*%
%ADD14O,1.800000X1.800000*%
%ADD15R,2.200000X2.200000*%
%ADD16O,2.200000X2.200000*%
%ADD17R,1.700000X1.700000*%
%ADD18O,1.700000X1.700000*%
%ADD19R,2.600000X2.600000*%
%ADD20C,2.600000*%
%ADD21R,1.800000X1.100000*%
%ADD22RoundRect,0.275000X-0.625000X0.275000X-0.625000X-0.275000X0.625000X-0.275000X0.625000X0.275000X0*%
%ADD23RoundRect,0.275000X0.625000X-0.275000X0.625000X0.275000X-0.625000X0.275000X-0.625000X-0.275000X0*%
%ADD24R,2.000000X1.905000*%
%ADD25O,2.000000X1.905000*%
%ADD26R,2.500000X4.500000*%
%ADD27O,2.500000X4.500000*%
%ADD28O,1.600000X1.600000*%
%ADD29C,2.400000*%
%ADD30O,2.400000X2.400000*%
%ADD31C,0.800000*%
%ADD32C,6.400000*%
%ADD33R,1.550000X1.550000*%
%ADD34C,1.550000*%
%TA.AperFunction,Profile*%
%ADD35C,0.050000*%
%TD*%
G04 APERTURE END LIST*
D10*
X76100000Y32500000D02*
X76400000Y31800000D01*
X76100000Y31100000D01*
X75400000Y30800000D01*
X74800000Y31100000D01*
X74500000Y31800000D01*
X74800000Y32500000D01*
X75400000Y32800000D01*
X76100000Y32500000D01*
G36*
X76100000Y32500000D02*
G01*
X76400000Y31800000D01*
X76100000Y31100000D01*
X75400000Y30800000D01*
X74800000Y31100000D01*
X74500000Y31800000D01*
X74800000Y32500000D01*
X75400000Y32800000D01*
X76100000Y32500000D01*
G37*
X81700000Y32500000D02*
X82000000Y31800000D01*
X81700000Y31100000D01*
X81000000Y30800000D01*
X80400000Y31100000D01*
X80100000Y31800000D01*
X80400000Y32500000D01*
X81000000Y32800000D01*
X81700000Y32500000D01*
G36*
X81700000Y32500000D02*
G01*
X82000000Y31800000D01*
X81700000Y31100000D01*
X81000000Y30800000D01*
X80400000Y31100000D01*
X80100000Y31800000D01*
X80400000Y32500000D01*
X81000000Y32800000D01*
X81700000Y32500000D01*
G37*
D11*
%TO.C,C1*%
X12400000Y32800000D03*
X12400000Y37800000D03*
%TD*%
D12*
%TO.C,C2*%
X18800000Y44000000D03*
D11*
X22300000Y44000000D03*
%TD*%
D12*
%TO.C,C3*%
X32800000Y35400000D03*
D11*
X32800000Y38900000D03*
%TD*%
%TO.C,C4*%
X37010000Y25270000D03*
X37010000Y20270000D03*
%TD*%
%TO.C,C6*%
X35700000Y50600000D03*
X30700000Y50600000D03*
%TD*%
%TO.C,C7*%
X46000000Y9600000D03*
X51000000Y9600000D03*
%TD*%
D13*
%TO.C,D1*%
X15400000Y37600000D03*
D14*
X25560000Y37600000D03*
%TD*%
D15*
%TO.C,D3*%
X50000000Y27500000D03*
D16*
X50000000Y37660000D03*
%TD*%
D15*
%TO.C,D4*%
X44200000Y20800000D03*
D16*
X44200000Y30960000D03*
%TD*%
D17*
%TO.C,J1*%
X10800000Y45800000D03*
D18*
X10800000Y43260000D03*
%TD*%
D19*
%TO.C,J2*%
X11000000Y10500000D03*
D20*
X16080000Y10500000D03*
X21160000Y10500000D03*
%TD*%
D19*
%TO.C,J3*%
X81000000Y38000000D03*
D20*
X81000000Y43080000D03*
%TD*%
D21*
%TO.C,Q1*%
X16200000Y30600000D03*
D22*
X18270000Y29330000D03*
X16200000Y28060000D03*
%TD*%
D21*
%TO.C,Q3*%
X33200000Y21600000D03*
D23*
X31130000Y22870000D03*
X33200000Y24140000D03*
%TD*%
D24*
%TO.C,Q5*%
X46000000Y35200000D03*
D25*
X46000000Y37740000D03*
X46000000Y40280000D03*
%TD*%
D24*
%TO.C,Q6*%
X55400000Y47000000D03*
D25*
X55400000Y49540000D03*
X55400000Y52080000D03*
%TD*%
D24*
%TO.C,Q7*%
X55600000Y14800000D03*
D25*
X55600000Y17340000D03*
X55600000Y19880000D03*
%TD*%
D26*
%TO.C,Q8*%
X69000000Y57000000D03*
D27*
X74450000Y57000000D03*
X79900000Y57000000D03*
%TD*%
D26*
%TO.C,Q9*%
X80000000Y9000000D03*
D27*
X74550000Y9000000D03*
X69100000Y9000000D03*
%TD*%
D11*
%TO.C,R2*%
X17400000Y25400000D03*
D28*
X17400000Y17780000D03*
%TD*%
D11*
%TO.C,R3*%
X14500000Y49000000D03*
D28*
X14500000Y41380000D03*
%TD*%
D11*
%TO.C,R4*%
X16200000Y34000000D03*
D28*
X23820000Y34000000D03*
%TD*%
D11*
%TO.C,R5*%
X22200000Y25200000D03*
D28*
X22200000Y17580000D03*
%TD*%
D11*
%TO.C,R6*%
X26400000Y30600000D03*
D28*
X34020000Y30600000D03*
%TD*%
D11*
%TO.C,R8*%
X36900000Y43600000D03*
D28*
X29280000Y43600000D03*
%TD*%
D11*
%TO.C,R9*%
X40600000Y21400000D03*
D28*
X40600000Y29020000D03*
%TD*%
D11*
%TO.C,R10*%
X26000000Y13400000D03*
D28*
X26000000Y21020000D03*
%TD*%
D11*
%TO.C,R11*%
X36900000Y47200000D03*
D28*
X29280000Y47200000D03*
%TD*%
D29*
%TO.C,R14*%
X60800000Y12600000D03*
D30*
X60800000Y32920000D03*
%TD*%
D29*
%TO.C,R15*%
X69500000Y37200000D03*
D30*
X69500000Y47360000D03*
%TD*%
D29*
%TO.C,R13*%
X60800000Y37200000D03*
D30*
X60800000Y57520000D03*
%TD*%
D21*
%TO.C,Q2*%
X21600000Y30600000D03*
D22*
X23670000Y29330000D03*
X21600000Y28060000D03*
%TD*%
D11*
%TO.C,C5*%
X36980000Y16820000D03*
X36980000Y11820000D03*
%TD*%
%TO.C,R7*%
X34000000Y27400000D03*
D28*
X26380000Y27400000D03*
%TD*%
D21*
%TO.C,Q4*%
X31400000Y18200000D03*
D22*
X33470000Y16930000D03*
X31400000Y15660000D03*
%TD*%
D29*
%TO.C,R16*%
X69500000Y27000000D03*
D30*
X69500000Y16840000D03*
%TD*%
D15*
%TO.C,D2*%
X39800000Y32400000D03*
D16*
X39800000Y42560000D03*
%TD*%
D11*
%TO.C,R1*%
X12400000Y29200000D03*
D28*
X12400000Y21580000D03*
%TD*%
D31*
%TO.C,H1*%
X9500000Y54100000D03*
X7802944Y54802944D03*
X11900000Y56500000D03*
X7802944Y58197056D03*
X9500000Y58900000D03*
X11197056Y58197056D03*
D32*
X9500000Y56500000D03*
D31*
X11197056Y54802944D03*
X7100000Y56500000D03*
%TD*%
%TO.C,H2*%
X83400000Y20500000D03*
X82697056Y18802944D03*
X82697056Y22197056D03*
X78600000Y20500000D03*
X81000000Y22900000D03*
D32*
X81000000Y20500000D03*
D31*
X81000000Y18100000D03*
X79302944Y22197056D03*
X79302944Y18802944D03*
%TD*%
D33*
%TO.C,RV1*%
X45400000Y17400000D03*
D34*
X40400000Y14900000D03*
X45400000Y12400000D03*
%TD*%
D11*
X75399996Y31800000D03*
X81000000Y31800000D03*
D35*
X86000000Y5000000D02*
X86000000Y61000000D01*
X5000000Y61000000D02*
X5000000Y5000000D01*
X5000000Y5000000D02*
X86000000Y5000000D01*
X86000000Y61000000D02*
X5000000Y61000000D01*
X1666666Y0D02*
G75*
G02*
X-1666666Y0I-1666666J0D01*
G01*
X-1666666Y0D02*
G75*
G02*
X1666666Y0I1666666J0D01*
G01*
X-2500000Y0D02*
X2500000Y0D01*
X0Y2500000D02*
X0Y-2500000D01*
M02*
