M48
; DRILL file {KiCad 8.0.3-8.0.3-0~ubuntu22.04.1} date 2024-06-26T20:02:37-0500
; FORMAT={-:-/ absolute / metric / decimal}
; #@! TF.CreationDate,2024-06-26T20:02:37-05:00
; #@! TF.GenerationSoftware,Kicad,Pcbnew,8.0.3-8.0.3-0~ubuntu22.04.1
; #@! TF.FileFunction,Plated,1,2,PTH
FMAT,2
METRIC
; #@! TA.AperFunction,Plated,PTH,ComponentDrill
T1C0.500
; #@! TA.AperFunction,Plated,PTH,ComponentDrill
T2C0.750
; #@! TA.AperFunction,Plated,PTH,ViaDrill
T3C0.800
; #@! TA.AperFunction,Plated,PTH,ComponentDrill
T4C0.800
; #@! TA.AperFunction,Plated,PTH,ComponentDrill
T5C0.900
; #@! TA.AperFunction,Plated,PTH,ComponentDrill
T6C1.000
; #@! TA.AperFunction,Plated,PTH,ComponentDrill
T7C1.100
; #@! TA.AperFunction,Plated,PTH,ComponentDrill
T8C1.200
; #@! TA.AperFunction,Plated,PTH,ComponentDrill
T9C1.300
; #@! TA.AperFunction,Plated,PTH,ComponentDrill
T10C1.500
; #@! TA.AperFunction,Plated,PTH,ComponentDrill
T11C3.200
%
G90
G05
T1
X7.1Y56.5
X7.803Y58.197
X7.803Y54.803
X9.5Y58.9
X9.5Y54.1
X11.197Y58.197
X11.197Y54.803
X11.9Y56.5
X78.6Y20.5
X79.303Y22.197
X79.303Y18.803
X81.0Y22.9
X81.0Y18.1
X82.697Y22.197
X82.697Y18.803
X83.4Y20.5
T2
X16.6Y30.6
X16.6Y28.06
X17.87Y29.33
X22.0Y30.6
X22.0Y28.06
X23.27Y29.33
X31.53Y22.87
X31.8Y18.2
X31.8Y15.66
X32.8Y24.14
X32.8Y21.6
X33.07Y16.93
T3
X75.4Y31.8
X81.0Y31.8
T4
X12.4Y37.8
X12.4Y32.8
X12.4Y29.2
X12.4Y21.58
X14.5Y49.0
X14.5Y41.38
X16.2Y34.0
X17.4Y25.4
X17.4Y17.78
X18.8Y44.0
X22.2Y25.2
X22.2Y17.58
X22.3Y44.0
X23.82Y34.0
X26.0Y21.02
X26.0Y13.4
X26.38Y27.4
X26.4Y30.6
X29.28Y47.2
X29.28Y43.6
X30.7Y50.6
X32.8Y38.9
X32.8Y35.4
X34.0Y27.4
X34.02Y30.6
X35.7Y50.6
X36.9Y47.2
X36.9Y43.6
X36.98Y16.82
X36.98Y11.82
X37.01Y25.27
X37.01Y20.27
X40.6Y29.02
X40.6Y21.4
X46.0Y9.6
X51.0Y9.6
T5
X15.4Y37.6
X25.56Y37.6
T6
X10.8Y45.8
X10.8Y43.26
X40.4Y14.9
X45.4Y17.4
X45.4Y12.4
T7
X39.8Y42.56
X39.8Y32.4
X44.2Y30.96
X44.2Y20.8
X46.0Y40.28
X46.0Y37.74
X46.0Y35.2
X50.0Y37.66
X50.0Y27.5
X55.4Y52.08
X55.4Y49.54
X55.4Y47.0
X55.6Y19.88
X55.6Y17.34
X55.6Y14.8
T8
X60.8Y57.52
X60.8Y37.2
X60.8Y32.92
X60.8Y12.6
X69.5Y47.36
X69.5Y37.2
X69.5Y27.0
X69.5Y16.84
T9
X11.0Y10.5
X16.08Y10.5
X21.16Y10.5
X81.0Y43.08
X81.0Y38.0
T10
X69.0Y57.0
X69.1Y9.0
X74.45Y57.0
X74.55Y9.0
X79.9Y57.0
X80.0Y9.0
T11
X9.5Y56.5
X81.0Y20.5
M30
