%TF.GenerationSoftware,KiCad,Pcbnew,8.0.3-8.0.3-0~ubuntu22.04.1*%
%TF.CreationDate,2024-06-26T20:02:33-05:00*%
%TF.ProjectId,amplificador_200w,616d706c-6966-4696-9361-646f725f3230,v1.0.0*%
%TF.SameCoordinates,PX5cfbb60PY7d687e0*%
%TF.FileFunction,Copper,L1,Top*%
%TF.FilePolarity,Positive*%
%FSLAX46Y46*%
G04 Gerber Fmt 4.6, Leading zero omitted, Abs format (unit mm)*
G04 Created by KiCad (PCBNEW 8.0.3-8.0.3-0~ubuntu22.04.1) date 2024-06-26 20:02:33*
%MOMM*%
%LPD*%
G01*
G04 APERTURE LIST*
G04 Aperture macros list*
%AMRoundRect*
0 Rectangle with rounded corners*
0 $1 Rounding radius*
0 $2 $3 $4 $5 $6 $7 $8 $9 X,Y pos of 4 corners*
0 Add a 4 corners polygon primitive as box body*
4,1,4,$2,$3,$4,$5,$6,$7,$8,$9,$2,$3,0*
0 Add four circle primitives for the rounded corners*
1,1,$1+$1,$2,$3*
1,1,$1+$1,$4,$5*
1,1,$1+$1,$6,$7*
1,1,$1+$1,$8,$9*
0 Add four rect primitives between the rounded corners*
20,1,$1+$1,$2,$3,$4,$5,0*
20,1,$1+$1,$4,$5,$6,$7,0*
20,1,$1+$1,$6,$7,$8,$9,0*
20,1,$1+$1,$8,$9,$2,$3,0*%
G04 Aperture macros list end*
%TA.AperFunction,ComponentPad*%
%ADD10C,1.600000*%
%TD*%
%TA.AperFunction,ComponentPad*%
%ADD11R,1.600000X1.600000*%
%TD*%
%TA.AperFunction,ComponentPad*%
%ADD12R,1.800000X1.800000*%
%TD*%
%TA.AperFunction,ComponentPad*%
%ADD13O,1.800000X1.800000*%
%TD*%
%TA.AperFunction,ComponentPad*%
%ADD14R,2.200000X2.200000*%
%TD*%
%TA.AperFunction,ComponentPad*%
%ADD15O,2.200000X2.200000*%
%TD*%
%TA.AperFunction,ComponentPad*%
%ADD16R,1.700000X1.700000*%
%TD*%
%TA.AperFunction,ComponentPad*%
%ADD17O,1.700000X1.700000*%
%TD*%
%TA.AperFunction,ComponentPad*%
%ADD18R,2.600000X2.600000*%
%TD*%
%TA.AperFunction,ComponentPad*%
%ADD19C,2.600000*%
%TD*%
%TA.AperFunction,ComponentPad*%
%ADD20R,1.800000X1.100000*%
%TD*%
%TA.AperFunction,ComponentPad*%
%ADD21RoundRect,0.275000X-0.625000X0.275000X-0.625000X-0.275000X0.625000X-0.275000X0.625000X0.275000X0*%
%TD*%
%TA.AperFunction,ComponentPad*%
%ADD22RoundRect,0.275000X0.625000X-0.275000X0.625000X0.275000X-0.625000X0.275000X-0.625000X-0.275000X0*%
%TD*%
%TA.AperFunction,ComponentPad*%
%ADD23R,2.000000X1.905000*%
%TD*%
%TA.AperFunction,ComponentPad*%
%ADD24O,2.000000X1.905000*%
%TD*%
%TA.AperFunction,ComponentPad*%
%ADD25R,2.500000X4.500000*%
%TD*%
%TA.AperFunction,ComponentPad*%
%ADD26O,2.500000X4.500000*%
%TD*%
%TA.AperFunction,ComponentPad*%
%ADD27O,1.600000X1.600000*%
%TD*%
%TA.AperFunction,ComponentPad*%
%ADD28C,2.400000*%
%TD*%
%TA.AperFunction,ComponentPad*%
%ADD29O,2.400000X2.400000*%
%TD*%
%TA.AperFunction,ComponentPad*%
%ADD30C,0.800000*%
%TD*%
%TA.AperFunction,ComponentPad*%
%ADD31C,6.400000*%
%TD*%
%TA.AperFunction,ComponentPad*%
%ADD32R,1.550000X1.550000*%
%TD*%
%TA.AperFunction,ComponentPad*%
%ADD33C,1.550000*%
%TD*%
%TA.AperFunction,ViaPad*%
%ADD34C,1.600000*%
%TD*%
%TA.AperFunction,Conductor*%
%ADD35C,0.800000*%
%TD*%
%TA.AperFunction,Profile*%
%ADD36C,0.050000*%
%TD*%
G04 APERTURE END LIST*
D10*
%TO.P,C1,1*%
%TO.N,Net-(Q1-B)*%
X12400000Y32800000D03*
%TO.P,C1,2*%
%TO.N,Net-(J1-Pin_2)*%
X12400000Y37800000D03*
%TD*%
D11*
%TO.P,C2,1*%
%TO.N,Net-(D1-K)*%
X18800000Y44000000D03*
D10*
%TO.P,C2,2*%
%TO.N,GND*%
X22300000Y44000000D03*
%TD*%
D11*
%TO.P,C3,1*%
%TO.N,Net-(C3-Pad1)*%
X32800000Y35400000D03*
D10*
%TO.P,C3,2*%
%TO.N,GND*%
X32800000Y38900000D03*
%TD*%
%TO.P,C4,1*%
%TO.N,Net-(Q2-C)*%
X37010000Y25270000D03*
%TO.P,C4,2*%
%TO.N,Net-(Q3-C)*%
X37010000Y20270000D03*
%TD*%
%TO.P,C6,1*%
%TO.N,Net-(D3-A)*%
X35700000Y50600000D03*
%TO.P,C6,2*%
%TO.N,50V*%
X30700000Y50600000D03*
%TD*%
%TO.P,C7,1*%
%TO.N,/CC*%
X46000000Y9600000D03*
%TO.P,C7,2*%
%TO.N,Net-(Q7-C)*%
X51000000Y9600000D03*
%TD*%
D12*
%TO.P,D1,1,K*%
%TO.N,Net-(D1-K)*%
X15400000Y37600000D03*
D13*
%TO.P,D1,2,A*%
%TO.N,GND*%
X25560000Y37600000D03*
%TD*%
D14*
%TO.P,D3,1,K*%
%TO.N,Net-(D3-K)*%
X50000000Y27500000D03*
D15*
%TO.P,D3,2,A*%
%TO.N,Net-(D3-A)*%
X50000000Y37660000D03*
%TD*%
D14*
%TO.P,D4,1,K*%
%TO.N,Net-(D4-K)*%
X44200000Y20800000D03*
D15*
%TO.P,D4,2,A*%
%TO.N,Net-(D3-K)*%
X44200000Y30960000D03*
%TD*%
D16*
%TO.P,J1,1,Pin_1*%
%TO.N,GND*%
X10800000Y45800000D03*
D17*
%TO.P,J1,2,Pin_2*%
%TO.N,Net-(J1-Pin_2)*%
X10800000Y43260000D03*
%TD*%
D18*
%TO.P,J2,1,Pin_1*%
%TO.N,50V*%
X11000000Y10500000D03*
D19*
%TO.P,J2,2,Pin_2*%
%TO.N,GND*%
X16080000Y10500000D03*
%TO.P,J2,3,Pin_3*%
%TO.N,-50V*%
X21160000Y10500000D03*
%TD*%
D18*
%TO.P,J3,1,Pin_1*%
%TO.N,Net-(J3-Pin_1)*%
X81000000Y38000000D03*
D19*
%TO.P,J3,2,Pin_2*%
%TO.N,GND*%
X81000000Y43080000D03*
%TD*%
D20*
%TO.P,Q1,1,E*%
%TO.N,Net-(Q1-E)*%
X16200000Y30600000D03*
D21*
%TO.P,Q1,2,C*%
%TO.N,Net-(Q1-C)*%
X18270000Y29330000D03*
%TO.P,Q1,3,B*%
%TO.N,Net-(Q1-B)*%
X16200000Y28060000D03*
%TD*%
D20*
%TO.P,Q3,1,E*%
%TO.N,Net-(Q3-E)*%
X33200000Y21600000D03*
D22*
%TO.P,Q3,2,C*%
%TO.N,Net-(Q3-C)*%
X31130000Y22870000D03*
%TO.P,Q3,3,B*%
%TO.N,Net-(Q2-C)*%
X33200000Y24140000D03*
%TD*%
D23*
%TO.P,Q5,1,B*%
%TO.N,Net-(D2-K)*%
X46000000Y35200000D03*
D24*
%TO.P,Q5,2,C*%
%TO.N,Net-(D3-A)*%
X46000000Y37740000D03*
%TO.P,Q5,3,E*%
%TO.N,Net-(Q5-E)*%
X46000000Y40280000D03*
%TD*%
D23*
%TO.P,Q6,1,B*%
%TO.N,Net-(D3-A)*%
X55400000Y47000000D03*
D24*
%TO.P,Q6,2,C*%
%TO.N,50V*%
X55400000Y49540000D03*
%TO.P,Q6,3,E*%
%TO.N,Net-(Q6-E)*%
X55400000Y52080000D03*
%TD*%
D23*
%TO.P,Q7,1,B*%
%TO.N,/CC*%
X55600000Y14800000D03*
D24*
%TO.P,Q7,2,C*%
%TO.N,Net-(Q7-C)*%
X55600000Y17340000D03*
%TO.P,Q7,3,E*%
%TO.N,Net-(J3-Pin_1)*%
X55600000Y19880000D03*
%TD*%
D25*
%TO.P,Q8,1,B*%
%TO.N,Net-(Q6-E)*%
X69000000Y57000000D03*
D26*
%TO.P,Q8,2,C*%
%TO.N,50V*%
X74450000Y57000000D03*
%TO.P,Q8,3,E*%
%TO.N,Net-(Q8-E)*%
X79900000Y57000000D03*
%TD*%
D25*
%TO.P,Q9,1,B*%
%TO.N,Net-(Q7-C)*%
X80000000Y9000000D03*
D26*
%TO.P,Q9,2,C*%
%TO.N,Net-(J3-Pin_1)*%
X74550000Y9000000D03*
%TO.P,Q9,3,E*%
%TO.N,Net-(Q9-E)*%
X69100000Y9000000D03*
%TD*%
D10*
%TO.P,R2,1*%
%TO.N,Net-(Q1-C)*%
X17400000Y25400000D03*
D27*
%TO.P,R2,2*%
%TO.N,-50V*%
X17400000Y17780000D03*
%TD*%
D10*
%TO.P,R3,1*%
%TO.N,50V*%
X14500000Y49000000D03*
D27*
%TO.P,R3,2*%
%TO.N,Net-(D1-K)*%
X14500000Y41380000D03*
%TD*%
D10*
%TO.P,R4,1*%
%TO.N,Net-(D1-K)*%
X16200000Y34000000D03*
D27*
%TO.P,R4,2*%
%TO.N,Net-(Q1-E)*%
X23820000Y34000000D03*
%TD*%
D10*
%TO.P,R5,1*%
%TO.N,Net-(Q2-C)*%
X22200000Y25200000D03*
D27*
%TO.P,R5,2*%
%TO.N,-50V*%
X22200000Y17580000D03*
%TD*%
D10*
%TO.P,R6,1*%
%TO.N,Net-(Q2-B)*%
X26400000Y30600000D03*
D27*
%TO.P,R6,2*%
%TO.N,Net-(C3-Pad1)*%
X34020000Y30600000D03*
%TD*%
D10*
%TO.P,R8,1*%
%TO.N,Net-(D2-A)*%
X36900000Y43600000D03*
D27*
%TO.P,R8,2*%
%TO.N,50V*%
X29280000Y43600000D03*
%TD*%
D10*
%TO.P,R9,1*%
%TO.N,Net-(Q3-C)*%
X40600000Y21400000D03*
D27*
%TO.P,R9,2*%
%TO.N,Net-(D2-K)*%
X40600000Y29020000D03*
%TD*%
D10*
%TO.P,R10,1*%
%TO.N,-50V*%
X26000000Y13400000D03*
D27*
%TO.P,R10,2*%
%TO.N,Net-(Q3-E)*%
X26000000Y21020000D03*
%TD*%
D10*
%TO.P,R11,1*%
%TO.N,Net-(Q5-E)*%
X36900000Y47200000D03*
D27*
%TO.P,R11,2*%
%TO.N,50V*%
X29280000Y47200000D03*
%TD*%
D28*
%TO.P,R14,1*%
%TO.N,-50V*%
X60800000Y12600000D03*
D29*
%TO.P,R14,2*%
%TO.N,Net-(Q7-C)*%
X60800000Y32920000D03*
%TD*%
D28*
%TO.P,R15,1*%
%TO.N,Net-(J3-Pin_1)*%
X69500000Y37200000D03*
D29*
%TO.P,R15,2*%
%TO.N,Net-(Q8-E)*%
X69500000Y47360000D03*
%TD*%
D28*
%TO.P,R13,1*%
%TO.N,Net-(J3-Pin_1)*%
X60800000Y37200000D03*
D29*
%TO.P,R13,2*%
%TO.N,Net-(Q6-E)*%
X60800000Y57520000D03*
%TD*%
D20*
%TO.P,Q2,1,E*%
%TO.N,Net-(Q1-E)*%
X21600000Y30600000D03*
D21*
%TO.P,Q2,2,C*%
%TO.N,Net-(Q2-C)*%
X23670000Y29330000D03*
%TO.P,Q2,3,B*%
%TO.N,Net-(Q2-B)*%
X21600000Y28060000D03*
%TD*%
D10*
%TO.P,C5,1*%
%TO.N,/CC*%
X36980000Y16820000D03*
%TO.P,C5,2*%
%TO.N,Net-(Q1-C)*%
X36980000Y11820000D03*
%TD*%
%TO.P,R7,1*%
%TO.N,Net-(J3-Pin_1)*%
X34000000Y27400000D03*
D27*
%TO.P,R7,2*%
%TO.N,Net-(Q2-B)*%
X26380000Y27400000D03*
%TD*%
D20*
%TO.P,Q4,1,E*%
%TO.N,Net-(Q3-E)*%
X31400000Y18200000D03*
D21*
%TO.P,Q4,2,C*%
%TO.N,/CC*%
X33470000Y16930000D03*
%TO.P,Q4,3,B*%
%TO.N,Net-(Q1-C)*%
X31400000Y15660000D03*
%TD*%
D28*
%TO.P,R16,1*%
%TO.N,-50V*%
X69500000Y27000000D03*
D29*
%TO.P,R16,2*%
%TO.N,Net-(Q9-E)*%
X69500000Y16840000D03*
%TD*%
D14*
%TO.P,D2,1,K*%
%TO.N,Net-(D2-K)*%
X39800000Y32400000D03*
D15*
%TO.P,D2,2,A*%
%TO.N,Net-(D2-A)*%
X39800000Y42560000D03*
%TD*%
D10*
%TO.P,R1,1*%
%TO.N,Net-(Q1-B)*%
X12400000Y29200000D03*
D27*
%TO.P,R1,2*%
%TO.N,GND*%
X12400000Y21580000D03*
%TD*%
D30*
%TO.P,H1,1*%
%TO.N,N/C*%
X9500000Y54100000D03*
X7802944Y54802944D03*
X11900000Y56500000D03*
X7802944Y58197056D03*
X9500000Y58900000D03*
X11197056Y58197056D03*
D31*
X9500000Y56500000D03*
D30*
X11197056Y54802944D03*
X7100000Y56500000D03*
%TD*%
%TO.P,H2,1*%
%TO.N,N/C*%
X83400000Y20500000D03*
X82697056Y18802944D03*
X82697056Y22197056D03*
X78600000Y20500000D03*
X81000000Y22900000D03*
D31*
X81000000Y20500000D03*
D30*
X81000000Y18100000D03*
X79302944Y22197056D03*
X79302944Y18802944D03*
%TD*%
D32*
%TO.P,RV1,1,1*%
%TO.N,Net-(D4-K)*%
X45400000Y17400000D03*
D33*
%TO.P,RV1,2,2*%
%TO.N,/CC*%
X40400000Y14900000D03*
%TO.P,RV1,3,3*%
X45400000Y12400000D03*
%TD*%
D34*
%TO.N,Net-(Q7-C)*%
X75399996Y31800000D03*
X81000000Y31800000D03*
%TD*%
D35*
%TO.N,Net-(Q7-C)*%
X75399996Y31800000D02*
X81000000Y31800000D01*
%TD*%
D36*
X86000000Y5000000D02*
X86000000Y61000000D01*
X5000000Y61000000D02*
X5000000Y5000000D01*
X5000000Y5000000D02*
X86000000Y5000000D01*
X86000000Y61000000D02*
X5000000Y61000000D01*
X1666666Y0D02*
G75*
G02*
X-1666666Y0I-1666666J0D01*
G01*
X-1666666Y0D02*
G75*
G02*
X1666666Y0I1666666J0D01*
G01*
X-2500000Y0D02*
X2500000Y0D01*
X0Y2500000D02*
X0Y-2500000D01*
M02*
